<svg xmlns="http://www.w3.org/2000/svg" xmlns:xlink="http://www.w3.org/1999/xlink" width="103" height="103" viewBox="0 0 103 103">
  <defs>
    <filter id="Trazado_978624" x="0" y="0" width="103" height="103" filterUnits="userSpaceOnUse">
      <feOffset dy="3" input="SourceAlpha"/>
      <feGaussianBlur stdDeviation="3" result="blur"/>
      <feFlood flood-opacity="0.161"/>
      <feComposite operator="in" in2="blur"/>
      <feComposite in="SourceGraphic"/>
    </filter>
  </defs>
  <g id="Grupo_1225183" data-name="Grupo 1225183" transform="translate(-215 -5231.047)">
    <g id="Grupo_1224932" data-name="Grupo 1224932" transform="translate(44 4398.047)">
      <g id="Grupo_1222589" data-name="Grupo 1222589">
        <g id="Grupo_1203109" data-name="Grupo 1203109" transform="translate(180 839)">
          <g id="Grupo_1176881" data-name="Grupo 1176881">
            <g id="Grupo_1175148" data-name="Grupo 1175148">
              <g id="Grupo_1173798" data-name="Grupo 1173798">
                <g id="Grupo_1171925" data-name="Grupo 1171925">
                  <g id="Grupo_1164524" data-name="Grupo 1164524">
                    <g id="Grupo_1144123" data-name="Grupo 1144123">
                      <g transform="matrix(1, 0, 0, 1, -9, -6)" filter="url(#Trazado_978624)">
                        <g id="Trazado_978624-2" data-name="Trazado 978624" transform="translate(9 6)" fill="#e7f2f8">
                          <path d="M 42.5 83.5 C 36.96437835693359 83.5 31.59512901306152 82.41617584228516 26.54141235351562 80.27863311767578 C 21.65934181213379 78.21369171142578 17.27447128295898 75.25723266601562 13.50862312316895 71.49137878417969 C 9.742764472961426 67.72553253173828 6.786305904388428 63.34066009521484 4.721364498138428 58.45858764648438 C 2.583823442459106 53.40486907958984 1.5 48.03562164306641 1.5 42.5 C 1.5 36.96437835693359 2.583823442459106 31.59512901306152 4.721364498138428 26.54141235351562 C 6.786305904388428 21.65934181213379 9.742764472961426 17.27447128295898 13.50862312316895 13.50862312316895 C 17.27447128295898 9.742764472961426 21.65934181213379 6.786305904388428 26.54141235351562 4.721364498138428 C 31.59512901306152 2.583823442459106 36.96437835693359 1.5 42.5 1.5 C 48.03562164306641 1.5 53.40486907958984 2.583823442459106 58.45858764648438 4.721364498138428 C 63.34066009521484 6.786305904388428 67.72553253173828 9.742764472961426 71.49137878417969 13.50862312316895 C 75.25723266601562 17.27447128295898 78.21369171142578 21.65934181213379 80.27863311767578 26.54141235351562 C 82.41617584228516 31.59512901306152 83.5 36.96437835693359 83.5 42.5 C 83.5 48.03562164306641 82.41617584228516 53.40486907958984 80.27863311767578 58.45858764648438 C 78.21369171142578 63.34066009521484 75.25723266601562 67.72553253173828 71.49137878417969 71.49137878417969 C 67.72553253173828 75.25723266601562 63.34066009521484 78.21369171142578 58.45858764648438 80.27863311767578 C 53.40486907958984 82.41617584228516 48.03562164306641 83.5 42.5 83.5 Z" stroke="none"/>
                          <path d="M 42.5 3 C 37.16621398925781 3 31.99356079101562 4.043960571289062 27.125732421875 6.102882385253906 C 22.42246627807617 8.092185974121094 18.19785308837891 10.94070434570312 14.56928253173828 14.56928253173828 C 10.94070434570312 18.19785308837891 8.092185974121094 22.42246627807617 6.102882385253906 27.125732421875 C 4.043960571289062 31.99356079101562 3 37.16621398925781 3 42.5 C 3 47.83378601074219 4.043960571289062 53.00643920898438 6.102882385253906 57.87425231933594 C 8.092185974121094 62.57753372192383 10.94070434570312 66.80213165283203 14.56928253173828 70.43071746826172 C 18.19786834716797 74.05929565429688 22.42246627807617 76.90781402587891 27.125732421875 78.89711761474609 C 31.99356079101562 80.95603942871094 37.16621398925781 82 42.5 82 C 47.83378601074219 82 53.00642395019531 80.95603942871094 57.87425231933594 78.89711761474609 C 62.57753372192383 76.90781402587891 66.80213165283203 74.05929565429688 70.43071746826172 70.43071746826172 C 74.05929565429688 66.80213165283203 76.90781402587891 62.57753372192383 78.89711761474609 57.87425231933594 C 80.95603942871094 53.00642395019531 82 47.83378601074219 82 42.5 C 82 37.16621398925781 80.95603942871094 31.99356079101562 78.89711761474609 27.125732421875 C 76.90781402587891 22.42246627807617 74.05929565429688 18.19786834716797 70.43071746826172 14.56928253173828 C 66.80213165283203 10.94070434570312 62.57753372192383 8.092185974121094 57.87425231933594 6.102882385253906 C 53.00643920898438 4.043960571289062 47.83378601074219 3 42.5 3 M 42.5 0 C 65.97209167480469 0 85 19.02789306640625 85 42.5 C 85 65.97209167480469 65.97209167480469 85 42.5 85 C 19.02789306640625 85 0 65.97209167480469 0 42.5 C 0 19.02789306640625 19.02789306640625 0 42.5 0 Z" stroke="none" fill="#248abf"/>
                        </g>
                      </g>
                    </g>
                  </g>
                </g>
              </g>
            </g>
          </g>
        </g>
      </g>
    </g>
    <g id="obediente_2_" data-name="obediente (2)" transform="translate(233.563 5251.551)">
      <g id="Grupo_1225173" data-name="Grupo 1225173" transform="translate(9.647 0.806)">
        <g id="Grupo_1225171" data-name="Grupo 1225171">
          <g id="Grupo_1225168" data-name="Grupo 1225168" transform="translate(0 21.045)">
            <g id="Grupo_1225161" data-name="Grupo 1225161" transform="translate(0 0)">
              <path id="Trazado_1179971" data-name="Trazado 1179971" d="M39.2,203.923l1.935,3.351a.322.322,0,0,0,.279.161H54.674a.322.322,0,0,0,.279-.161l1.935-3.351a.322.322,0,0,0-.279-.483H39.483A.322.322,0,0,0,39.2,203.923Z" transform="translate(-39.16 -203.44)" fill="#fed402"/>
            </g>
            <g id="Grupo_1225167" data-name="Grupo 1225167">
              <g id="Grupo_1225162" data-name="Grupo 1225162" transform="translate(28.808 0)">
                <path id="Trazado_1179972" data-name="Trazado 1179972" d="M307.426,203.923l1.935,3.351a.322.322,0,0,0,.279.161H322.9a.322.322,0,0,0,.279-.161l1.935-3.351a.322.322,0,0,0-.279-.483H307.7A.322.322,0,0,0,307.426,203.923Z" transform="translate(-307.382 -203.44)" fill="#fed402"/>
              </g>
              <g id="Grupo_1225163" data-name="Grupo 1225163" transform="translate(0 0)">
                <path id="Trazado_1179973" data-name="Trazado 1179973" d="M39.2,203.923l1.935,3.351a.322.322,0,0,0,.279.161H54.674a.322.322,0,0,0,.279-.161l1.935-3.351a.322.322,0,0,0-.279-.483H39.483A.322.322,0,0,0,39.2,203.923Z" transform="translate(-39.16 -203.44)" fill="#ca6e59"/>
              </g>
              <g id="Grupo_1225164" data-name="Grupo 1225164" transform="translate(0)">
                <path id="Trazado_1179974" data-name="Trazado 1179974" d="M45.691,207.273l-1.935-3.351a.322.322,0,0,1,.279-.483H39.483a.322.322,0,0,0-.279.483l1.935,3.351a.322.322,0,0,0,.279.161H45.97A.322.322,0,0,1,45.691,207.273Z" transform="translate(-39.161 -203.439)" fill="#bb5d4c"/>
              </g>
              <g id="Grupo_1225165" data-name="Grupo 1225165" transform="translate(28.808 0)">
                <path id="Trazado_1179975" data-name="Trazado 1179975" d="M307.426,203.923l1.935,3.351a.322.322,0,0,0,.279.161H322.9a.322.322,0,0,0,.279-.161l1.935-3.351a.322.322,0,0,0-.279-.483H307.7A.322.322,0,0,0,307.426,203.923Z" transform="translate(-307.382 -203.44)" fill="#ca6e59"/>
              </g>
              <g id="Grupo_1225166" data-name="Grupo 1225166" transform="translate(28.808)">
                <path id="Trazado_1179976" data-name="Trazado 1179976" d="M314.475,207.273l-1.935-3.351a.322.322,0,0,1,.279-.483h-5.114a.322.322,0,0,0-.279.483l1.935,3.351a.322.322,0,0,0,.279.161h5.114A.322.322,0,0,1,314.475,207.273Z" transform="translate(-307.383 -203.439)" fill="#bb5d4c"/>
              </g>
            </g>
          </g>
          <path id="Trazado_1179977" data-name="Trazado 1179977" d="M240.269,123.354V103.66a.537.537,0,0,0-.537-.537H236.5a.537.537,0,0,0-.537.537v19.694h4.3Z" transform="translate(-214.828 -92.853)" fill="#bb5d4c"/>
          <path id="Trazado_1179978" data-name="Trazado 1179978" d="M237.788,123.354V103.66a.537.537,0,0,1,.537-.537H236.5a.537.537,0,0,0-.537.537v19.694h1.822Z" transform="translate(-214.828 -92.853)" fill="#a44f3e"/>
          <g id="Grupo_1225169" data-name="Grupo 1225169" transform="translate(20.283 0)">
            <circle id="Elipse_14558" data-name="Elipse 14558" cx="3.007" cy="3.007" r="3.007" transform="translate(0)" fill="#883f2e"/>
          </g>
          <g id="Grupo_1225170" data-name="Grupo 1225170" transform="translate(20.283)">
            <path id="Trazado_1179979" data-name="Trazado 1179979" d="M230.691,10.507a3.006,3.006,0,0,1,1.664-2.69,3.007,3.007,0,1,0,0,5.38A3.006,3.006,0,0,1,230.691,10.507Z" transform="translate(-228.005 -7.5)" fill="#6d3326"/>
          </g>
        </g>
        <g id="Grupo_1225172" data-name="Grupo 1225172" transform="translate(4.14 30.501)">
          <path id="Trazado_1179980" data-name="Trazado 1179980" d="M219.3,296.1v-2.467a2.148,2.148,0,0,0-2.148-2.148H211.4a2.148,2.148,0,0,0-2.148,2.148V296.1Z" transform="translate(-195.127 -291.485)" fill="#883f2e"/>
          <path id="Trazado_1179981" data-name="Trazado 1179981" d="M212.879,296.1v-2.467a2.148,2.148,0,0,1,2.148-2.148H211.4a2.148,2.148,0,0,0-2.148,2.148V296.1Z" transform="translate(-195.126 -291.485)" fill="#6d3326"/>
          <path id="Trazado_1179982" data-name="Trazado 1179982" d="M189.394,339.349V336.3a1.841,1.841,0,0,0-1.841-1.841h-14.54a1.841,1.841,0,0,0-1.841,1.841v3.051Z" transform="translate(-161.133 -329.842)" fill="#bb5d4c"/>
          <path id="Trazado_1179983" data-name="Trazado 1179983" d="M175.7,339.349V336.3a1.841,1.841,0,0,1,1.841-1.841h-4.53a1.841,1.841,0,0,0-1.841,1.841v3.051Z" transform="translate(-161.134 -329.842)" fill="#a44f3e"/>
          <path id="Trazado_1179984" data-name="Trazado 1179984" d="M80.572,379.006a2.869,2.869,0,0,0-2.869,2.869v5.451a2.869,2.869,0,0,0,2.869,2.869h1.163v-7.6H87.6v7.6H120.45V379.006Z" transform="translate(-77.703 -369.606)" fill="#fff3de"/>
        </g>
      </g>
      <g id="Grupo_1225182" data-name="Grupo 1225182" transform="translate(6.902 40.707)">
        <g id="Grupo_1225177" data-name="Grupo 1225177" transform="translate(0)">
          <g id="Grupo_1225174" data-name="Grupo 1225174">
            <path id="Trazado_1179985" data-name="Trazado 1179985" d="M23.35,390.195a2.869,2.869,0,0,1-2.869-2.869v-5.451a2.869,2.869,0,0,1,2.869-2.869H19.19a5.594,5.594,0,0,0,0,11.189h4.16Z" transform="translate(-13.596 -379.006)" fill="#3675bb"/>
          </g>
          <g id="Grupo_1225175" data-name="Grupo 1225175">
            <path id="Trazado_1179986" data-name="Trazado 1179986" d="M16.313,384.6a5.594,5.594,0,0,1,5.594-5.594H19.19a5.594,5.594,0,0,0,0,11.189h2.717A5.6,5.6,0,0,1,16.313,384.6Z" transform="translate(-13.596 -379.006)" fill="#2b68b6"/>
          </g>
          <g id="Grupo_1225176" data-name="Grupo 1225176" transform="translate(6.885 0.004)">
            <path id="Trazado_1179987" data-name="Trazado 1179987" d="M81.735,387.082a2.866,2.866,0,0,1-1.315-2.411V379.22c0-.06,0-.12.006-.179a2.869,2.869,0,0,0-2.723,2.865v5.451a2.869,2.869,0,0,0,2.869,2.869h1.163Z" transform="translate(-77.703 -379.041)" fill="#ffe5c2"/>
            <path id="Trazado_1179988" data-name="Trazado 1179988" d="M169.857,458.174h32.849v2.686H169.857Z" transform="translate(-159.959 -449.675)" fill="#ffe5c2"/>
          </g>
        </g>
        <g id="Grupo_1225181" data-name="Grupo 1225181" transform="translate(10.917 3.586)">
          <g id="Grupo_1225178" data-name="Grupo 1225178">
            <path id="Trazado_1179989" data-name="Trazado 1179989" d="M121.106,421.965v-9.57H115.24v9.57a.322.322,0,0,0,.506.265l2.427-1.68,2.427,1.68A.322.322,0,0,0,121.106,421.965Z" transform="translate(-115.24 -412.395)" fill="#fb2b3a"/>
          </g>
          <g id="Grupo_1225180" data-name="Grupo 1225180" transform="translate(0)">
            <g id="Grupo_1225179" data-name="Grupo 1225179">
              <path id="Trazado_1179990" data-name="Trazado 1179990" d="M117.94,412.395h-2.7v9.57a.322.322,0,0,0,.506.265l2.195-1.519Z" transform="translate(-115.24 -412.395)" fill="#e41f2d"/>
            </g>
          </g>
        </g>
      </g>
      <path id="Trazado_1179991" data-name="Trazado 1179991" d="M58.972,51.09H57.339V41.513h1.633a.806.806,0,0,0,0-1.611H42.853V37.763a2.649,2.649,0,0,0-2.646-2.646H38.763V33.455A2.957,2.957,0,0,0,35.894,30.5v-13a.806.806,0,1,0-1.611,0V30.5H31.591V11.881h2.692v1.866a.806.806,0,1,0,1.611,0V11.613a1.344,1.344,0,0,0-1.343-1.343h-.809V7.538a3.823,3.823,0,0,0,2.92-2.92h9.873V6.087L38.659,21.053a1.126,1.126,0,0,0-.858,1.684l1.935,3.351a1.131,1.131,0,0,0,.977.564H48.3a.806.806,0,0,0,0-1.611h-7.3l-1.377-2.384H55.067L53.69,25.04H52.055a.806.806,0,0,0,0,1.611h1.914a1.131,1.131,0,0,0,.977-.564l1.935-3.351a1.126,1.126,0,0,0-.858-1.684L48.147,6.087V4.618h3.015a.806.806,0,1,0,0-1.611h-14.5a3.812,3.812,0,0,0-7.452,0h-14.5a.806.806,0,1,0,0,1.611h3.015V6.087L9.851,21.053a1.126,1.126,0,0,0-.858,1.684h0l1.935,3.351a1.131,1.131,0,0,0,.977.564H25.161a1.131,1.131,0,0,0,.977-.564l1.935-3.351a1.126,1.126,0,0,0-.858-1.684L19.338,6.087V4.618h9.873a3.823,3.823,0,0,0,2.92,2.92V10.27h-.809a1.344,1.344,0,0,0-1.343,1.343V30.5a2.957,2.957,0,0,0-2.869,2.951v1.662H25.667a2.65,2.65,0,0,0-2.646,2.646V39.9H12.5a6.4,6.4,0,1,0,0,12.8h4.517v1.162a1.128,1.128,0,0,0,1.769.927l1.969-1.363,1.969,1.363a1.128,1.128,0,0,0,1.769-.927V52.7H58.972a.805.805,0,1,0,0-1.611ZM46.536,21.045H40.484l6.052-11.5Zm1.611-11.5,6.052,11.5H48.147Zm-30.419,0v11.5H11.676ZM24.882,25.04h-12.7l-1.377-2.384H26.258Zm.508-4H19.338V9.546ZM30.736,3.812a2.2,2.2,0,1,1,2.2,2.2A2.2,2.2,0,0,1,30.736,3.812ZM28.722,33.455a1.344,1.344,0,0,1,1.343-1.343h5.745a1.344,1.344,0,0,1,1.343,1.343v1.662h-8.43ZM12.5,51.09a4.789,4.789,0,1,1,0-9.578h1.121a3.653,3.653,0,0,0-.636,2.063v5.451a3.652,3.652,0,0,0,.636,2.063Zm10.383,1.85L21.21,51.786a.805.805,0,0,0-.917,0l-1.669,1.155V45.1h4.255Zm32.849-9.453H38.316a.806.806,0,0,0,0,1.611H55.728V47.5H38.316a.806.806,0,0,0,0,1.611H55.728V51.09H24.49V45.1h6.8a.806.806,0,0,0,0-1.611H16.656a.806.806,0,0,0,0,1.611h.357V51.09h-.357a2.066,2.066,0,0,1-2.063-2.063V43.576a2.066,2.066,0,0,1,2.063-2.063H29.607a.806.806,0,1,0,0-1.611H24.632V37.763a1.037,1.037,0,0,1,1.035-1.035h14.54a1.037,1.037,0,0,1,1.035,1.035V39.9H33.367a.806.806,0,0,0,0,1.611H55.728Z"/>
    </g>
  </g>
</svg>
