<svg xmlns="http://www.w3.org/2000/svg" xmlns:xlink="http://www.w3.org/1999/xlink" width="103" height="103" viewBox="0 0 103 103">
  <defs>
    <filter id="Trazado_978624" x="0" y="0" width="103" height="103" filterUnits="userSpaceOnUse">
      <feOffset dy="3" input="SourceAlpha"/>
      <feGaussianBlur stdDeviation="3" result="blur"/>
      <feFlood flood-opacity="0.161"/>
      <feComposite operator="in" in2="blur"/>
      <feComposite in="SourceGraphic"/>
    </filter>
  </defs>
  <g id="Grupo_1225038" data-name="Grupo 1225038" transform="translate(-171 -796)">
    <g id="Grupo_1222970" data-name="Grupo 1222970" transform="translate(0 -37)">
      <g id="Grupo_1222589" data-name="Grupo 1222589">
        <g id="Grupo_1203109" data-name="Grupo 1203109" transform="translate(180 839)">
          <g id="Grupo_1176881" data-name="Grupo 1176881">
            <g id="Grupo_1175148" data-name="Grupo 1175148">
              <g id="Grupo_1173798" data-name="Grupo 1173798">
                <g id="Grupo_1171925" data-name="Grupo 1171925">
                  <g id="Grupo_1164524" data-name="Grupo 1164524">
                    <g id="Grupo_1144123" data-name="Grupo 1144123">
                      <g transform="matrix(1, 0, 0, 1, -9, -6)" filter="url(#Trazado_978624)">
                        <g id="Trazado_978624-2" data-name="Trazado 978624" transform="translate(9 6)" fill="#e7f2f8">
                          <path d="M 42.5 83.5 C 36.96437835693359 83.5 31.59512901306152 82.41617584228516 26.54141235351562 80.27863311767578 C 21.65934181213379 78.21369171142578 17.27447128295898 75.25723266601562 13.50862312316895 71.49137878417969 C 9.742764472961426 67.72553253173828 6.786305904388428 63.34066009521484 4.721364498138428 58.45858764648438 C 2.583823442459106 53.40486907958984 1.5 48.03562164306641 1.5 42.5 C 1.5 36.96437835693359 2.583823442459106 31.59512901306152 4.721364498138428 26.54141235351562 C 6.786305904388428 21.65934181213379 9.742764472961426 17.27447128295898 13.50862312316895 13.50862312316895 C 17.27447128295898 9.742764472961426 21.65934181213379 6.786305904388428 26.54141235351562 4.721364498138428 C 31.59512901306152 2.583823442459106 36.96437835693359 1.5 42.5 1.5 C 48.03562164306641 1.5 53.40486907958984 2.583823442459106 58.45858764648438 4.721364498138428 C 63.34066009521484 6.786305904388428 67.72553253173828 9.742764472961426 71.49137878417969 13.50862312316895 C 75.25723266601562 17.27447128295898 78.21369171142578 21.65934181213379 80.27863311767578 26.54141235351562 C 82.41617584228516 31.59512901306152 83.5 36.96437835693359 83.5 42.5 C 83.5 48.03562164306641 82.41617584228516 53.40486907958984 80.27863311767578 58.45858764648438 C 78.21369171142578 63.34066009521484 75.25723266601562 67.72553253173828 71.49137878417969 71.49137878417969 C 67.72553253173828 75.25723266601562 63.34066009521484 78.21369171142578 58.45858764648438 80.27863311767578 C 53.40486907958984 82.41617584228516 48.03562164306641 83.5 42.5 83.5 Z" stroke="none"/>
                          <path d="M 42.5 3 C 37.16621398925781 3 31.99356079101562 4.043960571289062 27.125732421875 6.102882385253906 C 22.42246627807617 8.092185974121094 18.19785308837891 10.94070434570312 14.56928253173828 14.56928253173828 C 10.94070434570312 18.19785308837891 8.092185974121094 22.42246627807617 6.102882385253906 27.125732421875 C 4.043960571289062 31.99356079101562 3 37.16621398925781 3 42.5 C 3 47.83378601074219 4.043960571289062 53.00643920898438 6.102882385253906 57.87425231933594 C 8.092185974121094 62.57753372192383 10.94070434570312 66.80213165283203 14.56928253173828 70.43071746826172 C 18.19786834716797 74.05929565429688 22.42246627807617 76.90781402587891 27.125732421875 78.89711761474609 C 31.99356079101562 80.95603942871094 37.16621398925781 82 42.5 82 C 47.83378601074219 82 53.00642395019531 80.95603942871094 57.87425231933594 78.89711761474609 C 62.57753372192383 76.90781402587891 66.80213165283203 74.05929565429688 70.43071746826172 70.43071746826172 C 74.05929565429688 66.80213165283203 76.90781402587891 62.57753372192383 78.89711761474609 57.87425231933594 C 80.95603942871094 53.00642395019531 82 47.83378601074219 82 42.5 C 82 37.16621398925781 80.95603942871094 31.99356079101562 78.89711761474609 27.125732421875 C 76.90781402587891 22.42246627807617 74.05929565429688 18.19786834716797 70.43071746826172 14.56928253173828 C 66.80213165283203 10.94070434570312 62.57753372192383 8.092185974121094 57.87425231933594 6.102882385253906 C 53.00643920898438 4.043960571289062 47.83378601074219 3 42.5 3 M 42.5 0 C 65.97209167480469 0 85 19.02789306640625 85 42.5 C 85 65.97209167480469 65.97209167480469 85 42.5 85 C 19.02789306640625 85 0 65.97209167480469 0 42.5 C 0 19.02789306640625 19.02789306640625 0 42.5 0 Z" stroke="none" fill="#248abf"/>
                        </g>
                      </g>
                    </g>
                  </g>
                </g>
              </g>
            </g>
          </g>
        </g>
      </g>
    </g>
    <g id="Lawyer-Avatar-Occupation-Woman-Balance" transform="translate(195 812)">
      <path id="Trazado_1179683" data-name="Trazado 1179683" d="M39.995,48.063V59.272H3V48.063a7.385,7.385,0,0,1,5.189-7.057L17.8,38h7.4l9.609,3.006A7.385,7.385,0,0,1,39.995,48.063Z" transform="translate(-0.075 -2.705)" fill="#787680"/>
      <path id="Trazado_1179684" data-name="Trazado 1179684" d="M39.145,22.422A3.682,3.682,0,0,1,36.657,25.9a3.637,3.637,0,0,1,.638,2.072,3.7,3.7,0,0,1-3.7,3.7,3.648,3.648,0,0,1-2.062-.629,3.691,3.691,0,0,1-6.261,1.221h-7.4a3.691,3.691,0,0,1-6.261-1.221,3.648,3.648,0,0,1-2.062.629,3.7,3.7,0,0,1-3.7-3.7A3.637,3.637,0,0,1,6.488,25.9,3.689,3.689,0,0,1,7.7,18.723a3.389,3.389,0,0,1,.925.139V15.948a12.948,12.948,0,1,1,25.9,0v2.913a3.389,3.389,0,0,1,.925-.139,3.7,3.7,0,0,1,3.7,3.7Z" transform="translate(-0.15 -0.075)" fill="#57565c"/>
      <path id="Trazado_1179685" data-name="Trazado 1179685" d="M26.4,32v7.4a3.7,3.7,0,1,1-7.4,0V32Z" transform="translate(-1.277 -2.254)" fill="#ffc477"/>
      <path id="Trazado_1179686" data-name="Trazado 1179686" d="M26.4,32v2.932a9.3,9.3,0,0,1-7.4,0V32Z" transform="translate(-1.277 -2.254)" fill="#ffb655"/>
      <path id="Trazado_1179687" data-name="Trazado 1179687" d="M31.5,16.634v6.474a9.249,9.249,0,1,1-18.5,0V16.634a16.656,16.656,0,0,0,11.579-4.5c1.054,2.09,3.755,3.579,6.918,3.579Z" transform="translate(-0.826 -0.761)" fill="#ffc477"/>
      <path id="Trazado_1179688" data-name="Trazado 1179688" d="M27.7,44.44l-2.691,8.851L24,45.763l1.461-2.923Z" transform="translate(-1.653 -3.068)" fill="#e6e7e8"/>
      <path id="Trazado_1179689" data-name="Trazado 1179689" d="M20.391,53l1.933,6.335-7.4-10.174.925-2.775L14,44.539l1.582-5.521.509-.157L17.7,44.141l2.691,8.851Z" transform="translate(-0.902 -2.769)" fill="#acabb1"/>
      <path id="Trazado_1179690" data-name="Trazado 1179690" d="M29.742,39.017l1.582,5.521-1.85,1.85.925,2.775L23,59.337,24.933,53v-.009l2.691-8.851,1.609-5.281Z" transform="translate(-1.578 -2.769)" fill="#acabb1"/>
      <path id="Trazado_1179691" data-name="Trazado 1179691" d="M29.234,38.8l-1.609,5.281-2.238-1.6L23,40.775,26.7,38Z" transform="translate(-1.578 -2.705)" fill="#d1d3d4"/>
      <path id="Trazado_1179692" data-name="Trazado 1179692" d="M25.192,42.7l-1.461,2.923h-1.85L20.42,42.7,22.806,41Z" transform="translate(-1.384 -2.93)" fill="#57565c"/>
      <path id="Trazado_1179693" data-name="Trazado 1179693" d="M23.768,46l1.008,7.528v.009l-1.933,6.335L20.91,53.538v-.009L21.918,46Z" transform="translate(-1.421 -3.306)" fill="#57565c"/>
      <path id="Trazado_1179694" data-name="Trazado 1179694" d="M22.494,40.775l-2.386,1.7-2.238,1.6L16.26,38.8l2.534-.8Z" transform="translate(-1.071 -2.705)" fill="#d1d3d4"/>
      <path id="Trazado_1179695" data-name="Trazado 1179695" d="M20.238,42.84,21.7,45.763l-1.008,7.528L18,44.44Z" transform="translate(-1.202 -3.068)" fill="#e6e7e8"/>
      <path id="Trazado_1179696" data-name="Trazado 1179696" d="M53.8,58.85V60.7H39V58.85A1.855,1.855,0,0,1,40.85,57h11.1A1.855,1.855,0,0,1,53.8,58.85Z" transform="translate(-2.78 -4.132)" fill="#57565c"/>
      <path id="Trazado_1179697" data-name="Trazado 1179697" d="M45,37V55.5h3.7V37Z" transform="translate(-3.231 -2.63)" fill="#acabb1"/>
      <circle id="Elipse_14544" data-name="Elipse 14544" cx="1.5" cy="1.5" r="1.5" transform="translate(42 33)" fill="#57565c"/>
      <path id="Trazado_1179698" data-name="Trazado 1179698" d="M33,46h7.4A3.7,3.7,0,0,1,33,46Z" transform="translate(-2.329 -3.306)" fill="#ee8700"/>
      <path id="Trazado_1179699" data-name="Trazado 1179699" d="M53,46h7.4A3.7,3.7,0,0,1,53,46Z" transform="translate(-3.832 -3.306)" fill="#ee8700"/>
      <path id="Trazado_1179700" data-name="Trazado 1179700" d="M57.409,42.315,54.292,35.3h1.35v-1.85H46.227a2.764,2.764,0,0,0-5.216,0H31.6V35.3h1.35l-2.488,5.6-.934-3.256.869.268.555-1.767-4.9-1.535v-.629A4.616,4.616,0,0,0,31.8,32.225a4.678,4.678,0,0,0,1.646.3A4.624,4.624,0,0,0,38.07,27.9a4.532,4.532,0,0,0-.305-1.656A4.614,4.614,0,0,0,35.3,17.723v-1.85a13.873,13.873,0,1,0-27.746,0v1.85A4.614,4.614,0,0,0,5.08,26.241,4.532,4.532,0,0,0,4.775,27.9,4.624,4.624,0,0,0,9.4,32.521a4.678,4.678,0,0,0,1.646-.3A4.616,4.616,0,0,0,16.8,33.982v.629l-8.953,2.8A8.286,8.286,0,0,0,2,45.358V56.567a.925.925,0,0,0,.925.925H51.018a.925.925,0,0,0,.925-.925v-1.85a2.783,2.783,0,0,0-2.775-2.775H46.394V35.3h5.05l-3.117,7.02a.9.9,0,0,0-.083.379,4.624,4.624,0,0,0,9.249,0,.9.9,0,0,0-.083-.379Zm-13.79-8.87a.925.925,0,1,1-.925.925A.925.925,0,0,1,43.619,33.446Zm-.925,3.533a2.653,2.653,0,0,0,1.85,0V51.943h-1.85Zm-8.324-.333,2.275,5.124H32.1Zm2.6,6.974a2.751,2.751,0,0,1-5.2,0ZM28.71,41.5,27.24,42.962a.931.931,0,0,0-.222.953l.777,2.321L23.91,51.573l3.958-13Zm-5,4.384L23.3,42.851l.851-1.693.823.583ZM21.422,30.671A8.337,8.337,0,0,1,13.1,22.347V16.779a17.791,17.791,0,0,0,10.46-4,8.757,8.757,0,0,0,6.187,3.052v6.511a8.337,8.337,0,0,1-8.324,8.324ZM24.2,32.123v2.71l-2.775,2.081-2.775-2.081v-2.71A9.878,9.878,0,0,0,24.2,32.123Zm9.249-16.25v2.913a.938.938,0,0,0,.37.74.9.9,0,0,0,.8.148,2.721,2.721,0,0,1,.675-.1,2.783,2.783,0,0,1,2.775,2.775,2.745,2.745,0,0,1-1.868,2.6.957.957,0,0,0-.573.592.916.916,0,0,0,.12.814A2.741,2.741,0,0,1,36.22,27.9a2.783,2.783,0,0,1-2.775,2.775A2.672,2.672,0,0,1,31.9,30.2a.925.925,0,0,0-1.387.462A2.781,2.781,0,0,1,27.9,32.521a2.74,2.74,0,0,1-1.85-.731V31.4A10.187,10.187,0,0,0,31.6,22.347v-7.4a.925.925,0,0,0-.925-.925,7.146,7.146,0,0,1-5.753-2.516,5.564,5.564,0,0,0,.388-.425A14.028,14.028,0,0,0,28.2,5.958a12,12,0,0,1,5.244,9.915Zm-18.5,16.648a2.781,2.781,0,0,1-2.617-1.859.925.925,0,0,0-1.387-.462,2.672,2.672,0,0,1-1.545.472A2.783,2.783,0,0,1,6.624,27.9,2.741,2.741,0,0,1,7.1,26.352a.916.916,0,0,0,.12-.814.957.957,0,0,0-.573-.592,2.745,2.745,0,0,1-1.868-2.6,2.783,2.783,0,0,1,2.775-2.775,2.721,2.721,0,0,1,.675.1.9.9,0,0,0,.8-.148.938.938,0,0,0,.37-.74V15.873A12,12,0,0,1,26.555,5.015,12.223,12.223,0,0,1,23.91,9.871a9.375,9.375,0,0,1-.8.832,15.831,15.831,0,0,1-10.941,4.245.925.925,0,0,0-.925.925v6.474A10.187,10.187,0,0,0,16.8,31.4v.388a2.74,2.74,0,0,1-1.85.731Zm.028,6.049,3.958,13L15.05,46.237l.777-2.321a.931.931,0,0,0-.222-.953L14.134,41.5Zm2.895,3.172.823-.583.851,1.693-.407,3.034Zm-6.65,13.9a4.482,4.482,0,0,0-.731-2.183A6.218,6.218,0,0,1,9.4,50.093a6.112,6.112,0,0,1,1.582-3.968L9.667,44.812a8.068,8.068,0,0,0-2.118,5.281A8.19,8.19,0,0,0,8.955,54.5a2.455,2.455,0,0,1,.416,1.138H3.85V45.358A6.441,6.441,0,0,1,8.391,39.18l4.93-1.535-1.11,3.866a.952.952,0,0,0,.231.916l1.452,1.443L13.145,46.1a.94.94,0,0,0,.129.842l6.335,8.7Zm6.086-15.769L16.335,36.7l1.212-.379,2.312,1.73ZM21.422,53.4l-.99-3.256.879-6.52h.222l.879,6.52Zm.351-11.626h-.7l-.851-1.7,1.2-.86,1.2.86ZM25.3,36.322l1.212.379-.971,3.172-2.553-1.822Zm10,18.4v.925H33.473A2.419,2.419,0,0,1,33.89,54.5,8.19,8.19,0,0,0,35.3,50.093a7.51,7.51,0,0,0-.324-2.118l-1.776.536a5.41,5.41,0,0,1,.25,1.582,6.218,6.218,0,0,1-1.091,3.367,4.482,4.482,0,0,0-.731,2.183H23.235l6.335-8.7A.94.94,0,0,0,29.7,46.1l-.749-2.229.832-.823a4.612,4.612,0,0,0,9.212-.351.9.9,0,0,0-.083-.379L35.795,35.3h5.05V51.943H38.07A2.783,2.783,0,0,0,35.3,54.718Zm13.873-.925a.925.925,0,0,1,.925.925v.925H37.145v-.925a.925.925,0,0,1,.925-.925Zm3.7-17.147,2.275,5.124h-4.55Zm0,8.823a2.764,2.764,0,0,1-2.6-1.85h5.2A2.764,2.764,0,0,1,52.868,45.469Z" transform="translate(0)"/>
      <ellipse id="Elipse_14545" data-name="Elipse 14545" cx="2" cy="1.5" rx="2" ry="1.5" transform="translate(16 18)"/>
      <ellipse id="Elipse_14546" data-name="Elipse 14546" cx="2" cy="1.5" rx="2" ry="1.5" transform="translate(23 18)"/>
      <path id="Trazado_1179701" data-name="Trazado 1179701" d="M20.767,26.118l-1.295,1.317a4.631,4.631,0,0,0,6.533,0L24.71,26.118A2.85,2.85,0,0,1,20.767,26.118Z" transform="translate(-1.313 -1.812)"/>
    </g>
  </g>
</svg>
