<svg xmlns="http://www.w3.org/2000/svg" width="92.158" height="92.158" viewBox="0 0 92.158 92.158">
  <g id="Grupo_1225321" data-name="Grupo 1225321" transform="translate(-1293.852 -2023.852)">
    <rect id="Rectángulo_421971" data-name="Rectángulo 421971" width="73" height="92" transform="translate(1313.01 2024.01)" fill="#f7f5f3"/>
    <g id="derechos-civiles_1_" data-name="derechos-civiles (1)" transform="translate(1293.852 2023.852)">
      <path id="Trazado_1180149" data-name="Trazado 1180149" d="M196,85.582V97.717l2.25,5.974v57.295h11.7l2.7-53.621,6.84-12.8V85.582Z" transform="translate(-160.721 -70.178)" fill="#fdbba8"/>
      <path id="Trazado_1180150" data-name="Trazado 1180150" d="M268.039,85.582v8.985a9.984,9.984,0,0,1-4.444,8.309,5.4,5.4,0,0,0-2.4,4.487l-2.7,1.135,2.7,1.135v51.352h5.4V107.364a15.372,15.372,0,0,0,6.84-12.8V85.582Z" transform="translate(-211.97 -70.178)" fill="#fc9e8d"/>
      <path id="Trazado_1180151" data-name="Trazado 1180151" d="M294.62,37.5a3.42,3.42,0,0,0-3.42,3.42l-2.7,2.7,2.7,2.7a3.42,3.42,0,1,0,6.84,0v-5.4A3.42,3.42,0,0,0,294.62,37.5Z" transform="translate(-236.571 -30.75)" fill="#fc8071"/>
      <path id="Trazado_1180152" data-name="Trazado 1180152" d="M256.62,22.5a3.42,3.42,0,0,0-3.42,3.42l-2.7,4.05,2.7,4.05a3.42,3.42,0,1,0,6.84,0v-8.1A3.42,3.42,0,0,0,256.62,22.5Z" transform="translate(-205.411 -18.45)" fill="#fc9e8d"/>
      <path id="Trazado_1180153" data-name="Trazado 1180153" d="M218.62,7.5a3.42,3.42,0,0,0-3.42,3.42l-2.7,10.8h9.54V10.92A3.42,3.42,0,0,0,218.62,7.5Z" transform="translate(-174.251 -6.15)" fill="#fc8071"/>
      <path id="Trazado_1180154" data-name="Trazado 1180154" d="M192.92,7.5a3.42,3.42,0,0,0-3.42,3.42v10.8h6.84V10.92A3.42,3.42,0,0,0,192.92,7.5Z" transform="translate(-155.391 -6.15)" fill="#fc9e8d"/>
      <path id="Trazado_1180155" data-name="Trazado 1180155" d="M177.34,79.74v-5.4h6.84a3.42,3.42,0,0,0,3.416-3.585,3.483,3.483,0,0,0-3.513-3.255H177.34a6.84,6.84,0,0,0-6.84,6.84v5.4a15.4,15.4,0,0,0,18.54,15.066V91.439A11.7,11.7,0,0,0,177.34,79.74Z" transform="translate(-139.811 -55.35)" fill="#fdd9c4"/>
      <path id="Trazado_1180156" data-name="Trazado 1180156" d="M33,269.082v12.135l2.25,5.974v24.266h11.7l2.7-20.592,6.84-12.8v-8.985Z" transform="translate(-27.06 -220.648)" fill="#f6d76f"/>
      <path id="Trazado_1180157" data-name="Trazado 1180157" d="M105.039,269.082v8.985a9.985,9.985,0,0,1-4.444,8.309,5.4,5.4,0,0,0-2.4,4.487L95.5,292l2.7,1.134v18.323h5.4V290.864a15.373,15.373,0,0,0,6.84-12.8v-8.985Z" transform="translate(-78.31 -220.648)" fill="#f9bb69"/>
      <path id="Trazado_1180158" data-name="Trazado 1180158" d="M131.62,221a3.42,3.42,0,0,0-3.42,3.42l-2.7,2.7,2.7,2.7a3.42,3.42,0,0,0,6.84,0v-5.4A3.42,3.42,0,0,0,131.62,221Z" transform="translate(-102.911 -181.221)" fill="#fc9f63"/>
      <path id="Trazado_1180159" data-name="Trazado 1180159" d="M93.62,206a3.42,3.42,0,0,0-3.42,3.42l-2.7,4.05,2.7,4.05a3.42,3.42,0,0,0,6.84,0v-8.1A3.42,3.42,0,0,0,93.62,206Z" transform="translate(-71.75 -168.921)" fill="#f9bb69"/>
      <path id="Trazado_1180160" data-name="Trazado 1180160" d="M55.62,191a3.42,3.42,0,0,0-3.42,3.42l-2.7,10.8h9.54v-10.8A3.42,3.42,0,0,0,55.62,191Z" transform="translate(-40.59 -156.621)" fill="#fc9f63"/>
      <path id="Trazado_1180161" data-name="Trazado 1180161" d="M29.92,191a3.42,3.42,0,0,0-3.42,3.42v10.8h6.84v-10.8A3.42,3.42,0,0,0,29.92,191Z" transform="translate(-21.73 -156.621)" fill="#f9bb69"/>
      <path id="Trazado_1180162" data-name="Trazado 1180162" d="M14.34,263.24v-5.4h6.84a3.42,3.42,0,0,0,3.416-3.585A3.483,3.483,0,0,0,21.083,251H14.34a6.84,6.84,0,0,0-6.84,6.84v5.4a15.4,15.4,0,0,0,18.54,15.066v-3.366A11.7,11.7,0,0,0,14.34,263.24Z" transform="translate(-6.15 -205.821)" fill="#fae8ac"/>
      <path id="Trazado_1180163" data-name="Trazado 1180163" d="M359,269.082v12.135l2.25,5.974v24.266h11.7l2.7-20.592,6.84-12.8v-8.985Z" transform="translate(-294.382 -220.648)" fill="#ae6e5a"/>
      <path id="Trazado_1180164" data-name="Trazado 1180164" d="M431.039,269.082v8.985a9.985,9.985,0,0,1-4.444,8.309,5.4,5.4,0,0,0-2.4,4.487L421.5,292l2.7,1.134v18.323h5.4V290.864a15.373,15.373,0,0,0,6.84-12.8v-8.985Z" transform="translate(-345.631 -220.648)" fill="#8d5d4d"/>
      <path id="Trazado_1180165" data-name="Trazado 1180165" d="M457.62,221a3.42,3.42,0,0,0-3.42,3.42l-2.7,2.7,2.7,2.7a3.42,3.42,0,0,0,6.84,0v-5.4A3.42,3.42,0,0,0,457.62,221Z" transform="translate(-370.232 -181.221)" fill="#6c4b41"/>
      <path id="Trazado_1180166" data-name="Trazado 1180166" d="M419.62,206a3.42,3.42,0,0,0-3.42,3.42l-2.7,4.05,2.7,4.05a3.42,3.42,0,0,0,6.84,0v-8.1A3.42,3.42,0,0,0,419.62,206Z" transform="translate(-339.072 -168.921)" fill="#8d5d4d"/>
      <path id="Trazado_1180167" data-name="Trazado 1180167" d="M381.62,191a3.42,3.42,0,0,0-3.42,3.42l-2.7,10.8h9.54v-10.8A3.42,3.42,0,0,0,381.62,191Z" transform="translate(-307.912 -156.621)" fill="#6c4b41"/>
      <path id="Trazado_1180168" data-name="Trazado 1180168" d="M355.92,191a3.42,3.42,0,0,0-3.42,3.42v10.8h6.84v-10.8A3.42,3.42,0,0,0,355.92,191Z" transform="translate(-289.052 -156.621)" fill="#8d5d4d"/>
      <path id="Trazado_1180169" data-name="Trazado 1180169" d="M340.34,263.24v-5.4h6.84a3.42,3.42,0,0,0,3.416-3.585A3.483,3.483,0,0,0,347.083,251H340.34a6.84,6.84,0,0,0-6.84,6.84v5.4a15.4,15.4,0,0,0,18.54,15.066v-3.366A11.7,11.7,0,0,0,340.34,263.24Z" transform="translate(-273.472 -205.821)" fill="#d7795c"/>
      <path id="Trazado_1180170" data-name="Trazado 1180170" d="M196.479,10.17A4.767,4.767,0,0,0,189.4,6a4.766,4.766,0,0,0-6.84-2.7A4.765,4.765,0,0,0,174.61,1.45a4.767,4.767,0,0,0-8.19,3.32v7.569A8.183,8.183,0,0,0,163,18.99v5.4a16.719,16.719,0,0,0,6.84,13.5v52.92a1.35,1.35,0,0,0,1.35,1.35h17.1a1.35,1.35,0,0,0,1.35-1.35V37.888a16.718,16.718,0,0,0,6.84-13.5Zm-4.77-2.07a2.072,2.072,0,0,1,2.07,2.07v5.4a2.07,2.07,0,1,1-4.14,0v-5.4A2.072,2.072,0,0,1,191.709,8.1Zm-6.84-2.7a2.072,2.072,0,0,1,2.07,2.07v8.1a2.07,2.07,0,1,1-4.14,0V7.47A2.072,2.072,0,0,1,184.869,5.4Zm-6.84-2.7a2.072,2.072,0,0,1,2.07,2.07V11.3a4.945,4.945,0,0,0-2.167-.5H175.96V4.77A2.072,2.072,0,0,1,178.03,2.7Zm-8.91,2.07a2.07,2.07,0,0,1,4.14,0V10.8h-2.07a8.179,8.179,0,0,0-2.07.265Zm18.419,31.294a1.35,1.35,0,0,0-.6,1.122V89.458h-14.4V37.186a1.35,1.35,0,0,0-.6-1.122A14.028,14.028,0,0,1,165.7,24.389v-5.4a5.5,5.5,0,0,1,5.49-5.49h6.743a2.143,2.143,0,0,1,2.164,1.968,2.07,2.07,0,0,1-2.067,2.172h-6.84a1.35,1.35,0,0,0-1.35,1.35v5.4a1.35,1.35,0,0,0,1.35,1.35,10.358,10.358,0,0,1,9.077,5.374,1.35,1.35,0,0,0,2.366-1.3,13.062,13.062,0,0,0-10.093-6.7v-2.77h5.49a4.792,4.792,0,0,0,3.422-1.448,4.759,4.759,0,0,0,6.838,0,4.761,4.761,0,0,0,5.49.977v4.523A14.027,14.027,0,0,1,187.538,36.064Z" transform="translate(-133.661)"/>
      <path id="Trazado_1180171" data-name="Trazado 1180171" d="M28.709,188.9a4.741,4.741,0,0,0-2.3.6,4.766,4.766,0,0,0-6.84-2.7,4.765,4.765,0,0,0-7.955-1.845,4.767,4.767,0,0,0-8.19,3.32v7.569A8.182,8.182,0,0,0,0,202.49v5.4a16.719,16.719,0,0,0,6.84,13.5v1.891a1.35,1.35,0,0,0,2.7,0v-2.593a1.35,1.35,0,0,0-.6-1.122A14.029,14.029,0,0,1,2.7,207.889v-5.4A5.5,5.5,0,0,1,8.19,197h6.743a2.143,2.143,0,0,1,2.164,1.968,2.07,2.07,0,0,1-2.067,2.172H8.19a1.35,1.35,0,0,0-1.35,1.35v5.4a1.35,1.35,0,0,0,1.35,1.35,10.358,10.358,0,0,1,9.077,5.374,1.35,1.35,0,0,0,2.366-1.3,13.062,13.062,0,0,0-10.093-6.7v-2.77h5.49a4.792,4.792,0,0,0,3.422-1.448,4.759,4.759,0,0,0,6.838,0,4.761,4.761,0,0,0,5.49.977v4.523a14.027,14.027,0,0,1-6.241,11.675,1.35,1.35,0,0,0-.6,1.122v19.242H9.54v-11.25a1.35,1.35,0,0,0-2.7,0v12.6a1.35,1.35,0,0,0,1.35,1.35h17.1a1.35,1.35,0,0,0,1.35-1.35v-19.89a16.718,16.718,0,0,0,6.84-13.5V193.67A4.775,4.775,0,0,0,28.709,188.9ZM6.12,194.565v-6.3a2.07,2.07,0,1,1,4.14,0v6.03H8.19A8.18,8.18,0,0,0,6.12,194.565Zm8.813-.265H12.96v-6.03a2.07,2.07,0,1,1,4.14,0V194.8A4.945,4.945,0,0,0,14.933,194.3Zm6.936,6.84a2.072,2.072,0,0,1-2.07-2.07v-8.1a2.07,2.07,0,0,1,4.14,0v8.1A2.072,2.072,0,0,1,21.869,201.14Zm6.84,0a2.072,2.072,0,0,1-2.07-2.07v-5.4a2.07,2.07,0,0,1,4.14,0v5.4A2.072,2.072,0,0,1,28.709,201.14Z" transform="translate(0 -150.471)"/>
      <path id="Trazado_1180172" data-name="Trazado 1180172" d="M354.709,188.9a4.741,4.741,0,0,0-2.3.6,4.766,4.766,0,0,0-6.84-2.7,4.765,4.765,0,0,0-7.955-1.845,4.767,4.767,0,0,0-8.19,3.32v7.569A8.183,8.183,0,0,0,326,202.49v5.4a16.719,16.719,0,0,0,6.84,13.5v19.891a1.35,1.35,0,0,0,1.35,1.35h17.1a1.35,1.35,0,0,0,1.35-1.35v-19.89a16.718,16.718,0,0,0,6.84-13.5V193.67A4.775,4.775,0,0,0,354.709,188.9Zm-6.84,0a2.072,2.072,0,0,1,2.07,2.07v8.1a2.07,2.07,0,0,1-4.14,0v-8.1A2.072,2.072,0,0,1,347.869,188.9Zm-6.84-2.7a2.072,2.072,0,0,1,2.07,2.07V194.8a4.945,4.945,0,0,0-2.167-.5H338.96v-6.03A2.072,2.072,0,0,1,341.03,186.2Zm-8.91,2.07a2.07,2.07,0,1,1,4.14,0v6.03h-2.07a8.18,8.18,0,0,0-2.07.265Zm18.419,31.294a1.35,1.35,0,0,0-.6,1.122v19.242h-14.4V220.686a1.35,1.35,0,0,0-.6-1.122,14.028,14.028,0,0,1-6.241-11.675v-5.4a5.5,5.5,0,0,1,5.49-5.49h6.743a2.143,2.143,0,0,1,2.164,1.968,2.07,2.07,0,0,1-2.067,2.172h-6.84a1.35,1.35,0,0,0-1.35,1.35v5.4a1.35,1.35,0,0,0,1.35,1.35,10.358,10.358,0,0,1,9.077,5.374,1.35,1.35,0,0,0,2.366-1.3,13.062,13.062,0,0,0-10.093-6.7v-2.77h5.49a4.792,4.792,0,0,0,3.422-1.448,4.759,4.759,0,0,0,6.838,0,4.761,4.761,0,0,0,5.49.977v4.523A14.027,14.027,0,0,1,350.538,219.564Zm4.171-18.425a2.072,2.072,0,0,1-2.07-2.07v-5.4a2.07,2.07,0,1,1,4.14,0v5.4A2.072,2.072,0,0,1,354.709,201.14Z" transform="translate(-267.321 -150.471)"/>
    </g>
  </g>
</svg>
