<svg xmlns="http://www.w3.org/2000/svg" xmlns:xlink="http://www.w3.org/1999/xlink" width="113" height="113" viewBox="0 0 113 113">
  <defs>
    <filter id="Trazado_982547" x="0" y="0" width="113" height="113" filterUnits="userSpaceOnUse">
      <feOffset dy="3" input="SourceAlpha"/>
      <feGaussianBlur stdDeviation="3" result="blur"/>
      <feFlood flood-opacity="0.161"/>
      <feComposite operator="in" in2="blur"/>
      <feComposite in="SourceGraphic"/>
    </filter>
  </defs>
  <g id="Grupo_1225774" data-name="Grupo 1225774" transform="translate(-743 -5261.356)">
    <g id="Grupo_1223773" data-name="Grupo 1223773" transform="translate(0 -642.718)">
      <g id="Grupo_1206282" data-name="Grupo 1206282" transform="translate(0 -3448.335)">
        <g id="Grupo_1203803" data-name="Grupo 1203803" transform="translate(0 6552.41)">
          <g id="Grupo_1202425" data-name="Grupo 1202425" transform="translate(-0.25 1464)">
            <g id="Grupo_1178324" data-name="Grupo 1178324" transform="translate(0 424)">
              <g id="Grupo_1177680" data-name="Grupo 1177680" transform="translate(752.25 918)">
                <g id="Grupo_1172010" data-name="Grupo 1172010">
                  <g id="Grupo_1171046" data-name="Grupo 1171046">
                    <g id="Grupo_1148525" data-name="Grupo 1148525">
                      <g transform="matrix(1, 0, 0, 1, -9, -6)" filter="url(#Trazado_982547)">
                        <g id="Trazado_982547-2" data-name="Trazado 982547" transform="translate(9 6)" fill="#f9e3d4">
                          <path d="M 47.5 93.5 C 41.28937149047852 93.5 35.26533508300781 92.28397369384766 29.59518623352051 89.88570404052734 C 24.11771965026855 87.56893157958984 19.19813346862793 84.25196075439453 14.97309303283691 80.02691650390625 C 10.74804019927979 75.80186462402344 7.431066513061523 70.88229370117188 5.114293098449707 65.40481567382812 C 2.716026782989502 59.73468017578125 1.5 53.71062850952148 1.5 47.5 C 1.5 41.28937149047852 2.716026782989502 35.26533508300781 5.114293098449707 29.59518623352051 C 7.431066513061523 24.11771965026855 10.74804019927979 19.19813346862793 14.97309303283691 14.97309303283691 C 19.19813346862793 10.74804019927979 24.11771965026855 7.431066513061523 29.59518623352051 5.114293098449707 C 35.26533508300781 2.716026782989502 41.28937149047852 1.5 47.5 1.5 C 53.71062850952148 1.5 59.73468017578125 2.716026782989502 65.40481567382812 5.114293098449707 C 70.88229370117188 7.431066513061523 75.80186462402344 10.74804019927979 80.02691650390625 14.97309303283691 C 84.25196075439453 19.19813346862793 87.56893157958984 24.11771965026855 89.88570404052734 29.59518623352051 C 92.28397369384766 35.26533508300781 93.5 41.28937149047852 93.5 47.5 C 93.5 53.71062850952148 92.28397369384766 59.73468017578125 89.88570404052734 65.40481567382812 C 87.56893157958984 70.88229370117188 84.25196075439453 75.80186462402344 80.02691650390625 80.02691650390625 C 75.80186462402344 84.25196075439453 70.88229370117188 87.56893157958984 65.40481567382812 89.88570404052734 C 59.73468017578125 92.28397369384766 53.71062850952148 93.5 47.5 93.5 Z" stroke="none"/>
                          <path d="M 47.5 3 C 41.49121475219727 3 35.66376876831055 4.176155090332031 30.17950439453125 6.495796203613281 C 24.88084411621094 8.736953735351562 20.12152099609375 11.94598388671875 16.03375244140625 16.03375244140625 C 11.94598388671875 20.12152099609375 8.736953735351562 24.88084411621094 6.495796203613281 30.17950439453125 C 4.176155090332031 35.66376876831055 3 41.49121475219727 3 47.5 C 3 53.50878524780273 4.176155090332031 59.33623123168945 6.495796203613281 64.82049560546875 C 8.736953735351562 70.11915588378906 11.94598388671875 74.87847900390625 16.03375244140625 78.96624755859375 C 20.12152099609375 83.05401611328125 24.88084411621094 86.26304626464844 30.17950439453125 88.50419616699219 C 35.66376876831055 90.82384490966797 41.49121475219727 92 47.5 92 C 53.50878524780273 92 59.33623123168945 90.82384490966797 64.82049560546875 88.50419616699219 C 70.11915588378906 86.26304626464844 74.87847900390625 83.05401611328125 78.96624755859375 78.96624755859375 C 83.05401611328125 74.87847900390625 86.26304626464844 70.11915588378906 88.50419616699219 64.82049560546875 C 90.82384490966797 59.33623123168945 92 53.50878524780273 92 47.5 C 92 41.49121475219727 90.82384490966797 35.66376876831055 88.50419616699219 30.17950439453125 C 86.26304626464844 24.88084411621094 83.05401611328125 20.12152099609375 78.96624755859375 16.03375244140625 C 74.87847900390625 11.94598388671875 70.11915588378906 8.736953735351562 64.82049560546875 6.495796203613281 C 59.33623123168945 4.176155090332031 53.50878524780273 3 47.5 3 M 47.5 0 C 73.7335205078125 0 95 21.2664794921875 95 47.5 C 95 73.7335205078125 73.7335205078125 95 47.5 95 C 21.2664794921875 95 0 73.7335205078125 0 47.5 C 0 21.2664794921875 21.2664794921875 0 47.5 0 Z" stroke="none" fill="#eca675"/>
                        </g>
                      </g>
                    </g>
                  </g>
                </g>
              </g>
            </g>
          </g>
        </g>
      </g>
    </g>
    <g id="personas" transform="translate(768.62 5283.477)">
      <path id="Trazado_1182787" data-name="Trazado 1182787" d="M70.308,256A30.154,30.154,0,0,1,10,256Z" transform="translate(-8.774 -224.62)" fill="#ccf5fc"/>
      <path id="Trazado_1182788" data-name="Trazado 1182788" d="M16.7,274.944l3.07-5.471a2.38,2.38,0,0,0,.3-1.164v-3.152a2.38,2.38,0,0,1,.7-1.686l1.652-1.647a2.38,2.38,0,0,0,.228-3.108L20.623,256H10a30.026,30.026,0,0,0,6.7,18.944Z" transform="translate(-8.774 -224.62)" fill="#a0e5a5"/>
      <g id="Grupo_1225772" data-name="Grupo 1225772" transform="translate(6.374 1.226)">
        <path id="XMLID_1072_" d="M198.847,120.7h-5.021A5.825,5.825,0,0,0,188,126.526v5.667h16.67v-5.667A5.825,5.825,0,0,0,198.847,120.7Z" transform="translate(-171.33 -107.132)" fill="#ff7d97"/>
        <path id="XMLID_1071_" d="M229.009,48.574a3.771,3.771,0,0,0-3.771,3.771v1.3a3.771,3.771,0,1,0,7.541,0v-1.3A3.771,3.771,0,0,0,229.009,48.574Z" transform="translate(-204.003 -43.846)" fill="#cc9081"/>
        <path id="XMLID_1069_" d="M161.009,10a3.771,3.771,0,0,0-3.771,3.771v1.3a3.771,3.771,0,1,0,7.541,0v-1.3A3.771,3.771,0,0,0,161.009,10Z" transform="translate(-144.338 -10)" fill="#f2b394"/>
        <path id="XMLID_1067_" d="M297.009,10a3.771,3.771,0,0,1,3.771,3.771v1.3a3.771,3.771,0,1,1-7.541,0v-1.3A3.771,3.771,0,0,1,297.009,10Z" transform="translate(-263.668 -10)" fill="#ffd0c7"/>
        <path id="XMLID_1064_" d="M62.846,120.7H57.825A5.825,5.825,0,0,0,52,126.526v5.667H68.67v-5.667A5.825,5.825,0,0,0,62.846,120.7Z" transform="translate(-52 -107.132)" fill="#66e0f7"/>
        <path id="XMLID_1063_" d="M93.009,48.574a3.771,3.771,0,0,0-3.771,3.771v1.3a3.771,3.771,0,0,0,7.541,0v-1.3A3.771,3.771,0,0,0,93.009,48.574Z" transform="translate(-84.673 -43.846)" fill="#ffd0c7"/>
        <path id="XMLID_1060_" d="M329.825,120.7h5.021a5.825,5.825,0,0,1,5.825,5.825v5.667H324v-5.667A5.825,5.825,0,0,1,329.825,120.7Z" transform="translate(-290.659 -107.132)" fill="#ffda8f"/>
        <path id="XMLID_1059_" d="M365.009,48.574a3.771,3.771,0,0,1,3.771,3.771v1.3a3.771,3.771,0,1,1-7.541,0v-1.3A3.771,3.771,0,0,1,365.009,48.574Z" transform="translate(-323.333 -43.846)" fill="#f2b394"/>
      </g>
      <path id="Trazado_1182789" data-name="Trazado 1182789" d="M301.144,256.7l2.511,3.832a1.558,1.558,0,0,0,.577.525l2.2,1.161a1.558,1.558,0,0,1,.767,1.824l-1.277,4.281a1.558,1.558,0,0,1-1.493,1.113h-.3a1.558,1.558,0,0,0-1.364.8l-2.93,5.3a1.558,1.558,0,0,0-.194.754v.113a1.506,1.506,0,0,1-2.479,1.149l-.634-.536a1.559,1.559,0,0,1-.541-1l-1.042-8.709a1.558,1.558,0,0,0-.581-1.037l-2.165-1.712a1.559,1.559,0,0,1-.592-1.223v-5.783A1.558,1.558,0,0,1,293.174,256h6.666A1.558,1.558,0,0,1,301.144,256.7Z" transform="translate(-255.871 -224.62)" fill="#a0e5a5"/>
      <path id="Trazado_1182790" data-name="Trazado 1182790" d="M157.742,343.569c-.4,0-.882-.006-1.234-.011a2.04,2.04,0,0,0-.916.2l-2.89,1.4A2.041,2.041,0,0,0,151.55,347v1.161a2.041,2.041,0,0,0,2.041,2.041h2.755a2.041,2.041,0,0,1,1.457.612,2.041,2.041,0,0,0,2.889.025l1.37-1.348a2.041,2.041,0,0,0-.122-3.02l-2.894-2.422A2.039,2.039,0,0,0,157.742,343.569Z" transform="translate(-132.974 -301.445)" fill="#a0e5a5"/>
      <g id="Grupo_1225773" data-name="Grupo 1225773" transform="translate(0 0)">
        <path id="Trazado_1182791" data-name="Trazado 1182791" d="M61.533,246H29.653a1.226,1.226,0,0,0,0,2.452H34.54a2.786,2.786,0,0,0-.021.333v5.783a2.769,2.769,0,0,0,1.058,2.184l2.165,1.711a.331.331,0,0,1,.124.221l1.042,8.709a2.775,2.775,0,0,0,.966,1.795l.634.537a2.712,2.712,0,0,0,1.757.651,2.746,2.746,0,0,0,1.157-.258A2.705,2.705,0,0,0,45,267.64v-.113a.334.334,0,0,1,.041-.161l2.93-5.3a.333.333,0,0,1,.291-.172h.3A2.8,2.8,0,0,0,51.23,259.9l1.277-4.281a2.79,2.79,0,0,0-1.371-3.259l-2.2-1.161a.332.332,0,0,1-.123-.112l-1.729-2.638h13.2a28.929,28.929,0,0,1-49.358,19.229q-.8-.8-1.523-1.645L12.06,261.3a3.614,3.614,0,0,0,.461-1.764v-3.152a1.161,1.161,0,0,1,.339-.817l1.652-1.647a3.624,3.624,0,0,0,.345-4.709l-.565-.758h4.329a1.226,1.226,0,0,0,0-2.452H1.226A1.226,1.226,0,0,0,0,247.226a31.38,31.38,0,0,0,53.568,22.189,31.174,31.174,0,0,0,9.191-22.189A1.226,1.226,0,0,0,61.533,246Zm-17.286,2.6,2.511,3.832a2.791,2.791,0,0,0,1.031.937l2.2,1.161a.333.333,0,0,1,.164.389L48.88,259.2a.335.335,0,0,1-.319.238h-.3a2.785,2.785,0,0,0-2.437,1.438l-2.93,5.3a2.791,2.791,0,0,0-.347,1.346v.113a.28.28,0,0,1-.461.214l-.634-.537a.332.332,0,0,1-.115-.215L40.3,258.393a2.767,2.767,0,0,0-1.038-1.854L37.1,254.828a.331.331,0,0,1-.126-.261v-5.783a.333.333,0,0,1,.333-.333h6.666A.332.332,0,0,1,44.248,248.6Zm-33.014-.15,1.658,2.223a1.16,1.16,0,0,1-.11,1.507l-1.652,1.647a3.63,3.63,0,0,0-1.06,2.554v3.152a1.158,1.158,0,0,1-.148.565l-2.157,3.844a28.674,28.674,0,0,1-5.288-15.492Z" transform="translate(0 -215.846)"/>
        <path id="Trazado_1182792" data-name="Trazado 1182792" d="M43.226,27.513H93.237a1.226,1.226,0,0,0,1.226-1.226V20.62a7.062,7.062,0,0,0-5.389-6.851,4.966,4.966,0,0,0,.824-2.744v-1.3a4.993,4.993,0,0,0-8.335-3.713V5A5,5,0,0,0,71.57,5V6.011a4.985,4.985,0,0,0-6.677,0V5A5,5,0,1,0,54.9,5V6.011a4.993,4.993,0,0,0-8.335,3.713v1.3a4.967,4.967,0,0,0,.824,2.744A7.062,7.062,0,0,0,42,20.62v5.667a1.226,1.226,0,0,0,1.226,1.226ZM55.733,13.769a4.966,4.966,0,0,0,.824-2.744V10.009a4.985,4.985,0,0,0,6.677,0v1.015a4.967,4.967,0,0,0,.824,2.744A7.071,7.071,0,0,0,59.9,16.652,7.07,7.07,0,0,0,55.733,13.769Zm5.389,6.851a4.6,4.6,0,0,1,4.6-4.6h5.021a4.6,4.6,0,0,1,4.6,4.6v4.441H61.122Zm12.106-9.6V10.009a4.986,4.986,0,0,0,6.678,0v1.015a4.967,4.967,0,0,0,.824,2.744,7.071,7.071,0,0,0-4.163,2.883A7.071,7.071,0,0,0,72.4,13.769a4.965,4.965,0,0,0,.824-2.744Zm18.783,9.6v4.441H77.792V20.62a4.6,4.6,0,0,1,4.6-4.6h5.021A4.6,4.6,0,0,1,92.011,20.62Zm-9.654-10.9a2.545,2.545,0,1,1,5.09,0v1.3a2.545,2.545,0,1,1-5.09,0ZM74.022,5a2.545,2.545,0,1,1,5.09,0V6.3a2.545,2.545,0,1,1-5.09,0ZM65.686,9.725a2.545,2.545,0,1,1,5.09,0v1.3a2.545,2.545,0,1,1-5.09,0ZM57.351,5a2.545,2.545,0,1,1,5.09,0V6.3a2.545,2.545,0,1,1-5.09,0ZM49.016,9.725a2.545,2.545,0,0,1,5.09,0v1.3a2.545,2.545,0,1,1-5.09,0Zm-4.565,10.9a4.6,4.6,0,0,1,4.6-4.6h5.021a4.6,4.6,0,0,1,4.6,4.6v4.441H44.452Z" transform="translate(-36.852 0)"/>
        <path id="Trazado_1182793" data-name="Trazado 1182793" d="M143.4,335.281a3.285,3.285,0,0,0-1.845,2.941v1.161a3.271,3.271,0,0,0,3.267,3.267h2.755a.82.82,0,0,1,.582.244,3.245,3.245,0,0,0,2.3.979h.029a3.245,3.245,0,0,0,2.291-.939l1.37-1.348a3.267,3.267,0,0,0-.195-4.833l-2.894-2.422a3.27,3.27,0,0,0-2.089-.762c-.393,0-.872-.006-1.22-.011a3.293,3.293,0,0,0-1.466.326Zm4.312.728h.011c.356,0,.846.01,1.248.011h0a.813.813,0,0,1,.52.19l2.894,2.422a.815.815,0,0,1,.049,1.206l-1.37,1.348a.829.829,0,0,1-.579.234.81.81,0,0,1-.575-.244,3.286,3.286,0,0,0-2.332-.979h-2.755a.816.816,0,0,1-.815-.815v-1.161a.82.82,0,0,1,.46-.734l2.89-1.4A.822.822,0,0,1,147.707,336.01Z" transform="translate(-124.2 -292.672)"/>
        <circle id="Elipse_14574" data-name="Elipse 14574" cx="1.226" cy="1.226" r="1.226" transform="translate(22.911 30.154)"/>
      </g>
    </g>
  </g>
</svg>
