<svg xmlns="http://www.w3.org/2000/svg" xmlns:xlink="http://www.w3.org/1999/xlink" width="103" height="103" viewBox="0 0 103 103">
  <defs>
    <filter id="Trazado_978624" x="0" y="0" width="103" height="103" filterUnits="userSpaceOnUse">
      <feOffset dy="3" input="SourceAlpha"/>
      <feGaussianBlur stdDeviation="3" result="blur"/>
      <feFlood flood-opacity="0.161"/>
      <feComposite operator="in" in2="blur"/>
      <feComposite in="SourceGraphic"/>
    </filter>
  </defs>
  <g id="Grupo_1225320" data-name="Grupo 1225320" transform="translate(-616 -827)">
    <g id="Grupo_1224934" data-name="Grupo 1224934" transform="translate(445 -6)">
      <g id="Grupo_1222589" data-name="Grupo 1222589">
        <g id="Grupo_1203109" data-name="Grupo 1203109" transform="translate(180 839)">
          <g id="Grupo_1176881" data-name="Grupo 1176881">
            <g id="Grupo_1175148" data-name="Grupo 1175148">
              <g id="Grupo_1173798" data-name="Grupo 1173798">
                <g id="Grupo_1171925" data-name="Grupo 1171925">
                  <g id="Grupo_1164524" data-name="Grupo 1164524">
                    <g id="Grupo_1144123" data-name="Grupo 1144123">
                      <g transform="matrix(1, 0, 0, 1, -9, -6)" filter="url(#Trazado_978624)">
                        <g id="Trazado_978624-2" data-name="Trazado 978624" transform="translate(9 6)" fill="#fcf5f0">
                          <path d="M 42.5 83.5 C 36.96437835693359 83.5 31.59512901306152 82.41617584228516 26.54141235351562 80.27863311767578 C 21.65934181213379 78.21369171142578 17.27447128295898 75.25723266601562 13.50862312316895 71.49137878417969 C 9.742764472961426 67.72553253173828 6.786305904388428 63.34066009521484 4.721364498138428 58.45858764648438 C 2.583823442459106 53.40486907958984 1.5 48.03562164306641 1.5 42.5 C 1.5 36.96437835693359 2.583823442459106 31.59512901306152 4.721364498138428 26.54141235351562 C 6.786305904388428 21.65934181213379 9.742764472961426 17.27447128295898 13.50862312316895 13.50862312316895 C 17.27447128295898 9.742764472961426 21.65934181213379 6.786305904388428 26.54141235351562 4.721364498138428 C 31.59512901306152 2.583823442459106 36.96437835693359 1.5 42.5 1.5 C 48.03562164306641 1.5 53.40486907958984 2.583823442459106 58.45858764648438 4.721364498138428 C 63.34066009521484 6.786305904388428 67.72553253173828 9.742764472961426 71.49137878417969 13.50862312316895 C 75.25723266601562 17.27447128295898 78.21369171142578 21.65934181213379 80.27863311767578 26.54141235351562 C 82.41617584228516 31.59512901306152 83.5 36.96437835693359 83.5 42.5 C 83.5 48.03562164306641 82.41617584228516 53.40486907958984 80.27863311767578 58.45858764648438 C 78.21369171142578 63.34066009521484 75.25723266601562 67.72553253173828 71.49137878417969 71.49137878417969 C 67.72553253173828 75.25723266601562 63.34066009521484 78.21369171142578 58.45858764648438 80.27863311767578 C 53.40486907958984 82.41617584228516 48.03562164306641 83.5 42.5 83.5 Z" stroke="none"/>
                          <path d="M 42.5 3 C 37.16621398925781 3 31.99356079101562 4.043960571289062 27.125732421875 6.102882385253906 C 22.42246627807617 8.092185974121094 18.19785308837891 10.94070434570312 14.56928253173828 14.56928253173828 C 10.94070434570312 18.19785308837891 8.092185974121094 22.42246627807617 6.102882385253906 27.125732421875 C 4.043960571289062 31.99356079101562 3 37.16621398925781 3 42.5 C 3 47.83378601074219 4.043960571289062 53.00643920898438 6.102882385253906 57.87425231933594 C 8.092185974121094 62.57753372192383 10.94070434570312 66.80213165283203 14.56928253173828 70.43071746826172 C 18.19786834716797 74.05929565429688 22.42246627807617 76.90781402587891 27.125732421875 78.89711761474609 C 31.99356079101562 80.95603942871094 37.16621398925781 82 42.5 82 C 47.83378601074219 82 53.00642395019531 80.95603942871094 57.87425231933594 78.89711761474609 C 62.57753372192383 76.90781402587891 66.80213165283203 74.05929565429688 70.43071746826172 70.43071746826172 C 74.05929565429688 66.80213165283203 76.90781402587891 62.57753372192383 78.89711761474609 57.87425231933594 C 80.95603942871094 53.00642395019531 82 47.83378601074219 82 42.5 C 82 37.16621398925781 80.95603942871094 31.99356079101562 78.89711761474609 27.125732421875 C 76.90781402587891 22.42246627807617 74.05929565429688 18.19786834716797 70.43071746826172 14.56928253173828 C 66.80213165283203 10.94070434570312 62.57753372192383 8.092185974121094 57.87425231933594 6.102882385253906 C 53.00643920898438 4.043960571289062 47.83378601074219 3 42.5 3 M 42.5 0 C 65.97209167480469 0 85 19.02789306640625 85 42.5 C 85 65.97209167480469 65.97209167480469 85 42.5 85 C 19.02789306640625 85 0 65.97209167480469 0 42.5 C 0 19.02789306640625 19.02789306640625 0 42.5 0 Z" stroke="none" fill="#eca675"/>
                        </g>
                      </g>
                    </g>
                  </g>
                </g>
              </g>
            </g>
          </g>
        </g>
      </g>
    </g>
    <g id="maestro_4_" data-name="maestro (4)" transform="translate(638.212 846.851)">
      <g id="Grupo_1225318" data-name="Grupo 1225318" transform="translate(1.558 0.839)">
        <path id="Trazado_1180130" data-name="Trazado 1180130" d="M167.928,120.81h30.327a3.844,3.844,0,0,0,3.844-3.844V82.578a3.844,3.844,0,0,0-3.844-3.844H167.928a3.844,3.844,0,0,0-3.844,3.844v34.387A3.844,3.844,0,0,0,167.928,120.81Z" transform="translate(-146.641 -70.762)" fill="#e49280"/>
        <path id="Trazado_1180131" data-name="Trazado 1180131" d="M0,0H34.022V34.56H0Z" transform="translate(16.982 46.02) rotate(-90)" fill="#97da7b"/>
        <g id="Grupo_1225317" data-name="Grupo 1225317">
          <path id="Trazado_1180132" data-name="Trazado 1180132" d="M79.03,366.133h-2.58A9.451,9.451,0,0,0,67,375.584v5.289a.744.744,0,0,0,.744.744H87.737a.744.744,0,0,0,.744-.744v-5.289A9.451,9.451,0,0,0,79.03,366.133Z" transform="translate(-60.42 -325.998)" fill="#2ed1e2"/>
          <path id="Trazado_1180133" data-name="Trazado 1180133" d="M80.679,366.278a9.455,9.455,0,0,0-7.8,9.308v6.033H67.742a.744.744,0,0,1-.744-.744v-5.289a9.452,9.452,0,0,1,9.452-9.452h2.58A9.517,9.517,0,0,1,80.679,366.278Z" transform="translate(-60.42 -325.999)" fill="#02c7dd"/>
          <path id="Trazado_1180134" data-name="Trazado 1180134" d="M131.142,372.663a4.3,4.3,0,0,0,7.127,0l-3.563-6.53Z" transform="translate(-117.386 -325.998)" fill="#cbe5e8"/>
          <path id="Trazado_1180135" data-name="Trazado 1180135" d="M63.677,29.852V21.818a14.318,14.318,0,0,0-28.636,0v8.034Z" transform="translate(-32.039 -7.5)" fill="#596c76"/>
          <path id="Trazado_1180136" data-name="Trazado 1180136" d="M53.662,8.157A14.331,14.331,0,0,0,43.646,21.818v8.034h-8.6V21.818A14.33,14.33,0,0,1,53.662,8.157Z" transform="translate(-32.039 -7.5)" fill="#465a61"/>
          <path id="Trazado_1180137" data-name="Trazado 1180137" d="M36.951,176.526a4.045,4.045,0,0,1,5.748,4.714c-.621,2.145-3.235,4.671-5.382,4.05a2.4,2.4,0,0,1-.463-.189H14.223a2.393,2.393,0,0,1-.463.189c-2.146.621-4.761-1.9-5.38-4.05a4.044,4.044,0,0,1,5.746-4.714Z" transform="translate(-8.219 -157.206)" fill="#ffcebf"/>
          <path id="Trazado_1180138" data-name="Trazado 1180138" d="M120.417,366.133l1.486.331a1.864,1.864,0,0,1,1.422,2.188l-.693,3.433a.919.919,0,0,1-1.416.579l-3.566-2.414-3.566,2.414a.919.919,0,0,1-1.416-.579l-.693-3.433a1.864,1.864,0,0,1,1.422-2.188l1.486-.331Z" transform="translate(-100.33 -325.998)" fill="#deecf1"/>
          <path id="Trazado_1180139" data-name="Trazado 1180139" d="M143.79,312.72V318.7l-2.767,4.117-.707-1.051-2.06-3.066V312.72Z" transform="translate(-123.704 -278.563)" fill="#ffdfcf"/>
          <path id="Trazado_1180140" data-name="Trazado 1180140" d="M83.83,140.044v9.623a11.412,11.412,0,0,1-22.824,0v-9.623q0-.5.044-.991a4.831,4.831,0,0,0,7.237-1.195,4.832,4.832,0,0,0,8.263,0,4.831,4.831,0,0,0,7.237,1.195q.044.49.044.991Z" transform="translate(-55.099 -123.27)" fill="#ffdfcf"/>
          <g id="Grupo_1225316" data-name="Grupo 1225316" transform="translate(5.908 15.783)">
            <path id="Trazado_1180141" data-name="Trazado 1180141" d="M75.233,170.211a11.423,11.423,0,0,1-14.226-11.063v-9.623q0-.5.044-.991a4.829,4.829,0,0,0,5.6.439c-.009.183-.014.367-.014.553v9.623A11.416,11.416,0,0,0,75.233,170.211Z" transform="translate(-61.007 -148.534)" fill="#ffcebf"/>
            <path id="Trazado_1180142" data-name="Trazado 1180142" d="M140.316,327.3v6.586l-2.06-3.066v-4.45Z" transform="translate(-129.611 -306.472)" fill="#ffcebf"/>
          </g>
        </g>
        <path id="Trazado_1180143" data-name="Trazado 1180143" d="M245.658,444.43h-1.032a2.845,2.845,0,0,0-2.845,2.845v1.032a2.845,2.845,0,0,0,2.845,2.845h1.032a2.845,2.845,0,0,0,2.845-2.845v-1.032A2.845,2.845,0,0,0,245.658,444.43Z" transform="translate(-215.643 -395.533)" fill="#ffdfcf"/>
        <path id="Trazado_1180144" data-name="Trazado 1180144" d="M246.376,451.058a2.849,2.849,0,0,1-.716.091h-1.032a2.846,2.846,0,0,1-2.846-2.845v-1.033a2.846,2.846,0,0,1,2.846-2.845h1.032a2.849,2.849,0,0,1,.716.091,2.847,2.847,0,0,0-2.129,2.754V448.3A2.847,2.847,0,0,0,246.376,451.058Z" transform="translate(-215.644 -395.53)" fill="#ffcebf"/>
      </g>
      <g id="Grupo_1225319" data-name="Grupo 1225319" transform="translate(0.719)">
        <path id="Trazado_1180145" data-name="Trazado 1180145" d="M53.173,7.971H32.22a15.155,15.155,0,0,0-22.5-4.894.839.839,0,1,0,1.015,1.337,13.354,13.354,0,0,1,8.141-2.736A13.494,13.494,0,0,1,32.356,15.157v3.712a4.846,4.846,0,0,0-1.227.105v-1.36c0-.361-.016-.72-.047-1.067a.839.839,0,0,0-1.376-.567,3.991,3.991,0,0,1-5.98-.988.839.839,0,0,0-.717-.4h0a.839.839,0,0,0-.717.4,3.992,3.992,0,0,1-6.828,0,.839.839,0,0,0-.717-.4h0a.839.839,0,0,0-.717.4,3.991,3.991,0,0,1-5.98.988.839.839,0,0,0-1.376.567c-.031.346-.047.7-.047,1.067v1.36A4.848,4.848,0,0,0,5.4,18.869V15.157A13.355,13.355,0,0,1,8.135,7.016.839.839,0,0,0,6.8,6a15.02,15.02,0,0,0-3.077,9.156v4.087A4.891,4.891,0,0,0,.912,25.106,7.432,7.432,0,0,0,3.3,28.583a4.978,4.978,0,0,0,3.1,1.275,3.4,3.4,0,0,0,.5-.037,12.3,12.3,0,0,0,8.37,9.125V40.3l-.829.184a2.67,2.67,0,0,0-1.187.605A10.31,10.31,0,0,0,7.3,50.426v5.289A1.585,1.585,0,0,0,8.881,57.3h11.6a.839.839,0,1,0,0-1.679H8.976V50.426a8.631,8.631,0,0,1,3.39-6.848c0,.027.009.054.014.081l.693,3.433a1.749,1.749,0,0,0,1.944,1.4,5.142,5.142,0,0,0,7.721,0,1.758,1.758,0,0,0,1.944-1.4l.693-3.433c.006-.028.01-.057.015-.085a8.566,8.566,0,0,1,3.327,5.808,3.686,3.686,0,0,0-1.861,3.2v1.032a3.662,3.662,0,0,0,.6,2.006H24.4a.839.839,0,1,0,0,1.679h7.174a3.689,3.689,0,0,0,3.685-3.685V52.581a3.679,3.679,0,0,0-.1-.855H53.173a4.689,4.689,0,0,0,4.683-4.683V12.655a4.689,4.689,0,0,0-4.683-4.683ZM33.043,20.67a3.209,3.209,0,0,1,2.189,3.969,5.782,5.782,0,0,1-1.846,2.647,3.12,3.12,0,0,1-2.292.872c.015-.194.035-2.272.035-2.272A1.953,1.953,0,0,1,32.573,24a.839.839,0,1,0-.435-1.621,3.609,3.609,0,0,0-1.01.446V20.712a3.2,3.2,0,0,1,1.914-.042ZM4.37,27.286A5.782,5.782,0,0,1,2.524,24.64a3.2,3.2,0,0,1,4.1-3.928v2.114a3.609,3.609,0,0,0-1.01-.446A.839.839,0,0,0,5.183,24a1.953,1.953,0,0,1,1.444,1.885s.02,2.078.035,2.272a3.12,3.12,0,0,1-2.292-.872Zm3.936-.049V18.1a5.673,5.673,0,0,0,6.441-1.29,5.679,5.679,0,0,0,8.263,0,5.673,5.673,0,0,0,6.441,1.29v9.136a10.573,10.573,0,0,1-21.145,0ZM18.878,39.489a12.292,12.292,0,0,0,1.928-.152v1.382l-1.928,2.868L16.95,40.718V39.336A12.292,12.292,0,0,0,18.878,39.489Zm-4.853,3.838a1.03,1.03,0,0,1,.782-1.2l.927-.206,1.981,2.947L14.842,46.81a.08.08,0,0,1-.123-.05Zm2.54,4.344L18.878,46.1,21.19,47.67a3.464,3.464,0,0,1-4.625,0Zm7.165-4.344-.693,3.434a.08.08,0,0,1-.123.05l-2.873-1.945,1.981-2.947.927.206a1.03,1.03,0,0,1,.782,1.2ZM30.1,47.7h2.393l-.358,1.24a3.693,3.693,0,0,0-.556-.042H30.542c-.066,0-.131,0-.2.005a10.289,10.289,0,0,0-.251-1.2Zm3.484,5.914a2.008,2.008,0,0,1-2.006,2.006H30.542a2.008,2.008,0,0,1-2.006-2.006V52.581a2.008,2.008,0,0,1,2.006-2.006h1.032a2.008,2.008,0,0,1,2.006,2.006Zm22.6-6.571a3.008,3.008,0,0,1-3,3H34.245a3.717,3.717,0,0,0-.55-.476l.541-1.872H53.1a.839.839,0,0,0,.839-.839V36.955a.839.839,0,0,0-1.679,0v9.066H34.721l4.463-15.442a.839.839,0,1,0-1.613-.466l-4.6,15.908h-3.5A10.266,10.266,0,0,0,24.5,41.09a2.672,2.672,0,0,0-1.187-.605l-.829-.184V38.947a12.3,12.3,0,0,0,8.37-9.125,3.386,3.386,0,0,0,.5.037,4.979,4.979,0,0,0,3.1-1.275,7.432,7.432,0,0,0,2.392-3.477,4.891,4.891,0,0,0-2.81-5.862V15.157q0-.749-.072-1.479h18.3v19.36a.839.839,0,1,0,1.679,0v-20.2A.839.839,0,0,0,53.1,12H33.7A15.023,15.023,0,0,0,33,9.65H53.173a3.008,3.008,0,0,1,3,3Z" transform="translate(-0.719)"/>
        <path id="Trazado_1180146" data-name="Trazado 1180146" d="M117.912,190.835v-1.48a.839.839,0,1,0-1.679,0v1.48a.839.839,0,1,0,1.679,0Z" transform="translate(-103.306 -167.418)"/>
        <path id="Trazado_1180147" data-name="Trazado 1180147" d="M195.57,191.674a.839.839,0,0,0,.839-.839v-1.48a.839.839,0,1,0-1.679,0v1.48A.839.839,0,0,0,195.57,191.674Z" transform="translate(-173.019 -167.418)"/>
        <path id="Trazado_1180148" data-name="Trazado 1180148" d="M136.38,257.466a.839.839,0,0,0-1.187-1.187,3.352,3.352,0,0,1-4.734,0,.839.839,0,0,0-1.187,1.187,5.032,5.032,0,0,0,7.108,0Z" transform="translate(-114.667 -227.381)"/>
      </g>
    </g>
  </g>
</svg>
