<svg xmlns="http://www.w3.org/2000/svg" xmlns:xlink="http://www.w3.org/1999/xlink" width="103" height="103" viewBox="0 0 103 103">
  <defs>
    <filter id="Trazado_978624" x="0" y="0" width="103" height="103" filterUnits="userSpaceOnUse">
      <feOffset dy="3" input="SourceAlpha"/>
      <feGaussianBlur stdDeviation="3" result="blur"/>
      <feFlood flood-opacity="0.161"/>
      <feComposite operator="in" in2="blur"/>
      <feComposite in="SourceGraphic"/>
    </filter>
  </defs>
  <g id="Grupo_1225431" data-name="Grupo 1225431" transform="translate(-215 -4506.047)">
    <g id="Grupo_1224938" data-name="Grupo 1224938" transform="translate(44 3673.047)">
      <g id="Grupo_1222589" data-name="Grupo 1222589">
        <g id="Grupo_1203109" data-name="Grupo 1203109" transform="translate(180 839)">
          <g id="Grupo_1176881" data-name="Grupo 1176881">
            <g id="Grupo_1175148" data-name="Grupo 1175148">
              <g id="Grupo_1173798" data-name="Grupo 1173798">
                <g id="Grupo_1171925" data-name="Grupo 1171925">
                  <g id="Grupo_1164524" data-name="Grupo 1164524">
                    <g id="Grupo_1144123" data-name="Grupo 1144123">
                      <g transform="matrix(1, 0, 0, 1, -9, -6)" filter="url(#Trazado_978624)">
                        <g id="Trazado_978624-2" data-name="Trazado 978624" transform="translate(9 6)" fill="#e7f2f8">
                          <path d="M 42.5 83.5 C 36.96437835693359 83.5 31.59512901306152 82.41617584228516 26.54141235351562 80.27863311767578 C 21.65934181213379 78.21369171142578 17.27447128295898 75.25723266601562 13.50862312316895 71.49137878417969 C 9.742764472961426 67.72553253173828 6.786305904388428 63.34066009521484 4.721364498138428 58.45858764648438 C 2.583823442459106 53.40486907958984 1.5 48.03562164306641 1.5 42.5 C 1.5 36.96437835693359 2.583823442459106 31.59512901306152 4.721364498138428 26.54141235351562 C 6.786305904388428 21.65934181213379 9.742764472961426 17.27447128295898 13.50862312316895 13.50862312316895 C 17.27447128295898 9.742764472961426 21.65934181213379 6.786305904388428 26.54141235351562 4.721364498138428 C 31.59512901306152 2.583823442459106 36.96437835693359 1.5 42.5 1.5 C 48.03562164306641 1.5 53.40486907958984 2.583823442459106 58.45858764648438 4.721364498138428 C 63.34066009521484 6.786305904388428 67.72553253173828 9.742764472961426 71.49137878417969 13.50862312316895 C 75.25723266601562 17.27447128295898 78.21369171142578 21.65934181213379 80.27863311767578 26.54141235351562 C 82.41617584228516 31.59512901306152 83.5 36.96437835693359 83.5 42.5 C 83.5 48.03562164306641 82.41617584228516 53.40486907958984 80.27863311767578 58.45858764648438 C 78.21369171142578 63.34066009521484 75.25723266601562 67.72553253173828 71.49137878417969 71.49137878417969 C 67.72553253173828 75.25723266601562 63.34066009521484 78.21369171142578 58.45858764648438 80.27863311767578 C 53.40486907958984 82.41617584228516 48.03562164306641 83.5 42.5 83.5 Z" stroke="none"/>
                          <path d="M 42.5 3 C 37.16621398925781 3 31.99356079101562 4.043960571289062 27.125732421875 6.102882385253906 C 22.42246627807617 8.092185974121094 18.19785308837891 10.94070434570312 14.56928253173828 14.56928253173828 C 10.94070434570312 18.19785308837891 8.092185974121094 22.42246627807617 6.102882385253906 27.125732421875 C 4.043960571289062 31.99356079101562 3 37.16621398925781 3 42.5 C 3 47.83378601074219 4.043960571289062 53.00643920898438 6.102882385253906 57.87425231933594 C 8.092185974121094 62.57753372192383 10.94070434570312 66.80213165283203 14.56928253173828 70.43071746826172 C 18.19786834716797 74.05929565429688 22.42246627807617 76.90781402587891 27.125732421875 78.89711761474609 C 31.99356079101562 80.95603942871094 37.16621398925781 82 42.5 82 C 47.83378601074219 82 53.00642395019531 80.95603942871094 57.87425231933594 78.89711761474609 C 62.57753372192383 76.90781402587891 66.80213165283203 74.05929565429688 70.43071746826172 70.43071746826172 C 74.05929565429688 66.80213165283203 76.90781402587891 62.57753372192383 78.89711761474609 57.87425231933594 C 80.95603942871094 53.00642395019531 82 47.83378601074219 82 42.5 C 82 37.16621398925781 80.95603942871094 31.99356079101562 78.89711761474609 27.125732421875 C 76.90781402587891 22.42246627807617 74.05929565429688 18.19786834716797 70.43071746826172 14.56928253173828 C 66.80213165283203 10.94070434570312 62.57753372192383 8.092185974121094 57.87425231933594 6.102882385253906 C 53.00643920898438 4.043960571289062 47.83378601074219 3 42.5 3 M 42.5 0 C 65.97209167480469 0 85 19.02789306640625 85 42.5 C 85 65.97209167480469 65.97209167480469 85 42.5 85 C 19.02789306640625 85 0 65.97209167480469 0 42.5 C 0 19.02789306640625 19.02789306640625 0 42.5 0 Z" stroke="none" fill="#248abf"/>
                        </g>
                      </g>
                    </g>
                  </g>
                </g>
              </g>
            </g>
          </g>
        </g>
      </g>
    </g>
    <g id="familia" transform="translate(241.112 4529.156)">
      <path id="Trazado_1180255" data-name="Trazado 1180255" d="M272.392,31.263h-4.345a1.2,1.2,0,0,1-1.2-1.2l-.6-10.134s-.968-8.394,4.051-9.5c0,0,2.041-3.971,8.576-2.7a2.534,2.534,0,0,1,.262.076,9.933,9.933,0,0,1,4.069,2.451,10.509,10.509,0,0,1,2.933,8.246c0,2.907.046-.324-.6,11.556a1.2,1.2,0,0,1-1.2,1.2h-4.623" transform="translate(-239.781 -6.741)" fill="#7f7369"/>
      <path id="Trazado_1180256" data-name="Trazado 1180256" d="M273.145,31.343V29.921a7.521,7.521,0,0,1-4.5-6.512c0-.018,0-.077,0-.088,0-.1-.006-.2-.006-.3,0-4.474,0-4.2,0-4.276-.045-2.388.325-7.4,4.123-8.232a6.32,6.32,0,0,1,4.928-2.88c-2.8-.308-6.089.525-7.385,2.88-3.387.744-4.2,4.868-4.121,8.316q0,.072,0,.141c.02.639.066,1.041.066,1.041l.6,10.134a1.2,1.2,0,0,0,1.2,1.2Z" transform="translate(-239.778 -6.821)" fill="#72655a"/>
      <path id="Trazado_1180257" data-name="Trazado 1180257" d="M29.476,253.773l1.286-11.487c.45-3.469.266-4.8,1.385-6.159a5.147,5.147,0,0,0-1.165-1.011l-.036-.009c-1.21-.725-2.229-.755-4.478-1.374h0l-2.3-1.1h0v-2.747a7.54,7.54,0,0,1-6,.016h0l-.01,2.743h0l-2.29,1.089h0c-2.235.615-3.266.648-4.478,1.374l-.036.009a3.193,3.193,0,0,0-.316.222c-1.733,1.244-1.76,2.86-1.91,4.054l-.688,6.15h0c-.969,8.8-.94,8.094-.94,8.772a2.659,2.659,0,0,0,2.752,2.8h0c.193,0,21.727,0,21.891,0C30.281,257.084,29.312,255.662,29.476,253.773Z" transform="translate(-6.758 -207.083)" fill="#dd9a5e"/>
      <g id="Grupo_1225421" data-name="Grupo 1225421" transform="translate(0.744 22.816)">
        <path id="Trazado_1180258" data-name="Trazado 1180258" d="M9.983,294.9c-.017-.971.186-.96,1.707-16.71a4.407,4.407,0,0,1,1.69-3.248,6.676,6.676,0,0,0-1.987.754l-.036.009a3.2,3.2,0,0,0-.316.222c-1.733,1.244-1.76,2.86-1.91,4.055C9.12,280.089,7.5,294.426,7.5,294.9a2.659,2.659,0,0,0,2.752,2.8h2.479A2.651,2.651,0,0,1,9.983,294.9Z" transform="translate(-7.504 -270.488)" fill="#d38d54"/>
        <path id="Trazado_1180259" data-name="Trazado 1180259" d="M117.458,235.131v-4.493a7.454,7.454,0,0,1-2.47-.6l-.01,2.743h0Z" transform="translate(-104.32 -230.042)" fill="#d38d54"/>
      </g>
      <path id="Trazado_1180260" data-name="Trazado 1180260" d="M256.206,256.49c-1.751-15.508-1.652-15.07-1.809-15.828a4.3,4.3,0,0,0-2.026-2.83l-.036-.009a6.114,6.114,0,0,0-1.451-.621l-5.049-1.257a.65.65,0,0,1-.278-.6v-2.435a7.536,7.536,0,0,1-6-.013v2.448a.651.651,0,0,1-.278.6c-4.271,1.138-5.221,1.111-6.5,1.878l-.036.009a4.4,4.4,0,0,0-2.147,3.576l-1.688,15.081c-.169,1.955.867,3.344,2.733,3.344h21.829a2.659,2.659,0,0,0,2.752-2.8v0A5.278,5.278,0,0,0,256.206,256.49Z" transform="translate(-206.194 -209.8)" fill="#eab883"/>
      <path id="Trazado_1180261" data-name="Trazado 1180261" d="M231.371,293.964v0a5.253,5.253,0,0,1,.019-.537l1.688-15.974a4.423,4.423,0,0,1,2.105-3.55,8.082,8.082,0,0,0-2.4.857l-.036.009a4.4,4.4,0,0,0-2.147,3.576l-1.688,15.081c-.169,1.955.867,3.344,2.733,3.344h2.479A2.66,2.66,0,0,1,231.371,293.964Z" transform="translate(-206.193 -246.734)" fill="#d8a373"/>
      <g id="Grupo_1225422" data-name="Grupo 1225422" transform="translate(22.7 23.1)">
        <path id="Trazado_1180262" data-name="Trazado 1180262" d="M263.814,248.256c-.8-7.065-.762-6.983-.888-7.595a4.306,4.306,0,0,0-2.026-2.83l-.036-.009a6.112,6.112,0,0,0-1.451-.621l-5.049-1.257a.65.65,0,0,1-.278-.6v-2.435h0V232.9a7.472,7.472,0,0,1-6,0v.013h0v2.435a.651.651,0,0,1-.278.6c-4.271,1.138-5.221,1.111-6.5,1.878l-.036.009a4.426,4.426,0,0,0-2.147,3.576l-.766,6.848,4.83.507a.486.486,0,0,1,.435.508l-.531,10.563h16.012l-.556-10.522a.528.528,0,0,1,.472-.553Z" transform="translate(-237.422 -232.9)" fill="#d83d3d"/>
        <path id="Trazado_1180263" data-name="Trazado 1180263" d="M234.662,388.256l-4.83-.507-.921,8.233c-.169,1.955.867,3.344,2.733,3.344h2.923l.531-10.563A.486.486,0,0,0,234.662,388.256Z" transform="translate(-228.892 -372.393)" fill="#d83d3d"/>
      </g>
      <path id="Trazado_1180264" data-name="Trazado 1180264" d="M238.364,285.19l2.4.252.844-7.992a4.423,4.423,0,0,1,2.105-3.55,8.193,8.193,0,0,0-2.4.857l-.036.009a4.3,4.3,0,0,0-2.026,2.83C239.1,278.348,239.126,278.511,238.364,285.19Z" transform="translate(-214.725 -246.734)" fill="#a82626"/>
      <g id="Grupo_1225423" data-name="Grupo 1225423" transform="translate(1.684 25.548)">
        <path id="Trazado_1180265" data-name="Trazado 1180265" d="M39.5,260.069l-.036-.009c-1.213-.727-2.248-.761-4.463-1.37l0,0-2.3-1.1-.017.025s0-.006,0-.009l-3,2.824L26.7,257.6l-2.29,1.089h0c-2.235.615-3.266.648-4.478,1.374l-.036.009a4.4,4.4,0,0,0-2.147,3.576l-.767,6.85,4.738.5a.565.565,0,0,1,.506.591L21.7,282.071H37.71l-.556-10.521a.53.53,0,0,1,.473-.555l1.267-.133c.929-7.7.657-8.4,1.782-9.772A6.815,6.815,0,0,0,39.5,260.069Z" transform="translate(-16.981 -257.585)" fill="#70bbef"/>
        <path id="Trazado_1180266" data-name="Trazado 1180266" d="M221.256,399.33l.88-7.865h0l-1.266.133a.529.529,0,0,0-.473.555l.556,10.52h2.974C222.062,402.641,221.093,401.219,221.256,399.33Z" transform="translate(-200.223 -378.188)" fill="#70bbef"/>
      </g>
      <path id="Trazado_1180267" data-name="Trazado 1180267" d="M20.23,278.189a4.407,4.407,0,0,1,1.69-3.248,6.683,6.683,0,0,0-1.987.754l-.036.009a5.174,5.174,0,0,0-1.174,1.022c-1.2,1.47-.874,2.629-1.74,9.4l2.451.257C19.427,286.465,19.533,285.41,20.23,278.189Z" transform="translate(-15.299 -247.672)" fill="#4caee5"/>
      <path id="Trazado_1180268" data-name="Trazado 1180268" d="M323.585,233.747l-2.022-.5a.65.65,0,0,1-.278-.6v-2.733h0V229.9a7.477,7.477,0,0,1-6,0v.013h0v2.733a.651.651,0,0,1-.278.6l-2.053.511A6.089,6.089,0,0,0,323.585,233.747Z" transform="translate(-281.922 -207.098)" fill="#eab883"/>
      <path id="SVGCleanerId_0" d="M50.347,19.47V16.885A9.418,9.418,0,0,1,65.121,9.172c4.841,3.38,3.919,8.351,4.026,10.3" transform="translate(-45.354 -6.74)" fill="#4c4846"/>
      <g id="Grupo_1225424" data-name="Grupo 1225424" transform="translate(4.993 0.745)">
        <path id="SVGCleanerId_0_1_" d="M50.347,19.47V16.885A9.418,9.418,0,0,1,65.121,9.172c4.841,3.38,3.919,8.351,4.026,10.3" transform="translate(-50.347 -7.485)" fill="#4c4846"/>
      </g>
      <path id="Trazado_1180269" data-name="Trazado 1180269" d="M60.684,7.535a9.407,9.407,0,0,0-10.337,9.353v2.585h1.874V16.888A9.4,9.4,0,0,1,60.684,7.535Z" transform="translate(-45.354 -6.743)" fill="#3f3b39"/>
      <g id="Grupo_1225425" data-name="Grupo 1225425" transform="translate(4.525 11.61)">
        <path id="Trazado_1180270" data-name="Trazado 1180270" d="M223.358,119a2.177,2.177,0,0,1-2.342,1.961v-3.923A2.177,2.177,0,0,1,223.358,119Z" transform="translate(-203.623 -117.039)" fill="#dd9a5e"/>
        <path id="Trazado_1180271" data-name="Trazado 1180271" d="M45.629,119a2.177,2.177,0,0,0,2.342,1.961v-3.923A2.177,2.177,0,0,0,45.629,119Z" transform="translate(-45.629 -117.039)" fill="#dd9a5e"/>
      </g>
      <g id="Grupo_1225426" data-name="Grupo 1225426" transform="translate(4.524 12.689)">
        <path id="Trazado_1180272" data-name="Trazado 1180272" d="M221.017,129v1.763a2.177,2.177,0,0,0,2.342-1.961,1.7,1.7,0,0,0-.25-.881A2.422,2.422,0,0,1,221.017,129Z" transform="translate(-203.622 -127.925)" fill="#d38d54"/>
        <path id="Trazado_1180273" data-name="Trazado 1180273" d="M45.866,127.926c-.777,1.291.338,2.843,2.092,2.843v-1.763A2.422,2.422,0,0,1,45.866,127.926Z" transform="translate(-45.614 -127.926)" fill="#d38d54"/>
      </g>
      <path id="Trazado_1180274" data-name="Trazado 1180274" d="M82.516,79.717a1.075,1.075,0,0,0-1.243-1.07c-.14.022-.294.044-.392.058a29.045,29.045,0,0,1-8.7-.058,1.074,1.074,0,0,0-1.243,1.071,3.064,3.064,0,0,1-1.212,2.464,2.263,2.263,0,0,1-.522.295c0,4.871-.058,5.2.2,6.3a7.528,7.528,0,0,0,14.323,1.028c.719-1.818.526-3.2.526-7.329A2.938,2.938,0,0,1,82.516,79.717Z" transform="translate(-62.331 -70.833)" fill="#edae6b"/>
      <path id="Trazado_1180275" data-name="Trazado 1180275" d="M72,90.019c-.531-1.894-.237-3.051-.32-6.641a1.047,1.047,0,0,1,.412-.844,3.393,3.393,0,0,0,1.324-2.784,1.162,1.162,0,0,1,.442-.895c-.358-.036-.706-.077-1.027-.12-.187-.025-.4-.056-.613-.089a1.074,1.074,0,0,0-1.243,1.071,3.066,3.066,0,0,1-1.212,2.464,2.266,2.266,0,0,1-.522.295c0,4.9,0,4.648.007,4.889A7.518,7.518,0,0,0,74.92,94.33,11.158,11.158,0,0,1,72,90.019Z" transform="translate(-62.377 -70.832)" fill="#dd9a5e"/>
      <path id="Trazado_1180276" data-name="Trazado 1180276" d="M148.15,257.586l-3.016,2.84,1.628,1.641a.733.733,0,0,0,1.1-.065l2.59-3.315Z" transform="translate(-130.741 -232.038)" fill="#dadada"/>
      <g id="Grupo_1225427" data-name="Grupo 1225427" transform="translate(14.393 25.548)">
        <path id="Trazado_1180277" data-name="Trazado 1180277" d="M149.308,258.14l-1.158-.554-3.017,2.84,1.078,1.086Z" transform="translate(-145.133 -257.586)" fill="#ceccca"/>
        <path id="Trazado_1180278" data-name="Trazado 1180278" d="M163.787,304.307a.734.734,0,0,0,.43.052Z" transform="translate(-161.937 -299.674)" fill="#ceccca"/>
      </g>
      <path id="Trazado_1180279" data-name="Trazado 1180279" d="M93.851,257.7l2.991,2.829-1.628,1.641a.733.733,0,0,1-1.1-.065l-2.59-3.315Z" transform="translate(-82.448 -232.141)" fill="#dadada"/>
      <path id="Trazado_1180280" data-name="Trazado 1180280" d="M104.723,260.518l1.031,1.1,1.077-1.086-2.99-2.829-1.226.574Z" transform="translate(-92.438 -232.141)" fill="#ceccca"/>
      <path id="Trazado_1180281" data-name="Trazado 1180281" d="M317.78,234.16v-3.652a7.43,7.43,0,0,1-2.492-.609c-.075,2.168.2,3.128-.278,3.343l-2.053.511a6.514,6.514,0,0,0,2.016,2.121l2.131-.784S317.78,234.755,317.78,234.16Z" transform="translate(-281.922 -207.097)" fill="#d8a373"/>
      <path id="Trazado_1180282" data-name="Trazado 1180282" d="M305.246,96.123a.794.794,0,0,1,.757.792v.569h0a10.125,10.125,0,0,1-.32,3.277,7.527,7.527,0,0,1-14.721-1.792c0-.028,0,.008,0-.088s-.006-.2-.006-.3V94.768h0v-.381a.935.935,0,0,1,.745-.913,6.023,6.023,0,0,0,3.137-1.8.686.686,0,0,1,1.029.033A12.707,12.707,0,0,0,305.246,96.123Z" transform="translate(-262.098 -82.381)" fill="#f7cf9c"/>
      <path id="Trazado_1180283" data-name="Trazado 1180283" d="M294.21,114.1c-.994-2.008-.763-3.432-.779-6.223v-2.9a5.844,5.844,0,0,1-1.734.679.935.935,0,0,0-.745.913v4.2c0,.124.007.318.007.33s.011.183.017.271a7.53,7.53,0,0,0,8.741,6.821A7.53,7.53,0,0,1,294.21,114.1Z" transform="translate(-262.098 -94.556)" fill="#eab883"/>
      <g id="Grupo_1225428" data-name="Grupo 1225428" transform="translate(29.613 26.649)">
        <path id="Trazado_1180284" data-name="Trazado 1180284" d="M373.282,269.048l-1.451-.361a6.2,6.2,0,0,1-5.316,3.12S373.312,278.605,373.282,269.048Z" transform="translate(-359.78 -268.687)" fill="#b72c2c"/>
        <path id="Trazado_1180285" data-name="Trazado 1180285" d="M298.605,269.048l1.451-.361a6.2,6.2,0,0,0,5.316,3.12S298.575,278.605,298.605,269.048Z" transform="translate(-298.605 -268.687)" fill="#b72c2c"/>
      </g>
      <g id="Grupo_1225429" data-name="Grupo 1225429" transform="translate(29.68 28.577)">
        <path id="Trazado_1180286" data-name="Trazado 1180286" d="M302.751,288.368c-1.2.638-2.581.943-3.466-.241.7,7.188,6.7,1.193,6.7,1.193A5.975,5.975,0,0,1,302.751,288.368Z" transform="translate(-299.285 -288.127)" fill="#a82626"/>
        <path id="Trazado_1180287" data-name="Trazado 1180287" d="M369.749,288.368c1.2.638,2.581.943,3.466-.241-.7,7.188-6.7,1.193-6.7,1.193A5.975,5.975,0,0,0,369.749,288.368Z" transform="translate(-359.849 -288.127)" fill="#a82626"/>
      </g>
      <path id="Trazado_1180288" data-name="Trazado 1180288" d="M201.5,254.082a6.565,6.565,0,0,0-10.725.627c-1.386,2.239-.863,4.279-.978,4.9H202.92C202.879,258.33,203.232,256.261,201.5,254.082Z" transform="translate(-170.972 -226.643)" fill="#996123"/>
      <path id="Trazado_1180289" data-name="Trazado 1180289" d="M191.579,256.636c.029-.124.1-.37.1-.38a6.564,6.564,0,0,1,5.48-4.612,6.559,6.559,0,0,0-6.384,3.062c-1.386,2.239-.863,4.278-.978,4.9h1.6A11.782,11.782,0,0,1,191.579,256.636Z" transform="translate(-170.971 -226.64)" fill="#8e551c"/>
      <path id="Trazado_1180290" data-name="Trazado 1180290" d="M312.807,356.1a8.952,8.952,0,0,0-1.893-3.486,2.392,2.392,0,0,1-1.3.637,5.065,5.065,0,0,1,.7,3.557.565.565,0,0,0,.678.588l1.215-.252A.812.812,0,0,0,312.807,356.1Z" transform="translate(-278.906 -317.646)" fill="#996123"/>
      <path id="Trazado_1180291" data-name="Trazado 1180291" d="M308.576,323.94a2.111,2.111,0,0,1-2.271,1.9v-3.8A2.111,2.111,0,0,1,308.576,323.94Z" transform="translate(-275.928 -290.099)" fill="#efd0a3"/>
      <path id="Trazado_1180292" data-name="Trazado 1180292" d="M169.8,356.1a8.952,8.952,0,0,1,1.893-3.486,2.392,2.392,0,0,0,1.3.637,5.066,5.066,0,0,0-.7,3.557.565.565,0,0,1-.678.588l-1.215-.252A.812.812,0,0,1,169.8,356.1Z" transform="translate(-152.925 -317.646)" fill="#8e551c"/>
      <path id="Trazado_1180293" data-name="Trazado 1180293" d="M182.8,323.94a2.111,2.111,0,0,0,2.271,1.9v-3.8A2.111,2.111,0,0,0,182.8,323.94Z" transform="translate(-164.673 -290.099)" fill="#efd0a3"/>
      <g id="Grupo_1225430" data-name="Grupo 1225430" transform="translate(18.127 33.027)">
        <path id="Trazado_1180294" data-name="Trazado 1180294" d="M306.3,334.087v1.629c1.683,0,2.759-1.47,2.052-2.716A2.337,2.337,0,0,1,306.3,334.087Z" transform="translate(-294.055 -333)" fill="#e2bf91"/>
        <path id="Trazado_1180295" data-name="Trazado 1180295" d="M183.005,333c-.708,1.248.374,2.716,2.052,2.716v-1.629A2.337,2.337,0,0,1,183.005,333Z" transform="translate(-182.785 -333)" fill="#e2bf91"/>
      </g>
      <path id="Trazado_1180296" data-name="Trazado 1180296" d="M187.639,408.563l-.517-4.623a2.938,2.938,0,0,0-1.423-2.371l-.024-.006c-.845-.506-1.457-.485-4.309-1.245-.315-.143-.132-.754-.184-2.308a4.993,4.993,0,0,1-3.975-.008c-.05,1.517.132,2.173-.184,2.316-2.846.758-3.463.738-4.309,1.245l-.024.006a2.851,2.851,0,0,0-1.343,1.876c-.1.488-.074.527-.6,5.118Z" transform="translate(-153.816 -358.529)" fill="#efd0a3"/>
      <path id="Trazado_1180297" data-name="Trazado 1180297" d="M170.748,430.773h16.89l-.517-4.623a2.941,2.941,0,0,0-1.423-2.371l-.024-.006c-.837-.5-1.512-.5-3.773-1.111v.6a2.693,2.693,0,0,1-.279,1.2c-.029.06-.077.148-.123.221l-.034.053c-.047.073-.1.142-.147.2-.023.029-.055.068-.08.1l-.012.014-.048.054-.005.006h0l-.007.008-.058.059-.019.019q-.038.037-.078.073l-.023.02-.05.043-.008.007-.031.025-.053.042-.034.026-.053.038-.026.018-.009.006-.056.037-.009.006-.026.017-.048.029-.016.01-.007,0-.021.013-.094.051-.013.007,0,0-.016.008-.064.031-.035.016-.064.028-.039.016-.062.024-.041.015-.064.022-.032.01-.008,0-.018.005-.053.015-.026.007-.009,0-.107.026-.016,0-.048.01q-.064.013-.129.022-.13.019-.265.025h-.256c-.089,0-.178-.013-.265-.025q-.065-.01-.129-.022l-.048-.01-.016,0-.107-.026-.009,0-.026-.007-.052-.015-.019-.005-.008,0-.032-.01-.064-.022-.041-.015-.062-.024-.039-.016-.064-.028-.035-.016-.064-.031-.016-.008,0,0-.013-.006-.094-.051-.021-.013-.007,0-.016-.01-.048-.029-.026-.017-.009-.006a2.7,2.7,0,0,1-1.121-1.487,4.545,4.545,0,0,1-.115-1.383l-.573.143a12.98,12.98,0,0,0-3.219.973l-.024.006a2.86,2.86,0,0,0-1.343,1.876C171.245,426.141,171.265,426.237,170.748,430.773Z" transform="translate(-153.815 -380.739)" fill="#f9b938"/>
      <path id="Trazado_1180298" data-name="Trazado 1180298" d="M172.6,431.448c.207-1.865.061-3.43,1.63-4.437l.024-.006a3.77,3.77,0,0,1,.557-.285c.036-.028.071-.054.1-.078a7.981,7.981,0,0,0-2.205.721l-.024.006a2.851,2.851,0,0,0-1.347,1.9c-.1.489-.077.557-.594,5.1h1.544Z" transform="translate(-153.815 -384.329)" fill="#eaa224"/>
      <path id="Trazado_1180299" data-name="Trazado 1180299" d="M230.87,401.885a.973.973,0,0,0,.608-.908V398.42a4.963,4.963,0,0,1-1.989-.417c-.05,1.518.133,2.173-.184,2.316l-.517.129a4.549,4.549,0,0,0,.115,1.383,2.745,2.745,0,0,0,.29.641l1.677-.588Z" transform="translate(-206.098 -358.53)" fill="#e2bf91"/>
      <path id="Trazado_1180300" data-name="Trazado 1180300" d="M210.227,303.575c-1.119,1.862-3.5,1.576-4.34,1.405a.255.255,0,0,0-.3.25h0c0,3.03-.092,3.7.212,4.7a4.989,4.989,0,0,0,9.765-1.443v-3.26h0a.255.255,0,0,0-.305-.25c-.844.17-3.22.457-4.34-1.405A.4.4,0,0,0,210.227,303.575Z" transform="translate(-185.182 -273.291)" fill="#fce3bb"/>
      <path id="Trazado_1180301" data-name="Trazado 1180301" d="M208.138,323.835a34.529,34.529,0,0,1-.074-4.329,5.852,5.852,0,0,1-2.174-.04.255.255,0,0,0-.3.25c0,3.076-.091,3.7.212,4.7a4.991,4.991,0,0,0,6.016,3.389A4.993,4.993,0,0,1,208.138,323.835Z" transform="translate(-185.186 -287.777)" fill="#efd0a3"/>
      <path id="Trazado_1180302" data-name="Trazado 1180302" d="M3.5,50.778h6.767a.744.744,0,0,0,0-1.488H7.2l.738-13.951a.744.744,0,0,0-1.486-.078L6.3,38.194l-3.794-.4c0-.011.7-6.419.828-6.932.69-2.714,3.634-2.833,5.458-3.37l2.287,2.927a1.478,1.478,0,0,0,1.077.565l.087,0a1.942,1.942,0,0,0,1.4-.8v3.6a.744.744,0,0,0,1.488,0v-3.6a1.89,1.89,0,0,0,1.492.793c.98-.058,1.268-.925,1.8-1.493a8.274,8.274,0,0,0-.284,2.651,2.4,2.4,0,0,0-.372,2.9,9.71,9.71,0,0,0-1.351,2.464c-.3.757-.564,1.384-.157,2.083.516.886,1.428.747,2.244.993a1.288,1.288,0,0,0,.974-.183c1.054-.685.307-1.572.64-3.075a5.729,5.729,0,0,0,2.424,2.82h0c.012.007.046.029.16.091v.927c-2.645.659-3.539.806-4.3,1.333a5.036,5.036,0,0,0-.469.373,3.359,3.359,0,0,0-.975,1.514h0a43.482,43.482,0,0,0-.636,4.907h-2.6a.744.744,0,0,0,0,1.488H37.181a.744.744,0,0,0,0-1.488h-2.63c-.46-4.076-.4-4.764-1.028-5.734-1.058-1.626-2.805-1.759-5.351-2.393v-.917c.113-.061.168-.1.179-.1h0a6.086,6.086,0,0,0,1.279-1.022h0a5.712,5.712,0,0,0,1.145-1.8,6.482,6.482,0,0,1,.044,1.9,1.309,1.309,0,0,0,.842,1.3c.489.186.775.038,1.944-.195a1.558,1.558,0,0,0,1.163-1.04,1.748,1.748,0,0,0-.086-1.226,10.631,10.631,0,0,0-1.556-3.022,2.365,2.365,0,0,0,.03-2.345,9.279,9.279,0,0,0,3.206-1.9c3.9,3.387,7.2,2.72,7.474-2.839.153.071,3.093.418,3.638,3.056.16.775.157,1.273.794,6.782l-3.765.395L44.35,35.26a.744.744,0,0,0-1.486.078L43.6,49.29H40.653a.744.744,0,1,0,0,1.488H47.28c2.055,0,3.7-1.489,3.474-4.152,0-.006,0-.012,0-.019-1.78-15.91-1.684-15.235-1.82-15.9a5.361,5.361,0,0,0-4.062-4.03L40.108,25.5v-.229h4.474a1.942,1.942,0,0,0,1.94-1.915l.557-9.436a.744.744,0,0,0-1.485-.088c-.582,9.879-.559,9.456-.559,9.5a.458.458,0,0,1-.452.452H40.108v-.192a7.91,7.91,0,0,0,.755-.434,8.278,8.278,0,0,0,2.988-3.4c1.09-2.3.726-4.09.8-5.268A1.476,1.476,0,0,0,43.234,13h0a11.9,11.9,0,0,1-8.99-4.261,1.272,1.272,0,0,0-1.951-.067,5.323,5.323,0,0,1-2.948,1.71,1.519,1.519,0,0,0-1.234,1.492c0,4.555-.006,4.31.007,4.657v-.007c.009.225.031.508.062.751a8.27,8.27,0,0,0,3.747,5.895,7.894,7.894,0,0,0,.7.4v.207H28.28a.458.458,0,0,1-.452-.452c0-.041-.6-10.194-.6-10.218-.009-.077-.831-7.74,3.472-8.686a.733.733,0,0,0,.5-.382c.075-.142,1.915-3.454,7.775-2.313.029.006.284.089.306.1a9.176,9.176,0,0,1,6.352,8.59.744.744,0,0,0,1.488-.026,10.578,10.578,0,0,0-.276-2.247A10.709,10.709,0,0,0,39.755.414a4.4,4.4,0,0,0-.5-.147C34.663-.628,31.52.9,30.065,3.048c-2.195.623-3.633,2.58-4.168,5.683a17.854,17.854,0,0,0-.152,4.524c.7,10.763.458,10.357.861,11.046a7.177,7.177,0,0,0-1.4-.088h-.01a7.338,7.338,0,0,0-4.636,1.879l-.592-.147-1.809-.866V23.57A8.345,8.345,0,0,0,22.664,16.2a2.625,2.625,0,0,0,1.874-4.055c0-.017,0-1.67-.01-2.432A10.146,10.146,0,0,0,10.984.59,10.283,10.283,0,0,0,4.43,8.237c-.015.081-.055.3-.061.35a20.332,20.332,0,0,0-.119,3.553c-1.107,1.551-.16,3.612,1.874,4.055a8.249,8.249,0,0,0,4.545,7.391v1.475l-1.884.9c-2.187.645-3.878.6-5.561,2.21-.119.114-.238.248-.226.235a5.227,5.227,0,0,0-1.286,3.116L.024,46.607c0,.006,0,.013,0,.019a5.947,5.947,0,0,0-.021.6A3.387,3.387,0,0,0,3.5,50.778Zm2.68-11.1L5.694,49.29c-1.759-.095-2.838.273-3.626-.526a2.185,2.185,0,0,1-.58-1.55c-.009-.525.021-.367.853-7.939ZM16.648,24.16v1.083l-2.255,2.123L12.157,25.26v-1.1A8.3,8.3,0,0,0,16.648,24.16Zm-4.4,5.336-2-2.564,1.008-.482,2.077,1.956Zm4.3,0-1.082-1.09,2.089-1.967,1.005.481Zm1,9.309a10.061,10.061,0,0,1,1.313-2.725l.1.051a5.828,5.828,0,0,0-.371,2.946C17.613,38.869,17.542,38.893,17.543,38.806Zm2.176-3.959a1.038,1.038,0,0,1,0-2.012Zm5.8,6.084a5.524,5.524,0,0,0,1.164-.133c.031.182-.2,1.436.72,1.7a1.955,1.955,0,0,1-1.576,1.936,2.071,2.071,0,0,1-.472.034,1.909,1.909,0,0,1-.485-.085,1.958,1.958,0,0,1-.385-.166h0l-.012-.007.006,0-.006,0h0a1.979,1.979,0,0,1-.929-1.253,2.491,2.491,0,0,1-.05-.464,1.124,1.124,0,0,0,.7-1.1v-.6A5.737,5.737,0,0,0,25.521,40.931Zm7.534,8.359H31.062l-.078-1.472a.744.744,0,0,0-.742-.7H30.2a.744.744,0,0,0-.7.782l.074,1.393H21.33L21.4,47.9a.744.744,0,0,0-1.486-.078L19.84,49.29H17.828c.539-4.786.394-3.617.493-4.214.383-1.754,2.2-1.77,3.705-2.21a3.809,3.809,0,0,0,.074.459h0a3.56,3.56,0,0,0,.42,1.047h0a3.481,3.481,0,0,0,4.215,1.343l.009,0a3.422,3.422,0,0,0,2.13-2.84,9.317,9.317,0,0,1,2.8.884C32.775,44.6,32.577,45.048,33.055,49.29Zm-4.424-11.28a4.191,4.191,0,0,1-.905.773,4,4,0,0,1-1.045.479,4.257,4.257,0,0,1-2.813-.125l-.009,0a4.222,4.222,0,0,1-2.578-3.149,28.672,28.672,0,0,1-.073-3.476,4.664,4.664,0,0,0,4.244-1.419A4.664,4.664,0,0,0,29.7,32.509a32.342,32.342,0,0,1-.036,3.243A4.178,4.178,0,0,1,28.631,38.011ZM38.62,24.164v1.384a1.3,1.3,0,0,0,.842,1.319l.963.24a5.259,5.259,0,0,1-8.121,0,9.966,9.966,0,0,0,1.092-.285,1.362,1.362,0,0,0,.715-1.275V24.156A8.3,8.3,0,0,0,38.62,24.164Zm-6.3,14.913a5.931,5.931,0,0,0-.371-2.946l.1-.051a9.738,9.738,0,0,1,1.309,2.706C33.358,38.793,33.269,38.873,32.321,39.077Zm.431-7.81a7.3,7.3,0,0,0-.36-2.037A6.786,6.786,0,0,0,34.6,30.284,6.588,6.588,0,0,1,32.751,31.267Zm-1.568,3.58V32.835A1.038,1.038,0,0,1,31.183,34.847ZM41.1,31.281c-.865.361-2.227-.453-2.987-1A6.986,6.986,0,0,0,42,27.5l.363.09C42.3,29.662,41.859,30.965,41.1,31.281Zm7.608,17.483c-.789.8-1.86.431-3.617.526l-.508-9.613,3.851-.4c.916,8.5.836,7.05.854,7.972A2.2,2.2,0,0,1,48.708,48.764ZM29.6,16.2V11.876a.03.03,0,0,1,.023-.031,6.8,6.8,0,0,0,3.607-1.994,13.3,13.3,0,0,0,9.934,4.636,16.841,16.841,0,0,1-.1,2.884,6.739,6.739,0,0,1-1.6,3.322A6.781,6.781,0,0,1,29.6,16.2ZM32.623,25.5l-2.3.573a7.326,7.326,0,0,0-1.085-.8h3.388V25.5Zm-1.36,5.8a3.342,3.342,0,0,0-.383-.073.991.991,0,0,0-.894-.264c-2.348.475-3.268-.583-3.555-1.059a1.144,1.144,0,0,0-1.962,0c-.287.477-1.206,1.534-3.555,1.059a.991.991,0,0,0-.893.264,3.359,3.359,0,0,0-.382.072,5.431,5.431,0,0,1,.12-.983,5.816,5.816,0,0,1,11.5.983Zm-8.6-16.654V12.5A1.1,1.1,0,0,1,22.663,14.643ZM8.649,3.671l.01-.009A8.656,8.656,0,0,1,23.024,9.479c.035.467.024.817.025,1.576a3.441,3.441,0,0,0-1.029-.187,2.158,2.158,0,0,1-1.03-1.481c-.119-.574.045-1.273-.713-1.906-1.307-1.091-2.562.458-8.91-.218L9.96,7.079a1.817,1.817,0,0,0-2.1,1.778c0,.042-.006.12-.012.184a2.178,2.178,0,0,1-1.08,1.827,3.443,3.443,0,0,0-1.03.187A9.032,9.032,0,0,1,8.649,3.671ZM6.124,12.5v2.145A1.1,1.1,0,0,1,6.124,12.5Zm1.689,5.353c-.36-1.581-.118-1.921-.2-5.755A3.76,3.76,0,0,0,9.348,8.857c.024-.952,1.725.753,9.708-.308a.329.329,0,0,1,.383.308,3.792,3.792,0,0,0,1.2,2.827,3.517,3.517,0,0,0,.538.412,45.9,45.9,0,0,1-.056,4.989,6.788,6.788,0,0,1-8.818,5.57A6.918,6.918,0,0,1,7.813,17.851Z" transform="translate(0 0)"/>
    </g>
  </g>
</svg>
