<svg xmlns="http://www.w3.org/2000/svg" xmlns:xlink="http://www.w3.org/1999/xlink" width="93.934" height="93.934" viewBox="0 0 93.934 93.934">
  <defs>
    <filter id="Trazado_978624" x="0" y="0" width="93.934" height="93.934" filterUnits="userSpaceOnUse">
      <feOffset dy="3" input="SourceAlpha"/>
      <feGaussianBlur stdDeviation="3" result="blur"/>
      <feFlood flood-opacity="0.161"/>
      <feComposite operator="in" in2="blur"/>
      <feComposite in="SourceGraphic"/>
    </filter>
  </defs>
  <g id="Grupo_1225537" data-name="Grupo 1225537" transform="translate(-190 -5418)">
    <g id="Grupo_1215733" data-name="Grupo 1215733" transform="translate(0.001 2274.619)">
      <g id="Grupo_1214679" data-name="Grupo 1214679" transform="translate(-631 2418.347)">
        <g id="Grupo_1212848" data-name="Grupo 1212848" transform="translate(212 -798.5)">
          <g id="Grupo_1210963" data-name="Grupo 1210963" transform="translate(0 -377.186)">
            <g id="Grupo_1208068" data-name="Grupo 1208068" transform="translate(412 470.719)">
              <g id="Grupo_1144123" data-name="Grupo 1144123" transform="translate(206 1436)">
                <g transform="matrix(1, 0, 0, 1, -9, -6)" filter="url(#Trazado_978624)">
                  <g id="Trazado_978624-2" data-name="Trazado 978624" transform="translate(9 6)" fill="#eae4dc">
                    <path d="M 37.966796875 74.43359375 C 33.04315185546875 74.43359375 28.26757431030273 73.46962738037109 23.77274131774902 71.56847381591797 C 19.43047523498535 69.73184967041016 15.53040790557861 67.10224914550781 12.18087482452393 63.75271987915039 C 8.831341743469238 60.4031867980957 6.201741218566895 56.50312042236328 4.365118980407715 52.16086196899414 C 2.463963508605957 47.66601943969727 1.499996900558472 42.89044189453125 1.499996900558472 37.966796875 C 1.499996900558472 33.04315185546875 2.463963508605957 28.26757431030273 4.365118980407715 23.77274131774902 C 6.201741218566895 19.43047523498535 8.831341743469238 15.53040790557861 12.18087482452393 12.18087482452393 C 15.53040790557861 8.831341743469238 19.43047523498535 6.201741218566895 23.77274131774902 4.365118980407715 C 28.26757431030273 2.463963508605957 33.04315185546875 1.499996900558472 37.966796875 1.499996900558472 C 42.89044189453125 1.499996900558472 47.66601943969727 2.463963508605957 52.16086196899414 4.365118980407715 C 56.50312042236328 6.201741218566895 60.4031867980957 8.831341743469238 63.75271987915039 12.18087482452393 C 67.10224914550781 15.53040790557861 69.73184967041016 19.43047523498535 71.56847381591797 23.77274131774902 C 73.46962738037109 28.26757431030273 74.43359375 33.04315185546875 74.43359375 37.966796875 C 74.43359375 42.89044189453125 73.46962738037109 47.66601943969727 71.56847381591797 52.16086196899414 C 69.73184967041016 56.50313186645508 67.10224914550781 60.4031867980957 63.75271987915039 63.75271987915039 C 60.4031867980957 67.10224914550781 56.50313186645508 69.73184967041016 52.16086196899414 71.56847381591797 C 47.66601943969727 73.46962738037109 42.89044189453125 74.43359375 37.966796875 74.43359375 Z" stroke="none"/>
                    <path d="M 37.966796875 3 C 33.2449836730957 3 28.66600799560547 3.924095153808594 24.35705947875977 5.746635437011719 C 20.19359588623047 7.507621765136719 16.45379638671875 10.02927398681641 13.24153518676758 13.24153518676758 C 10.02927398681641 16.45379638671875 7.507621765136719 20.19359588623047 5.746635437011719 24.35705947875977 C 3.924095153808594 28.66600799560547 3 33.2449836730957 3 37.966796875 C 3 42.6886100769043 3.924095153808594 47.26758575439453 5.746635437011719 51.57653427124023 C 7.507621765136719 55.73999786376953 10.02927398681641 59.47979736328125 13.24153518676758 62.69205856323242 C 16.45379638671875 65.90431976318359 20.19359588623047 68.42597198486328 24.35705947875977 70.18695831298828 C 28.66600799560547 72.00949859619141 33.2449836730957 72.93359375 37.966796875 72.93359375 C 42.6886100769043 72.93359375 47.26758575439453 72.00949859619141 51.57653427124023 70.18695831298828 C 55.73999786376953 68.42597198486328 59.47979736328125 65.90431976318359 62.69205856323242 62.69205856323242 C 65.90431976318359 59.47979736328125 68.42597198486328 55.73999786376953 70.18695831298828 51.57653427124023 C 72.00949859619141 47.26758575439453 72.93359375 42.6886100769043 72.93359375 37.966796875 C 72.93359375 33.2449836730957 72.00949859619141 28.66600799560547 70.18695831298828 24.35705947875977 C 68.42597198486328 20.19359588623047 65.90431976318359 16.45379638671875 62.69205856323242 13.24153518676758 C 59.47979736328125 10.02927398681641 55.73999786376953 7.507621765136719 51.57653427124023 5.746635437011719 C 47.26758575439453 3.924095153808594 42.6886100769043 3 37.966796875 3 M 37.966796875 0 C 58.93528366088867 0 75.93359375 16.99831008911133 75.93359375 37.966796875 C 75.93359375 58.93528366088867 58.93528366088867 75.93359375 37.966796875 75.93359375 C 16.99831008911133 75.93359375 0 58.93528366088867 0 37.966796875 C 0 16.99831008911133 16.99831008911133 0 37.966796875 0 Z" stroke="none" fill="#665b4e"/>
                  </g>
                </g>
              </g>
            </g>
          </g>
        </g>
      </g>
    </g>
    <g id="educacion_2_" data-name="educacion (2)" transform="translate(214.022 5434.021)">
      <g id="Grupo_1225536" data-name="Grupo 1225536" transform="translate(0.786 5.546)">
        <path id="Trazado_1180533" data-name="Trazado 1180533" d="M89.726,233.17a9.03,9.03,0,0,0-.054,6.687l.737,1.443H58.615s-5.919-3.326,0-9.245l31.519-.65Z" transform="translate(-51.752 -211.676)" fill="#f1f2f2"/>
        <path id="Trazado_1180534" data-name="Trazado 1180534" d="M90.411,241.3H58.618s-5.919-3.326,0-9.245l31.519-.65-.409,1.765a8.659,8.659,0,0,0-.449,1.434H60.429a2.026,2.026,0,1,0,0,4.052H89.29a7.783,7.783,0,0,0,.385,1.2Z" transform="translate(-51.755 -211.675)" fill="#dee1e1"/>
        <path id="Trazado_1180535" data-name="Trazado 1180535" d="M73.414,231.686l-29.062-.046c-3.482,0-6.472-2.221-6.472-5.7A7.932,7.932,0,0,1,38,223.479a6.307,6.307,0,0,1,5.914-4.117H73.728a1.422,1.422,0,1,1,0,2.844H51.164l-2.2.517-1.916-.517h-3.13a3.46,3.46,0,1,0,0,6.92H73.728a1.423,1.423,0,0,1,1.412,1.589C75.058,231.422,74.143,231.686,73.414,231.686Z" transform="translate(-35.239 -200.711)" fill="#b7e546"/>
        <path id="Trazado_1180536" data-name="Trazado 1180536" d="M72.739,268.836a1.421,1.421,0,0,1-1.412,1.255l-14.729.883-15.085-.883a6.307,6.307,0,0,1-5.767-8.855v1.3a6.3,6.3,0,0,0,6.3,6.3Z" transform="translate(-32.838 -238.831)" fill="#abd641"/>
        <path id="Trazado_1180537" data-name="Trazado 1180537" d="M145.769,255.237v-4.145h-2.955l-1.049.105.063,3.861a.179.179,0,0,0,.245.167l.741-.181.829-.325a.179.179,0,0,1,.131,0l1.75.685A.179.179,0,0,0,145.769,255.237Z" transform="translate(-129.845 -229.597)" fill="#ef5227"/>
        <path id="Trazado_1180538" data-name="Trazado 1180538" d="M141.635,251.095v3.952l-.921.36a.179.179,0,0,1-.245-.167v-4.145Z" transform="translate(-128.666 -229.6)" fill="#d83724"/>
        <path id="Trazado_1180539" data-name="Trazado 1180539" d="M128.747,173.023v2.021l-.09.9a.628.628,0,0,1-.627.627l-23.887-.09a.627.627,0,0,1-.627-.627l-.179-2.828,12.263-.586Z" transform="translate(-94.86 -157.992)" fill="#fdcd08"/>
        <path id="Trazado_1180540" data-name="Trazado 1180540" d="M437.464,197.8c-.561,1.383-1.126,2.748-1.687,4.131a1.256,1.256,0,0,0,1.152,1.733l1.038.09h2.524a1.256,1.256,0,0,0,1.152-1.733l-1.17-2.884-.736-1.336h-2.273Z" transform="translate(-397.419 -181.08)" fill="#fdcd08"/>
        <path id="Trazado_1180541" data-name="Trazado 1180541" d="M437.461,197.243a3.407,3.407,0,0,0,2.106-.51l-.629-1.572-1.04.311h0l-1.355-.181c-.171.422-.42,1.022-.591,1.444h0l-1.17,2.883a1.255,1.255,0,0,0,1.152,1.733h1.434a1.255,1.255,0,0,1-1.152-1.733l.874-2.153A.362.362,0,0,1,437.461,197.243Z" transform="translate(-396.512 -178.679)" fill="#faab18"/>
        <path id="Trazado_1180542" data-name="Trazado 1180542" d="M451.463,159.935a2.088,2.088,0,0,0-1.4-1.976c-.211-.073-.517.057-.752.057a1.76,1.76,0,0,0-1.846,1.919,1.823,1.823,0,0,0,2,1.845c.235,0,.39.2.6.13A2.088,2.088,0,0,0,451.463,159.935Z" transform="translate(-408.147 -144.791)" fill="#fdcd08"/>
        <path id="Trazado_1180543" data-name="Trazado 1180543" d="M448.617,160.99a2.039,2.039,0,0,1-.672.113,2.089,2.089,0,0,1,0-4.178,2.038,2.038,0,0,1,.672.113,2.1,2.1,0,0,0,0,3.952Z" transform="translate(-406.698 -143.871)" fill="#faab18"/>
        <path id="Trazado_1180544" data-name="Trazado 1180544" d="M54.693,19.523l-5.912,2.047L47.168,21.4,35.693,26.1a3.761,3.761,0,0,1-2.461,0L21.757,21.587l-1.613-.018-5.912-2.047a.752.752,0,0,1,0-1.422l19.225-6.655a3.075,3.075,0,0,1,2.012,0L54.693,18.1A.752.752,0,0,1,54.693,19.523Z" transform="translate(-13.281 -11.276)" fill="#868491"/>
        <path id="Trazado_1180545" data-name="Trazado 1180545" d="M113.974,81.992V82.6L100.885,87.13a3.761,3.761,0,0,1-2.461,0L85.336,82.6v-.607a2.637,2.637,0,0,1,2.173-2.6,68.839,68.839,0,0,1,24.292,0,2.639,2.639,0,0,1,2.173,2.6Z" transform="translate(-78.473 -72.306)" fill="#77777f"/>
        <path id="Trazado_1180546" data-name="Trazado 1180546" d="M130.568,98.379v5.345H105.426l-.09-5.165a1.026,1.026,0,0,1,.844-1.009c.256-.046.333-.27.59-.312a67.2,67.2,0,0,1,22.953.133,1.026,1.026,0,0,1,.844,1.009Z" transform="translate(-96.681 -88.693)" fill="#868491"/>
        <path id="Trazado_1180547" data-name="Trazado 1180547" d="M128.747,175.044v.986a.628.628,0,0,1-.627.627H103.963a.627.627,0,0,1-.627-.627v-3.007l.807-.586.807.586V174.6a.448.448,0,0,0,.448.448Z" transform="translate(-94.86 -157.992)" fill="#faab18"/>
        <path id="Trazado_1180548" data-name="Trazado 1180548" d="M104.949,106.6v6.487h-1.613v-5.345a1.026,1.026,0,0,1,.844-1.009C104.437,106.692,104.693,106.647,104.949,106.6Z" transform="translate(-94.86 -98.061)" fill="#77777f"/>
        <path id="Trazado_1180549" data-name="Trazado 1180549" d="M71.529,388.277a8.433,8.433,0,0,1,0-6.455l.273-1.212H35.151s-4.126,4.485.268,8.879l36.621.275Z" transform="translate(-31.187 -347.508)" fill="#f1f2f2"/>
        <path id="Trazado_1180550" data-name="Trazado 1180550" d="M72.04,389.768l-36.621-.274c-4.395-4.394-.268-8.879-.268-8.879l36.827.068-.449,1.143a8.4,8.4,0,0,0-.4,1.223H37.491a2.026,2.026,0,1,0,0,4.052H71.139a8.5,8.5,0,0,0,.39,1.18Z" transform="translate(-31.187 -347.511)" fill="#dee1e1"/>
        <path id="Trazado_1180551" data-name="Trazado 1180551" d="M53.9,372.328l-33.136-.061c-3.482,0-6.545-1.965-6.545-5.446,0-1.1-.27-2.627.229-3.53a6.3,6.3,0,0,1,5.52-3.258H54.52a1.422,1.422,0,0,1,0,2.844H45.959l-2.237.5-1.883-.5H19.966a3.46,3.46,0,1,0,0,6.92H54.52a1.423,1.423,0,0,1,1.4,1.679c-.121.663-1.324.851-2.022.851Z" transform="translate(-13.662 -328.774)" fill="#ef5227"/>
        <path id="Trazado_1180552" data-name="Trazado 1180552" d="M51.026,401.111a1.424,1.424,0,0,1-1.4,1.165H15.073a6.305,6.305,0,0,1-5.319-9.691v2.221a6.3,6.3,0,0,0,6.3,6.3Z" transform="translate(-8.768 -358.408)" fill="#d83724"/>
        <path id="Trazado_1180553" data-name="Trazado 1180553" d="M328.411,395.928v-4.179h-2.776l-1.231.075.066,3.925a.179.179,0,0,0,.245.167l.921-.251.65-.255a.179.179,0,0,1,.131,0l1.75.685A.179.179,0,0,0,328.411,395.928Z" transform="translate(-296.114 -357.647)" fill="#fdcd08"/>
        <path id="Trazado_1180554" data-name="Trazado 1180554" d="M324.484,391.745v3.916l-1.1.43a.179.179,0,0,1-.245-.167v-4.179Z" transform="translate(-294.963 -357.644)" fill="#faab18"/>
      </g>
      <path id="Trazado_1180555" data-name="Trazado 1180555" d="M45.749,25.94l-1.492-3.678a2.731,2.731,0,0,0-1.386-4.407c0-.177,0-4.607,0-4.794a1.4,1.4,0,0,0-.95-1.334l-18.9-6.543a3.711,3.711,0,0,0-2.418,0L15.9,6.813a.672.672,0,1,0,.44,1.27l4.705-1.629a2.36,2.36,0,0,1,1.538,0L41.481,13a.067.067,0,0,1,0,.127l-6.506,2.252v-.2a1.678,1.678,0,0,0-1.384-1.654,66.507,66.507,0,0,0-23.558,0A1.679,1.679,0,0,0,8.65,15.175v.2L2.144,13.124a.067.067,0,0,1,0-.127L13.319,9.129a.672.672,0,1,0-.44-1.27L1.7,11.727a1.412,1.412,0,0,0,0,2.668L8.65,16.8v6.653a6.974,6.974,0,0,0-3.18,12.739A6.976,6.976,0,0,0,6.976,49.978H41.531a2.094,2.094,0,0,0,.042-4.187,7.7,7.7,0,0,1-.016-5.578,2.094,2.094,0,0,0-.026-4.188h-.415a2.093,2.093,0,0,0-1.955-2.844h-.018a7.7,7.7,0,0,1-.127-5.222,1.888,1.888,0,0,0,1.388.609h3.589a1.891,1.891,0,0,0,1.57-.838,1.913,1.913,0,0,0,.186-1.791ZM43.56,20.5A1.362,1.362,0,1,1,42.2,19.114,1.373,1.373,0,0,1,43.56,20.5Zm-2.034-5.964v3.324a2.731,2.731,0,0,0-1.386,4.407l-.469,1.155h-4.7V16.8Zm-31.255.314a65.179,65.179,0,0,1,23.083,0,.335.335,0,0,1,.276.33v4.582H29.488a.672.672,0,0,0,0,1.344H33.63v2.316H9.995V21.1H26.351a.672.672,0,0,0,0-1.344H9.995V15.175a.335.335,0,0,1,.276-.33ZM42.281,38.12a.751.751,0,0,1-.75.75H6.976a4.132,4.132,0,1,0,0,8.265H33.522a.672.672,0,1,0,0-1.344H6.976a2.788,2.788,0,1,1,0-5.576h21.2v3.768a.672.672,0,0,0,.917.626l1.815-.711,1.815.711a.672.672,0,0,0,.917-.626V40.214H40.13a9.022,9.022,0,0,0,.013,5.576H36.659a.672.672,0,1,0,0,1.344h4.872a.75.75,0,1,1,0,1.5H6.976a5.632,5.632,0,1,1,0-11.264H41.531a.751.751,0,0,1,.75.75ZM29.521,40.214H32.3V43l-1.143-.447a.672.672,0,0,0-.49,0L29.521,43ZM18.016,34.526H39.161a.75.75,0,1,1,0,1.5H9.346a5.632,5.632,0,0,1,0-11.264H39.126c-.166.446-.473,1.078-.576,1.5H9.346a4.132,4.132,0,1,0,0,8.265h5.532a.672.672,0,0,0,0-1.344H9.346a2.788,2.788,0,1,1,0-5.576H11.8v3.736a.672.672,0,0,0,.917.626l1.815-.711,1.815.711a.672.672,0,0,0,.917-.626V27.606H37.715a9.023,9.023,0,0,0,0,5.576h-19.7a.672.672,0,0,0,0,1.345Zm-4.867-6.92h2.776v2.751l-1.143-.447a.672.672,0,0,0-.49,0l-1.143.447Zm31.3-.626a.545.545,0,0,1-.455.244H40.4a.545.545,0,0,1-.455-.244.564.564,0,0,1-.055-.534l1.375-3.39a2.691,2.691,0,0,0,1.859,0l1.375,3.39A.563.563,0,0,1,44.448,26.979Z" transform="translate(0 0)"/>
    </g>
  </g>
</svg>
