<svg xmlns="http://www.w3.org/2000/svg" xmlns:xlink="http://www.w3.org/1999/xlink" width="93.934" height="93.934" viewBox="0 0 93.934 93.934">
  <defs>
    <filter id="Trazado_978624" x="0" y="0" width="93.934" height="93.934" filterUnits="userSpaceOnUse">
      <feOffset dy="3" input="SourceAlpha"/>
      <feGaussianBlur stdDeviation="3" result="blur"/>
      <feFlood flood-opacity="0.161"/>
      <feComposite operator="in" in2="blur"/>
      <feComposite in="SourceGraphic"/>
    </filter>
  </defs>
  <g id="Grupo_1225538" data-name="Grupo 1225538" transform="translate(-820 -5418)">
    <g id="Grupo_1215737" data-name="Grupo 1215737" transform="translate(0.001 2273.928)">
      <g id="Grupo_1214678" data-name="Grupo 1214678" transform="translate(629 2419.039)">
        <g id="Grupo_1212847" data-name="Grupo 1212847" transform="translate(-418 -798.5)">
          <g id="Grupo_1210963" data-name="Grupo 1210963" transform="translate(0 -377.186)">
            <g id="Grupo_1208068" data-name="Grupo 1208068" transform="translate(412 470.719)">
              <g id="Grupo_1144123" data-name="Grupo 1144123" transform="translate(206 1436)">
                <g transform="matrix(1, 0, 0, 1, -9, -6)" filter="url(#Trazado_978624)">
                  <g id="Trazado_978624-2" data-name="Trazado 978624" transform="translate(9 6)" fill="#eae4dc">
                    <path d="M 37.966796875 74.43359375 C 33.04315185546875 74.43359375 28.26757431030273 73.46962738037109 23.77274131774902 71.56847381591797 C 19.43047523498535 69.73184967041016 15.53040790557861 67.10224914550781 12.18087482452393 63.75271987915039 C 8.831341743469238 60.4031867980957 6.201741218566895 56.50312042236328 4.365118980407715 52.16086196899414 C 2.463963508605957 47.66601943969727 1.499996900558472 42.89044189453125 1.499996900558472 37.966796875 C 1.499996900558472 33.04315185546875 2.463963508605957 28.26757431030273 4.365118980407715 23.77274131774902 C 6.201741218566895 19.43047523498535 8.831341743469238 15.53040790557861 12.18087482452393 12.18087482452393 C 15.53040790557861 8.831341743469238 19.43047523498535 6.201741218566895 23.77274131774902 4.365118980407715 C 28.26757431030273 2.463963508605957 33.04315185546875 1.499996900558472 37.966796875 1.499996900558472 C 42.89044189453125 1.499996900558472 47.66601943969727 2.463963508605957 52.16086196899414 4.365118980407715 C 56.50312042236328 6.201741218566895 60.4031867980957 8.831341743469238 63.75271987915039 12.18087482452393 C 67.10224914550781 15.53040790557861 69.73184967041016 19.43047523498535 71.56847381591797 23.77274131774902 C 73.46962738037109 28.26757431030273 74.43359375 33.04315185546875 74.43359375 37.966796875 C 74.43359375 42.89044189453125 73.46962738037109 47.66601943969727 71.56847381591797 52.16086196899414 C 69.73184967041016 56.50313186645508 67.10224914550781 60.4031867980957 63.75271987915039 63.75271987915039 C 60.4031867980957 67.10224914550781 56.50313186645508 69.73184967041016 52.16086196899414 71.56847381591797 C 47.66601943969727 73.46962738037109 42.89044189453125 74.43359375 37.966796875 74.43359375 Z" stroke="none"/>
                    <path d="M 37.966796875 3 C 33.2449836730957 3 28.66600799560547 3.924095153808594 24.35705947875977 5.746635437011719 C 20.19359588623047 7.507621765136719 16.45379638671875 10.02927398681641 13.24153518676758 13.24153518676758 C 10.02927398681641 16.45379638671875 7.507621765136719 20.19359588623047 5.746635437011719 24.35705947875977 C 3.924095153808594 28.66600799560547 3 33.2449836730957 3 37.966796875 C 3 42.6886100769043 3.924095153808594 47.26758575439453 5.746635437011719 51.57653427124023 C 7.507621765136719 55.73999786376953 10.02927398681641 59.47979736328125 13.24153518676758 62.69205856323242 C 16.45379638671875 65.90431976318359 20.19359588623047 68.42597198486328 24.35705947875977 70.18695831298828 C 28.66600799560547 72.00949859619141 33.2449836730957 72.93359375 37.966796875 72.93359375 C 42.6886100769043 72.93359375 47.26758575439453 72.00949859619141 51.57653427124023 70.18695831298828 C 55.73999786376953 68.42597198486328 59.47979736328125 65.90431976318359 62.69205856323242 62.69205856323242 C 65.90431976318359 59.47979736328125 68.42597198486328 55.73999786376953 70.18695831298828 51.57653427124023 C 72.00949859619141 47.26758575439453 72.93359375 42.6886100769043 72.93359375 37.966796875 C 72.93359375 33.2449836730957 72.00949859619141 28.66600799560547 70.18695831298828 24.35705947875977 C 68.42597198486328 20.19359588623047 65.90431976318359 16.45379638671875 62.69205856323242 13.24153518676758 C 59.47979736328125 10.02927398681641 55.73999786376953 7.507621765136719 51.57653427124023 5.746635437011719 C 47.26758575439453 3.924095153808594 42.6886100769043 3 37.966796875 3 M 37.966796875 0 C 58.93528366088867 0 75.93359375 16.99831008911133 75.93359375 37.966796875 C 75.93359375 58.93528366088867 58.93528366088867 75.93359375 37.966796875 75.93359375 C 16.99831008911133 75.93359375 0 58.93528366088867 0 37.966796875 C 0 16.99831008911133 16.99831008911133 0 37.966796875 0 Z" stroke="none" fill="#665b4e"/>
                  </g>
                </g>
              </g>
            </g>
          </g>
        </g>
      </g>
    </g>
    <g id="_49_No_Baby" data-name="49 No Baby" transform="translate(835.998 5430.542)">
      <path id="Trazado_1180556" data-name="Trazado 1180556" d="M54.265,18.421a25.342,25.342,0,1,0,0,35.839,25.342,25.342,0,0,0,0-35.839ZM51.937,47.632,46.71,42.4a10.887,10.887,0,0,1-3.478,5.124l4.4,4.4A19.249,19.249,0,0,1,20.753,25.049l7.182,7.182a10.887,10.887,0,0,1,5.124-3.478l-8-8A19.249,19.249,0,0,1,51.937,47.632Z" transform="translate(-5.373 -5.382)" fill="#c63e3e"/>
      <path id="Trazado_1180557" data-name="Trazado 1180557" d="M360.084,258.17a2.453,2.453,0,0,1-2.37,2.451,10.958,10.958,0,0,0-.164-4.9h.081A2.452,2.452,0,0,1,360.084,258.17Z" transform="translate(-316.075 -224.79)" fill="#ead7ac"/>
      <path id="Trazado_1180558" data-name="Trazado 1180558" d="M131.809,258.5a10.933,10.933,0,0,0,.207,2.1,2.452,2.452,0,1,1,.084-4.9h.081A10.867,10.867,0,0,0,131.809,258.5Z" transform="translate(-111.707 -224.768)" fill="#ead7ac"/>
      <circle id="Elipse_14567" data-name="Elipse 14567" cx="10.87" cy="10.87" r="10.87" transform="translate(20.101 22.866)" fill="#ffebb9"/>
      <path id="Trazado_1180559" data-name="Trazado 1180559" d="M43.09,210.559A25.376,25.376,0,0,1,12.3,178.06,51.44,51.44,0,0,0,17.3,189.009a19.31,19.31,0,0,0,15.142,15.976,51.484,51.484,0,0,0,10.651,5.575Z" transform="translate(-5.369 -155.163)" fill="#b23b3b"/>
      <path id="Trazado_1180560" data-name="Trazado 1180560" d="M30.971,56.921A25.97,25.97,0,0,1,5.205,34.176a.621.621,0,1,1,1.232-.151A24.738,24.738,0,1,0,6.3,29.3a.622.622,0,1,1-1.241-.081,25.962,25.962,0,1,1,25.909,27.7Zm0-6.082A19.87,19.87,0,0,1,14.877,19.3a.621.621,0,0,1,.941-.073l6.711,6.711a11.467,11.467,0,0,1,4.034-2.818l-7.322-7.317a.621.621,0,0,1,.074-.941A19.87,19.87,0,0,1,47.066,42.616a.621.621,0,0,1-.941.073l-4.54-4.54a11.459,11.459,0,0,1-2.818,4.034L42.7,46.114a.621.621,0,0,1-.074.94,19.721,19.721,0,0,1-11.652,3.785Zm-15.507-30.2a18.462,18.462,0,0,0-3.132,10.323A18.631,18.631,0,0,0,41.3,46.467l-3.881-3.881a.621.621,0,0,1,.046-.919,10.24,10.24,0,0,0,3.28-4.831.621.621,0,0,1,1.034-.251l4.7,4.7A18.468,18.468,0,0,0,49.61,30.958,18.661,18.661,0,0,0,30.971,12.319a18.463,18.463,0,0,0-10.329,3.132l7.481,7.481a.621.621,0,0,1-.251,1.034,10.24,10.24,0,0,0-4.833,3.279.621.621,0,0,1-.919.046ZM5.656,32.767a.621.621,0,0,1-.621-.592c-.016-.337-.025-.65-.026-.956a.621.621,0,0,1,1.241,0c0,.289.009.585.025.906a.621.621,0,0,1-.591.649Z" transform="translate(0 0)"/>
      <path id="Trazado_1180561" data-name="Trazado 1180561" d="M352.332,255.868a.621.621,0,0,1-.609-.74,10.375,10.375,0,0,0,.19-1.977,10.233,10.233,0,0,0-.345-2.646.621.621,0,0,1,.563-.78h.118a3.073,3.073,0,1,1,.1,6.145Zm.641-4.758a11.481,11.481,0,0,1,.181,2.039,11.726,11.726,0,0,1-.07,1.278,1.835,1.835,0,0,0-.111-3.317Z" transform="translate(-310.692 -219.416)"/>
      <path id="Trazado_1180562" data-name="Trazado 1180562" d="M126.492,255.841h-.021a3.073,3.073,0,1,1,.1-6.145h.118a.621.621,0,0,1,.563.78,10.232,10.232,0,0,0-.345,2.646,10.376,10.376,0,0,0,.191,1.984.621.621,0,0,1-.609.739Zm-.641-4.758a1.835,1.835,0,0,0-.111,3.317,11.726,11.726,0,0,1-.07-1.278,11.481,11.481,0,0,1,.181-2.036Z" transform="translate(-106.189 -219.389)"/>
      <path id="Trazado_1180563" data-name="Trazado 1180563" d="M156.4,194.741a11.491,11.491,0,1,1,11.491-11.491A11.491,11.491,0,0,1,156.4,194.741Zm0-21.74a10.249,10.249,0,1,0,10.249,10.249A10.249,10.249,0,0,0,156.4,173Z" transform="translate(-125.429 -149.515)"/>
      <path id="Trazado_1180564" data-name="Trazado 1180564" d="M225.446,124.784a.621.621,0,0,1-.077-1.233,2.391,2.391,0,0,0,2.069-2.668,1.786,1.786,0,0,0-2-1.552,1.3,1.3,0,0,0-1.133,1.458.922.922,0,0,0,1.028.8.621.621,0,1,1,.154,1.232,2.164,2.164,0,0,1-2.414-1.875,2.549,2.549,0,0,1,2.209-2.843,3.028,3.028,0,0,1,3.382,2.626,3.636,3.636,0,0,1-3.15,4.055A.648.648,0,0,1,225.446,124.784Z" transform="translate(-195.495 -101.385)"/>
      <path id="Trazado_1180565" data-name="Trazado 1180565" d="M198.451,293.373a.621.621,0,0,1-.621-.621v-.712a.621.621,0,0,1,1.241,0v.712A.621.621,0,0,1,198.451,293.373Z" transform="translate(-172.876 -256.798)"/>
      <path id="Trazado_1180566" data-name="Trazado 1180566" d="M302.791,293.373a.621.621,0,0,1-.621-.621v-.712a.621.621,0,0,1,1.241,0v.712A.621.621,0,0,1,302.791,293.373Z" transform="translate(-266.423 -256.798)"/>
      <path id="Trazado_1180567" data-name="Trazado 1180567" d="M240.441,321.634a1.965,1.965,0,0,1-1.717-1.009.621.621,0,1,1,1.086-.6.724.724,0,0,0,1.263,0,.621.621,0,1,1,1.085.6A1.965,1.965,0,0,1,240.441,321.634Z" transform="translate(-209.469 -282.144)"/>
    </g>
  </g>
</svg>
