<svg xmlns="http://www.w3.org/2000/svg" xmlns:xlink="http://www.w3.org/1999/xlink" width="93.934" height="93.934" viewBox="0 0 93.934 93.934">
  <defs>
    <filter id="Trazado_978624" x="0" y="0" width="93.934" height="93.934" filterUnits="userSpaceOnUse">
      <feOffset dy="3" input="SourceAlpha"/>
      <feGaussianBlur stdDeviation="3" result="blur"/>
      <feFlood flood-opacity="0.161"/>
      <feComposite operator="in" in2="blur"/>
      <feComposite in="SourceGraphic"/>
    </filter>
  </defs>
  <g id="Grupo_1225593" data-name="Grupo 1225593" transform="translate(-190 -6904)">
    <g id="Grupo_1224941" data-name="Grupo 1224941" transform="translate(0.001 3760.619)">
      <g id="Grupo_1214679" data-name="Grupo 1214679" transform="translate(-631 2418.347)">
        <g id="Grupo_1212848" data-name="Grupo 1212848" transform="translate(212 -798.5)">
          <g id="Grupo_1210963" data-name="Grupo 1210963" transform="translate(0 -377.186)">
            <g id="Grupo_1208068" data-name="Grupo 1208068" transform="translate(412 470.719)">
              <g id="Grupo_1144123" data-name="Grupo 1144123" transform="translate(206 1436)">
                <g transform="matrix(1, 0, 0, 1, -9, -6)" filter="url(#Trazado_978624)">
                  <g id="Trazado_978624-2" data-name="Trazado 978624" transform="translate(9 6)" fill="#e7f2f8">
                    <path d="M 37.966796875 74.43359375 C 33.04315185546875 74.43359375 28.26757431030273 73.46962738037109 23.77274131774902 71.56847381591797 C 19.43047523498535 69.73184967041016 15.53040790557861 67.10224914550781 12.18087482452393 63.75271987915039 C 8.831341743469238 60.4031867980957 6.201741218566895 56.50312042236328 4.365118980407715 52.16086196899414 C 2.463963508605957 47.66601943969727 1.499996900558472 42.89044189453125 1.499996900558472 37.966796875 C 1.499996900558472 33.04315185546875 2.463963508605957 28.26757431030273 4.365118980407715 23.77274131774902 C 6.201741218566895 19.43047523498535 8.831341743469238 15.53040790557861 12.18087482452393 12.18087482452393 C 15.53040790557861 8.831341743469238 19.43047523498535 6.201741218566895 23.77274131774902 4.365118980407715 C 28.26757431030273 2.463963508605957 33.04315185546875 1.499996900558472 37.966796875 1.499996900558472 C 42.89044189453125 1.499996900558472 47.66601943969727 2.463963508605957 52.16086196899414 4.365118980407715 C 56.50312042236328 6.201741218566895 60.4031867980957 8.831341743469238 63.75271987915039 12.18087482452393 C 67.10224914550781 15.53040790557861 69.73184967041016 19.43047523498535 71.56847381591797 23.77274131774902 C 73.46962738037109 28.26757431030273 74.43359375 33.04315185546875 74.43359375 37.966796875 C 74.43359375 42.89044189453125 73.46962738037109 47.66601943969727 71.56847381591797 52.16086196899414 C 69.73184967041016 56.50313186645508 67.10224914550781 60.4031867980957 63.75271987915039 63.75271987915039 C 60.4031867980957 67.10224914550781 56.50313186645508 69.73184967041016 52.16086196899414 71.56847381591797 C 47.66601943969727 73.46962738037109 42.89044189453125 74.43359375 37.966796875 74.43359375 Z" stroke="none"/>
                    <path d="M 37.966796875 3 C 33.2449836730957 3 28.66600799560547 3.924095153808594 24.35705947875977 5.746635437011719 C 20.19359588623047 7.507621765136719 16.45379638671875 10.02927398681641 13.24153518676758 13.24153518676758 C 10.02927398681641 16.45379638671875 7.507621765136719 20.19359588623047 5.746635437011719 24.35705947875977 C 3.924095153808594 28.66600799560547 3 33.2449836730957 3 37.966796875 C 3 42.6886100769043 3.924095153808594 47.26758575439453 5.746635437011719 51.57653427124023 C 7.507621765136719 55.73999786376953 10.02927398681641 59.47979736328125 13.24153518676758 62.69205856323242 C 16.45379638671875 65.90431976318359 20.19359588623047 68.42597198486328 24.35705947875977 70.18695831298828 C 28.66600799560547 72.00949859619141 33.2449836730957 72.93359375 37.966796875 72.93359375 C 42.6886100769043 72.93359375 47.26758575439453 72.00949859619141 51.57653427124023 70.18695831298828 C 55.73999786376953 68.42597198486328 59.47979736328125 65.90431976318359 62.69205856323242 62.69205856323242 C 65.90431976318359 59.47979736328125 68.42597198486328 55.73999786376953 70.18695831298828 51.57653427124023 C 72.00949859619141 47.26758575439453 72.93359375 42.6886100769043 72.93359375 37.966796875 C 72.93359375 33.2449836730957 72.00949859619141 28.66600799560547 70.18695831298828 24.35705947875977 C 68.42597198486328 20.19359588623047 65.90431976318359 16.45379638671875 62.69205856323242 13.24153518676758 C 59.47979736328125 10.02927398681641 55.73999786376953 7.507621765136719 51.57653427124023 5.746635437011719 C 47.26758575439453 3.924095153808594 42.6886100769043 3 37.966796875 3 M 37.966796875 0 C 58.93528366088867 0 75.93359375 16.99831008911133 75.93359375 37.966796875 C 75.93359375 58.93528366088867 58.93528366088867 75.93359375 37.966796875 75.93359375 C 16.99831008911133 75.93359375 0 58.93528366088867 0 37.966796875 C 0 16.99831008911133 16.99831008911133 0 37.966796875 0 Z" stroke="none" fill="#248abf"/>
                  </g>
                </g>
              </g>
            </g>
          </g>
        </g>
      </g>
    </g>
    <g id="together_7305149" transform="translate(203.961 6893.75)">
      <g id="Grupo_1225591" data-name="Grupo 1225591" transform="translate(7.5 27.25)">
        <path id="Trazado_1180690" data-name="Trazado 1180690" d="M151.058,42.367c0,8.053-5.5,14.067-13.554,14.067-3.309,0-6.362-.589-8.809-2.447a14.662,14.662,0,0,1-2.89-2.916c-1.81-2.429-1.855-5.441-1.855-8.7,0-4.785,1.279-9.032,4.84-11.691a14.5,14.5,0,0,1,7.175-2.809,14.964,14.964,0,0,1,1.54.022C145.556,27.89,151.058,34.315,151.058,42.367Z" transform="translate(-111.997 -27.787)" fill="#8ac9fe"/>
        <path id="Trazado_1180691" data-name="Trazado 1180691" d="M242.54,27.25a14.755,14.755,0,0,0-1.54.081,14.583,14.583,0,0,1,3.693,28.112,14.3,14.3,0,0,1-3.693.682,14.728,14.728,0,0,0,1.54.081,14.985,14.985,0,0,0,2.153.047,14.543,14.543,0,0,0,8.285-4.242c2.563-2.628,3.116-6.219,3.116-10.18,0-1.744.72-3.416.159-4.966A14.586,14.586,0,0,0,242.54,27.25Z" transform="translate(-217.033 -27.25)" fill="#60b7ff"/>
        <path id="Trazado_1180692" data-name="Trazado 1180692" d="M304.163,134.392c3.079-1.489,3.764-4.545,3.764-8.506,0-1.744.2-3.553-1.895-4.966h-5.246a.88.88,0,0,0-.88.88v3.632a.88.88,0,0,0,.88.88h1.01a.88.88,0,0,1,.88.88v5.349a.88.88,0,0,0,.258.622Z" transform="translate(-269.893 -111.306)" fill="#d1f19e"/>
        <path id="Trazado_1180693" data-name="Trazado 1180693" d="M346.331,120.92h-3.079a14.6,14.6,0,0,1-1.869,13.472l1.673,1.673a14.6,14.6,0,0,0,3.275-15.145Z" transform="translate(-307.113 -111.306)" fill="#bbec6c"/>
        <path id="Trazado_1180694" data-name="Trazado 1180694" d="M174.708,236.194l-4.522,4.522a14.508,14.508,0,0,0,7.272,2.881,14.954,14.954,0,0,0,1.536-.023,3.351,3.351,0,0,0,2.153-.865v-3.486a.88.88,0,0,0-.88-.88h-1.8a.88.88,0,0,1-.622-.258l-1.892-1.892A.88.88,0,0,0,174.708,236.194Z" transform="translate(-153.488 -214.516)" fill="#d1f19e"/>
        <path id="Trazado_1180695" data-name="Trazado 1180695" d="M244.693,302.728v-.81a14.489,14.489,0,0,1-3.693.887h0a14.727,14.727,0,0,0,3.689-.079Z" transform="translate(-217.033 -273.726)" fill="#bbec6c"/>
        <path id="Trazado_1180696" data-name="Trazado 1180696" d="M113.949,67.095a14.515,14.515,0,0,0,2.882,8.7l2.508-2.508a.88.88,0,0,0,.258-.622V67.448a.88.88,0,0,1,.258-.622l5.069-5.069a.88.88,0,0,0,0-1.245L119.815,55.4A14.559,14.559,0,0,0,113.949,67.095Z" transform="translate(-103.023 -52.514)" fill="#d1f19e"/>
        <path id="Trazado_1180697" data-name="Trazado 1180697" d="M352.967,353.46a1.846,1.846,0,0,1,1.846,1.811,1.886,1.886,0,0,1-1.894,1.881h-2.476c-.777,0-2.433.63-2.433,1.407h0a1.407,1.407,0,0,0,.412.995l4.2,4.2c.722.722,1.179,1.37.463,2.1-.362.368-.231.06-.709.06-.42,0-.839.884-1.18.6q-.064-.054-.125-.114l-3.132-3.132a1.055,1.055,0,0,0-1.492,0l-3.132,3.132a1.846,1.846,0,0,1-2.622-.012,1.877,1.877,0,0,1,.045-2.633l4.2-4.2a1.407,1.407,0,0,0,.412-.995h0a1.407,1.407,0,0,0-1.407-1.407h-3.207a1.886,1.886,0,0,1-1.894-1.881,1.846,1.846,0,0,1,1.846-1.811h12.285Z" transform="translate(-304.827 -319.977)" fill="#8ac9fe"/>
        <path id="Trazado_1180698" data-name="Trazado 1180698" d="M393.151,291.952c0-1.858-.48-3.262-2.338-3.262a3.406,3.406,0,0,0-.873.012,3.365,3.365,0,0,0,0,6.5,3.4,3.4,0,0,0,.873.012C392.671,295.213,393.151,293.81,393.151,291.952Z" transform="translate(-348.45 -261.833)" fill="#8ac9fe"/>
        <path id="Trazado_1180699" data-name="Trazado 1180699" d="M417.985,391.835a1.407,1.407,0,0,1-.412-.995h0a1.407,1.407,0,0,1,1.407-1.407h-2.361a1.407,1.407,0,0,0-1.407,1.407h0a1.407,1.407,0,0,0,.412.995l4.2,4.2a1.877,1.877,0,0,1,.045,2.633,1.845,1.845,0,0,1-.136.125,1.845,1.845,0,0,0,2.5-.125,1.877,1.877,0,0,0-.045-2.633Z" transform="translate(-373.364 -352.259)" fill="#60b7ff"/>
        <path id="Trazado_1180700" data-name="Trazado 1180700" d="M465.451,353.461h-2.361a1.846,1.846,0,0,1,1.846,1.811,1.885,1.885,0,0,1-1.894,1.881H465.4a1.886,1.886,0,0,0,1.894-1.881A1.846,1.846,0,0,0,465.451,353.461Z" transform="translate(-416.285 -319.978)" fill="#60b7ff"/>
        <path id="Trazado_1180701" data-name="Trazado 1180701" d="M412.6,287.907a3.369,3.369,0,0,0-.872.115,3.364,3.364,0,0,1,0,6.5,3.364,3.364,0,1,0,.872-6.614Z" transform="translate(-370.236 -261.153)" fill="#60b7ff"/>
        <path id="Trazado_1180702" data-name="Trazado 1180702" d="M187.3,353.46a1.846,1.846,0,0,1,1.846,1.811,1.886,1.886,0,0,1-1.894,1.881h-2.476c-.777,0-2.433.63-2.433,1.407h0a1.407,1.407,0,0,0,.412.995l4.2,4.2c.722.722,1.179,1.37.463,2.1-.362.368-.231.06-.709.06-.42,0-.839.884-1.181.6-.043-.036-.085-.074-.125-.114l-3.132-3.132a1.055,1.055,0,0,0-1.492,0l-3.132,3.132a1.846,1.846,0,0,1-2.622-.012,1.877,1.877,0,0,1,.045-2.633l4.2-4.2a1.406,1.406,0,0,0,.412-.995h0a1.407,1.407,0,0,0-1.407-1.407h-3.207a1.886,1.886,0,0,1-1.894-1.881,1.846,1.846,0,0,1,1.846-1.811H187.3Z" transform="translate(-156.164 -319.977)" fill="#fff0ad"/>
        <path id="Trazado_1180703" data-name="Trazado 1180703" d="M227.484,291.952c0-1.858-.48-3.262-2.338-3.262a3.406,3.406,0,0,0-.873.012,3.365,3.365,0,0,0,0,6.5,3.4,3.4,0,0,0,.873.012C227,295.213,227.484,293.81,227.484,291.952Z" transform="translate(-199.788 -261.833)" fill="#fff0ad"/>
        <path id="Trazado_1180704" data-name="Trazado 1180704" d="M252.319,391.835a1.407,1.407,0,0,1-.412-.995h0a1.407,1.407,0,0,1,1.407-1.407h-2.361a1.407,1.407,0,0,0-1.407,1.407h0a1.407,1.407,0,0,0,.412.995l4.2,4.2a1.877,1.877,0,0,1,.045,2.633c-.044.044-.089.086-.136.125a1.845,1.845,0,0,0,2.5-.125,1.877,1.877,0,0,0-.045-2.633Z" transform="translate(-224.702 -352.259)" fill="#ffe177"/>
        <path id="Trazado_1180705" data-name="Trazado 1180705" d="M299.784,353.461h-2.361a1.846,1.846,0,0,1,1.846,1.811,1.886,1.886,0,0,1-1.894,1.881h2.361a1.886,1.886,0,0,0,1.894-1.881A1.846,1.846,0,0,0,299.784,353.461Z" transform="translate(-267.622 -319.978)" fill="#ffe177"/>
        <path id="Trazado_1180706" data-name="Trazado 1180706" d="M246.931,287.907a3.37,3.37,0,0,0-.872.115,3.365,3.365,0,0,1,0,6.5,3.364,3.364,0,1,0,.872-6.614Z" transform="translate(-221.573 -261.153)" fill="#ffe177"/>
        <path id="Trazado_1180707" data-name="Trazado 1180707" d="M21.632,353.46a1.846,1.846,0,0,1,1.846,1.811,1.886,1.886,0,0,1-1.894,1.881H19.107c-.777,0-2.433.63-2.433,1.407h0a1.407,1.407,0,0,0,.412.995l4.2,4.2c.722.722,1.179,1.37.463,2.1-.362.368-.231.06-.709.06-.42,0-.839.884-1.18.6-.043-.036-.085-.074-.125-.114L16.6,363.263a1.055,1.055,0,0,0-1.492,0L11.976,366.4a1.846,1.846,0,0,1-2.622-.012,1.877,1.877,0,0,1,.045-2.633l4.2-4.2a1.407,1.407,0,0,0,.412-.995h0a1.407,1.407,0,0,0-1.407-1.407H9.395A1.886,1.886,0,0,1,7.5,355.271a1.846,1.846,0,0,1,1.846-1.811H21.632Z" transform="translate(-7.5 -319.977)" fill="#ff9797"/>
        <path id="Trazado_1180708" data-name="Trazado 1180708" d="M61.817,291.952c0-1.858-.48-3.262-2.338-3.262a3.406,3.406,0,0,0-.873.012,3.365,3.365,0,0,0,0,6.5,3.4,3.4,0,0,0,.873.012C61.337,295.213,61.817,293.81,61.817,291.952Z" transform="translate(-51.125 -261.833)" fill="#ff9797"/>
        <path id="Trazado_1180709" data-name="Trazado 1180709" d="M86.652,391.835a1.407,1.407,0,0,1-.412-.995h0a1.407,1.407,0,0,1,1.407-1.407H85.286a1.407,1.407,0,0,0-1.407,1.407h0a1.407,1.407,0,0,0,.412.995l4.2,4.2a1.877,1.877,0,0,1,.045,2.633c-.044.044-.089.086-.136.125a1.845,1.845,0,0,0,2.5-.125,1.877,1.877,0,0,0-.045-2.633Z" transform="translate(-76.039 -352.259)" fill="#ff7d7d"/>
        <path id="Trazado_1180710" data-name="Trazado 1180710" d="M134.117,353.461h-2.361a1.846,1.846,0,0,1,1.846,1.811,1.886,1.886,0,0,1-1.894,1.881h2.361a1.886,1.886,0,0,0,1.894-1.881A1.846,1.846,0,0,0,134.117,353.461Z" transform="translate(-118.959 -319.978)" fill="#ff7d7d"/>
        <path id="Trazado_1180711" data-name="Trazado 1180711" d="M81.264,287.907a3.37,3.37,0,0,0-.872.115,3.365,3.365,0,0,1,0,6.5,3.364,3.364,0,1,0,.872-6.614Z" transform="translate(-72.91 -261.153)" fill="#ff7d7d"/>
      </g>
      <g id="Grupo_1225592" data-name="Grupo 1225592" transform="translate(7.5 27.25)">
        <path id="Trazado_1180712" data-name="Trazado 1180712" d="M308.906,120.92h-8.12a.88.88,0,0,0-.88.88v3.632a.88.88,0,0,0,.88.88h1.01a.88.88,0,0,1,.88.88v5.349a.88.88,0,0,0,.258.622l2.76,2.76" transform="translate(-269.893 -111.306)" fill="none" stroke="#000" stroke-linecap="round" stroke-linejoin="round" stroke-miterlimit="10" stroke-width="1"/>
        <path id="Trazado_1180713" data-name="Trazado 1180713" d="M183.081,241.977v-2.753a.88.88,0,0,0-.88-.88h-1.8a.88.88,0,0,1-.622-.258l-1.892-1.892a.88.88,0,0,0-1.245,0l-4.3,4.3" transform="translate(-155.421 -214.517)" fill="none" stroke="#000" stroke-linecap="round" stroke-linejoin="round" stroke-miterlimit="10" stroke-width="1"/>
        <circle id="Elipse_14569" data-name="Elipse 14569" cx="3.364" cy="3.364" r="3.364" transform="translate(38.999 26.754)" fill="none" stroke="#000" stroke-linecap="round" stroke-linejoin="round" stroke-miterlimit="10" stroke-width="1"/>
        <path id="Trazado_1180714" data-name="Trazado 1180714" d="M188.325,353.461a1.846,1.846,0,0,1,1.846,1.811,1.886,1.886,0,0,1-1.894,1.881h-3.5a1.407,1.407,0,0,0-1.407,1.407h0a1.407,1.407,0,0,0,.412.995l4.2,4.2a1.877,1.877,0,0,1,.045,2.633,1.846,1.846,0,0,1-2.622.011l-3.132-3.132a1.055,1.055,0,0,0-1.492,0l-3.132,3.132a1.846,1.846,0,0,1-2.622-.011,1.877,1.877,0,0,1,.045-2.633l4.2-4.2a1.407,1.407,0,0,0,.412-.995h0a1.407,1.407,0,0,0-1.407-1.407h-3.207a1.886,1.886,0,0,1-1.894-1.881,1.846,1.846,0,0,1,1.846-1.811Z" transform="translate(-156.163 -319.978)" fill="none" stroke="#000" stroke-linecap="round" stroke-linejoin="round" stroke-miterlimit="10" stroke-width="1"/>
        <circle id="Elipse_14570" data-name="Elipse 14570" cx="3.364" cy="3.364" r="3.364" transform="translate(21.994 26.754)" fill="none" stroke="#000" stroke-linecap="round" stroke-linejoin="round" stroke-miterlimit="10" stroke-width="1"/>
        <path id="Trazado_1180715" data-name="Trazado 1180715" d="M22.658,353.461a1.846,1.846,0,0,1,1.846,1.811,1.886,1.886,0,0,1-1.894,1.881h-3.5A1.407,1.407,0,0,0,17.7,358.56h0a1.407,1.407,0,0,0,.412.995l4.2,4.2a1.877,1.877,0,0,1,.045,2.633,1.846,1.846,0,0,1-2.622.011L16.6,363.264a1.055,1.055,0,0,0-1.492,0L11.976,366.4a1.846,1.846,0,0,1-2.622-.011,1.877,1.877,0,0,1,.045-2.633l4.2-4.2a1.407,1.407,0,0,0,.412-.995h0a1.407,1.407,0,0,0-1.407-1.407H9.395A1.886,1.886,0,0,1,7.5,355.272a1.846,1.846,0,0,1,1.846-1.811Z" transform="translate(-7.5 -319.978)" fill="none" stroke="#000" stroke-linecap="round" stroke-linejoin="round" stroke-miterlimit="10" stroke-width="1"/>
        <path id="Trazado_1180716" data-name="Trazado 1180716" d="M60.514,293.013a3.364,3.364,0,1,0-.038-3.42" transform="translate(-55.038 -261.152)" fill="none" stroke="#000" stroke-linecap="round" stroke-linejoin="round" stroke-miterlimit="10" stroke-width="1"/>
        <path id="Trazado_1180717" data-name="Trazado 1180717" d="M344.1,360.385l.83-.83a1.407,1.407,0,0,0,.412-.995h0a1.407,1.407,0,0,0-1.407-1.407h-3.207a1.886,1.886,0,0,1-1.894-1.881,1.846,1.846,0,0,1,1.846-1.811h13.312a1.846,1.846,0,0,1,1.846,1.811,1.885,1.885,0,0,1-1.894,1.881h-3.5a1.407,1.407,0,0,0-1.407,1.407h0a1.407,1.407,0,0,0,.412.995l4.2,4.2a1.877,1.877,0,0,1,.045,2.633,1.846,1.846,0,0,1-2.622.011l-3.132-3.132a1.055,1.055,0,0,0-1.492,0L343.31,366.4a1.846,1.846,0,0,1-2.622-.011,1.877,1.877,0,0,1,.045-2.633l.995-.995" transform="translate(-304.824 -319.978)" fill="none" stroke="#000" stroke-linecap="round" stroke-linejoin="round" stroke-miterlimit="10" stroke-width="1"/>
        <path id="Trazado_1180718" data-name="Trazado 1180718" d="M125.181,56.025a14.581,14.581,0,1,1,6.451.055" transform="translate(-103.023 -27.25)" fill="none" stroke="#000" stroke-linecap="round" stroke-linejoin="round" stroke-miterlimit="10" stroke-width="1"/>
        <path id="Trazado_1180719" data-name="Trazado 1180719" d="M176.075,64.164l1.27-1.27a.88.88,0,0,0,0-1.245l-4.979-4.979" transform="translate(-155.444 -53.65)" fill="none" stroke="#000" stroke-linecap="round" stroke-linejoin="round" stroke-miterlimit="10" stroke-width="1"/>
        <path id="Trazado_1180720" data-name="Trazado 1180720" d="M143.447,163.042l2.363-2.363a.88.88,0,0,0,.258-.622v-5.219a.88.88,0,0,1,.258-.622l1.426-1.426" transform="translate(-129.493 -139.903)" fill="none" stroke="#000" stroke-linecap="round" stroke-linejoin="round" stroke-miterlimit="10" stroke-width="1"/>
      </g>
    </g>
  </g>
</svg>
