<svg xmlns="http://www.w3.org/2000/svg" xmlns:xlink="http://www.w3.org/1999/xlink" width="113" height="113" viewBox="0 0 113 113">
  <defs>
    <filter id="Trazado_982547" x="0" y="0" width="113" height="113" filterUnits="userSpaceOnUse">
      <feOffset dy="3" input="SourceAlpha"/>
      <feGaussianBlur stdDeviation="3" result="blur"/>
      <feFlood flood-opacity="0.161"/>
      <feComposite operator="in" in2="blur"/>
      <feComposite in="SourceGraphic"/>
    </filter>
  </defs>
  <g id="Grupo_1225804" data-name="Grupo 1225804" transform="translate(-323 -5261.356)">
    <g id="Grupo_1223775" data-name="Grupo 1223775" transform="translate(-1 -642.718)">
      <g id="Grupo_1206275" data-name="Grupo 1206275" transform="translate(0 -3448.335)">
        <g id="Grupo_1203802" data-name="Grupo 1203802" transform="translate(0.5 6552.41)">
          <g id="Grupo_1202424" data-name="Grupo 1202424" transform="translate(0 1464)">
            <g id="Grupo_1178325" data-name="Grupo 1178325" transform="translate(0 424)">
              <g id="Grupo_1177679" data-name="Grupo 1177679" transform="translate(332.5 918)">
                <g id="Grupo_1172010" data-name="Grupo 1172010">
                  <g id="Grupo_1171046" data-name="Grupo 1171046">
                    <g id="Grupo_1148525" data-name="Grupo 1148525">
                      <g transform="matrix(1, 0, 0, 1, -9, -6)" filter="url(#Trazado_982547)">
                        <g id="Trazado_982547-2" data-name="Trazado 982547" transform="translate(9 6)" fill="#f9e3d4">
                          <path d="M 47.5 93.5 C 41.28937149047852 93.5 35.26533508300781 92.28397369384766 29.59518623352051 89.88570404052734 C 24.11771965026855 87.56893157958984 19.19813346862793 84.25196075439453 14.97309303283691 80.02691650390625 C 10.74804019927979 75.80186462402344 7.431066513061523 70.88229370117188 5.114293098449707 65.40481567382812 C 2.716026782989502 59.73468017578125 1.5 53.71062850952148 1.5 47.5 C 1.5 41.28937149047852 2.716026782989502 35.26533508300781 5.114293098449707 29.59518623352051 C 7.431066513061523 24.11771965026855 10.74804019927979 19.19813346862793 14.97309303283691 14.97309303283691 C 19.19813346862793 10.74804019927979 24.11771965026855 7.431066513061523 29.59518623352051 5.114293098449707 C 35.26533508300781 2.716026782989502 41.28937149047852 1.5 47.5 1.5 C 53.71062850952148 1.5 59.73468017578125 2.716026782989502 65.40481567382812 5.114293098449707 C 70.88229370117188 7.431066513061523 75.80186462402344 10.74804019927979 80.02691650390625 14.97309303283691 C 84.25196075439453 19.19813346862793 87.56893157958984 24.11771965026855 89.88570404052734 29.59518623352051 C 92.28397369384766 35.26533508300781 93.5 41.28937149047852 93.5 47.5 C 93.5 53.71062850952148 92.28397369384766 59.73468017578125 89.88570404052734 65.40481567382812 C 87.56893157958984 70.88229370117188 84.25196075439453 75.80186462402344 80.02691650390625 80.02691650390625 C 75.80186462402344 84.25196075439453 70.88229370117188 87.56893157958984 65.40481567382812 89.88570404052734 C 59.73468017578125 92.28397369384766 53.71062850952148 93.5 47.5 93.5 Z" stroke="none"/>
                          <path d="M 47.5 3 C 41.49121475219727 3 35.66376876831055 4.176155090332031 30.17950439453125 6.495796203613281 C 24.88084411621094 8.736953735351562 20.12152099609375 11.94598388671875 16.03375244140625 16.03375244140625 C 11.94598388671875 20.12152099609375 8.736953735351562 24.88084411621094 6.495796203613281 30.17950439453125 C 4.176155090332031 35.66376876831055 3 41.49121475219727 3 47.5 C 3 53.50878524780273 4.176155090332031 59.33623123168945 6.495796203613281 64.82049560546875 C 8.736953735351562 70.11915588378906 11.94598388671875 74.87847900390625 16.03375244140625 78.96624755859375 C 20.12152099609375 83.05401611328125 24.88084411621094 86.26304626464844 30.17950439453125 88.50419616699219 C 35.66376876831055 90.82384490966797 41.49121475219727 92 47.5 92 C 53.50878524780273 92 59.33623123168945 90.82384490966797 64.82049560546875 88.50419616699219 C 70.11915588378906 86.26304626464844 74.87847900390625 83.05401611328125 78.96624755859375 78.96624755859375 C 83.05401611328125 74.87847900390625 86.26304626464844 70.11915588378906 88.50419616699219 64.82049560546875 C 90.82384490966797 59.33623123168945 92 53.50878524780273 92 47.5 C 92 41.49121475219727 90.82384490966797 35.66376876831055 88.50419616699219 30.17950439453125 C 86.26304626464844 24.88084411621094 83.05401611328125 20.12152099609375 78.96624755859375 16.03375244140625 C 74.87847900390625 11.94598388671875 70.11915588378906 8.736953735351562 64.82049560546875 6.495796203613281 C 59.33623123168945 4.176155090332031 53.50878524780273 3 47.5 3 M 47.5 0 C 73.7335205078125 0 95 21.2664794921875 95 47.5 C 95 73.7335205078125 73.7335205078125 95 47.5 95 C 21.2664794921875 95 0 73.7335205078125 0 47.5 C 0 21.2664794921875 21.2664794921875 0 47.5 0 Z" stroke="none" fill="#eca675"/>
                        </g>
                      </g>
                    </g>
                  </g>
                </g>
              </g>
            </g>
          </g>
        </g>
      </g>
    </g>
    <g id="esclavo" transform="translate(345.86 5279.827)">
      <g id="Grupo_1225802" data-name="Grupo 1225802" transform="translate(0.986 0.986)">
        <path id="Trazado_1182829" data-name="Trazado 1182829" d="M173.131,104.159h22.7v52.607h-22.7Z" transform="translate(-151.366 -91.457)" fill="#ea9b58"/>
        <path id="Trazado_1182830" data-name="Trazado 1182830" d="M173.131,114.489c.125.007.251.01.378.01a7.067,7.067,0,0,0,3.226-.777,7.093,7.093,0,0,0,6.3,0,7.088,7.088,0,0,0,6.414.019,7.089,7.089,0,0,0,6.376,0v-9.583h-22.7Z" transform="translate(-151.366 -91.457)" fill="#d88a55"/>
        <g id="Grupo_1225800" data-name="Grupo 1225800" transform="translate(18.954)">
          <path id="Trazado_1182831" data-name="Trazado 1182831" d="M300.507,47.735a3.188,3.188,0,0,1-3.188-3.188V35a3.188,3.188,0,0,1,6.377,0v9.545A3.188,3.188,0,0,1,300.507,47.735Z" transform="translate(-278.19 -28.619)" fill="#ffbd86"/>
          <path id="Trazado_1182832" data-name="Trazado 1182832" d="M251.982,31.371a3.188,3.188,0,0,1-3.188-3.188V16.162a3.188,3.188,0,0,1,6.377,0v12.02A3.188,3.188,0,0,1,251.982,31.371Z" transform="translate(-236.041 -12.255)" fill="#ffbd86"/>
          <path id="Trazado_1182833" data-name="Trazado 1182833" d="M154.932,31.371a3.188,3.188,0,0,1-3.188-3.188V16.162a3.188,3.188,0,0,1,6.377,0v12.02A3.188,3.188,0,0,1,154.932,31.371Z" transform="translate(-151.744 -12.255)" fill="#ffbd86"/>
          <path id="Trazado_1182834" data-name="Trazado 1182834" d="M203.457,26.578a3.188,3.188,0,0,1-3.188-3.188v-12.7a3.188,3.188,0,0,1,6.377,0v12.7a3.188,3.188,0,0,1-3.188,3.188Z" transform="translate(-193.893 -7.5)" fill="#ffbd86"/>
        </g>
        <path id="Trazado_1182835" data-name="Trazado 1182835" d="M128.65,110.535h7.912a3.238,3.238,0,0,0,3.263-3.072,3.188,3.188,0,0,0-3.186-3.3h-9.651a5.425,5.425,0,0,0-5.425,5.425v7.334a8.322,8.322,0,0,0,8.322,8.322h6.754v-4.628a6.879,6.879,0,0,0-4.381-6.409l-1.692-.659a2.738,2.738,0,0,1-1.676-1.947Z" transform="translate(-106.574 -91.457)" fill="#ea9b58"/>
        <g id="Grupo_1225801" data-name="Grupo 1225801" transform="translate(0 40.087)">
          <path id="Trazado_1182836" data-name="Trazado 1182836" d="M381.661,318.937a6.372,6.372,0,0,0-6.372-6.372h-5.841a6.372,6.372,0,0,0,0,12.743h5.841A6.372,6.372,0,0,0,381.661,318.937Zm-4.248,0a2.126,2.126,0,0,1-2.124,2.124h-5.841a2.124,2.124,0,0,1,0-4.248h5.841A2.126,2.126,0,0,1,377.413,318.937Z" transform="translate(-316.352 -312.565)" fill="#cbc4cc"/>
          <path id="Trazado_1182837" data-name="Trazado 1182837" d="M431.444,312.566h-3.717a6.372,6.372,0,0,1,0,12.743h3.717a6.372,6.372,0,0,0,0-12.743Z" transform="translate(-372.507 -312.566)" fill="#b5adb6"/>
          <path id="Trazado_1182838" data-name="Trazado 1182838" d="M283.368,319.044a2.165,2.165,0,0,1-2.183,2.016h-3.92a1.062,1.062,0,0,0-1.062,1.062v2.124a1.062,1.062,0,0,0,1.062,1.062h3.982a6.372,6.372,0,0,0,6.371-6.328,6.478,6.478,0,0,0-6.484-6.415h-3.864a1.062,1.062,0,0,0-1.062,1.06l0,2.124a1.062,1.062,0,0,0,1.062,1.064h3.98A2.127,2.127,0,0,1,283.368,319.044Z" transform="translate(-240.894 -312.565)" fill="#cbc4cc"/>
          <path id="Trazado_1182839" data-name="Trazado 1182839" d="M289.163,312.566h-3.717a6.478,6.478,0,0,1,6.484,6.415,6.372,6.372,0,0,1-6.371,6.328h3.717a6.372,6.372,0,0,0,6.371-6.328A6.478,6.478,0,0,0,289.163,312.566Z" transform="translate(-248.922 -312.566)" fill="#b5adb6"/>
          <path id="Trazado_1182840" data-name="Trazado 1182840" d="M313.366,344.891H300.623a2.124,2.124,0,0,0,0,4.248h12.743a2.124,2.124,0,0,0,0-4.248Z" transform="translate(-260.26 -340.643)" fill="#a79ba7"/>
          <path id="Trazado_1182841" data-name="Trazado 1182841" d="M387.07,344.891h-3.717a2.124,2.124,0,0,1,0,4.248h3.717a2.124,2.124,0,0,0,0-4.248Z" transform="translate(-333.964 -340.643)" fill="#918291"/>
          <path id="Trazado_1182842" data-name="Trazado 1182842" d="M13.872,325.308h5.841a6.372,6.372,0,1,0,0-12.743H13.872a6.372,6.372,0,1,0,0,12.743Zm0-8.5h5.841a2.124,2.124,0,0,1,0,4.248H13.872a2.124,2.124,0,0,1,0-4.248Z" transform="translate(-7.5 -312.565)" fill="#cbc4cc"/>
          <path id="Trazado_1182843" data-name="Trazado 1182843" d="M75.867,312.566H72.15a6.372,6.372,0,0,1,0,12.743h3.717a6.372,6.372,0,0,0,0-12.743Z" transform="translate(-63.655 -312.566)" fill="#b5adb6"/>
          <path id="Trazado_1182844" data-name="Trazado 1182844" d="M155.355,316.814h3.92a1.062,1.062,0,0,0,1.062-1.062v-2.124a1.062,1.062,0,0,0-1.062-1.062h-3.87a6.478,6.478,0,0,0-6.484,6.415,6.372,6.372,0,0,0,6.371,6.328h3.982a1.062,1.062,0,0,0,1.062-1.062v-2.124a1.062,1.062,0,0,0-1.062-1.062h-3.982a2.126,2.126,0,0,1-2.121-2.232A2.165,2.165,0,0,1,155.355,316.814Z" transform="translate(-130.338 -312.566)" fill="#cbc4cc"/>
          <path id="Trazado_1182845" data-name="Trazado 1182845" d="M203.147,312.566H199.43a1.062,1.062,0,0,1,1.062,1.062v2.124a1.062,1.062,0,0,1-1.062,1.062h3.717a1.062,1.062,0,0,0,1.062-1.062v-2.124A1.062,1.062,0,0,0,203.147,312.566Z" transform="translate(-174.209 -312.566)" fill="#b5adb6"/>
          <path id="Trazado_1182846" data-name="Trazado 1182846" d="M203.147,377.216H199.43a1.062,1.062,0,0,1,1.062,1.062V380.4a1.062,1.062,0,0,1-1.062,1.062h3.717a1.062,1.062,0,0,0,1.062-1.062v-2.124A1.062,1.062,0,0,0,203.147,377.216Z" transform="translate(-174.209 -368.72)" fill="#b5adb6"/>
          <path id="Trazado_1182847" data-name="Trazado 1182847" d="M86.323,344.891H99.066a2.124,2.124,0,0,1,0,4.248H86.323a2.124,2.124,0,0,1,0-4.248Z" transform="translate(-74.12 -340.643)" fill="#a79ba7"/>
          <path id="Trazado_1182848" data-name="Trazado 1182848" d="M172.769,344.891h-3.717a2.124,2.124,0,1,1,0,4.248h3.717a2.124,2.124,0,1,0,0-4.248Z" transform="translate(-147.823 -340.643)" fill="#918291"/>
        </g>
      </g>
      <g id="Grupo_1225803" data-name="Grupo 1225803" transform="translate(0 0)">
        <path id="Trazado_1182849" data-name="Trazado 1182849" d="M126.1,22.812l-1.69-.658a1.754,1.754,0,0,1-1.036-1.106h6.675a4.3,4.3,0,0,0,2.453-.759,4.167,4.167,0,0,0,5.642-.686,4.164,4.164,0,0,0,5.39.854v6.136a.986.986,0,0,0,1.971,0V7.369A4.172,4.172,0,0,0,139.008,3.9a4.171,4.171,0,0,0-6.944-2.017,4.169,4.169,0,0,0-6.975,0,4.171,4.171,0,0,0-7.063,3.008v8.294a6.419,6.419,0,0,0-3.966,5.925v.951a.986.986,0,0,0,1.971,0v-.951a4.444,4.444,0,0,1,4.439-4.439h9.652a2.2,2.2,0,0,1,2.2,2.283,2.261,2.261,0,0,1-2.277,2.122h-7.915a.986.986,0,0,0-.961,1.2l.24,1.062a3.724,3.724,0,0,0,2.28,2.648l1.691.658a5.856,5.856,0,0,1,3.753,5.492.986.986,0,0,0,1.971,0,7.815,7.815,0,0,0-5.009-7.328ZM141.33,5.166a2.205,2.205,0,0,1,2.2,2.2v9.545a2.2,2.2,0,0,1-4.405,0V7.366a2.205,2.205,0,0,1,2.2-2.2ZM134.953,2.69a2.2,2.2,0,0,1,2.2,2.2v12.02h0a2.2,2.2,0,0,1-3.334,1.889,4.166,4.166,0,0,0-.7-4.826,4.259,4.259,0,0,0-.376-.344V4.882a2.206,2.206,0,0,1,2.2-2.192ZM120,12.721V4.893a2.2,2.2,0,1,1,4.405,0V12.7H120.47C120.311,12.7,120.154,12.71,120,12.721Zm6.376-.019V4.174a2.2,2.2,0,0,1,4.406,0v8.579a4.252,4.252,0,0,0-.657-.051Z" transform="translate(-99.072 0)"/>
        <path id="Trazado_1182850" data-name="Trazado 1182850" d="M299.993,244.106a.985.985,0,1,0-1.788.829,5.336,5.336,0,0,1,.5,2.261,5.392,5.392,0,0,1-5.386,5.385h-5.841A5.345,5.345,0,0,1,283.666,251a5.423,5.423,0,0,1-.589-.7h10.238a3.109,3.109,0,0,0,0-6.219h-10.24a5.4,5.4,0,0,1,4.4-2.276h5.841a5.339,5.339,0,0,1,2.138.442.986.986,0,0,0,.784-1.808,7.3,7.3,0,0,0-2.923-.6h-5.841a7.373,7.373,0,0,0-6.371,3.677,7.344,7.344,0,0,0-1.279-1.629V230.956a.986.986,0,1,0-1.971,0v9.581a7.338,7.338,0,0,0-3.121-.7h-3.976a2.051,2.051,0,0,0-2.047,2.044l0,2.124a2.048,2.048,0,0,0,2.048,2.051h1.1a3.1,3.1,0,0,0,0,2.277h-1.1a2.05,2.05,0,0,0-2.047,2.047v2.124a2.05,2.05,0,0,0,2.047,2.048h3.982a7.333,7.333,0,0,0,3.122-.691v12.183a.986.986,0,1,0,1.971,0V252.5c.036-.035.074-.069.11-.1a7.412,7.412,0,0,0,1.169-1.528,7.421,7.421,0,0,0,1.169,1.528,7.3,7.3,0,0,0,5.2,2.155h5.841a7.365,7.365,0,0,0,7.357-7.356,7.289,7.289,0,0,0-.678-3.09Zm-5.54,3.09a1.14,1.14,0,0,1-1.138,1.138h-2.938a3.1,3.1,0,0,0,0-2.277h2.938A1.14,1.14,0,0,1,294.453,247.2ZM270.7,244.064a.073.073,0,0,1-.022-.054l0-2.124a.077.077,0,0,1,.076-.076h3.976a5.4,5.4,0,0,1,4.4,2.276h-8.379A.072.072,0,0,1,270.7,244.064Zm4.044,1.994h12.754a1.138,1.138,0,0,1-.01,2.276H274.74a1.138,1.138,0,0,1-.01-2.276Zm-3.991,6.524a.077.077,0,0,1-.076-.076v-2.124a.076.076,0,0,1,.076-.076h8.38a5.417,5.417,0,0,1-.589.7,5.346,5.346,0,0,1-3.808,1.577h-3.982Z" transform="translate(-233.392 -199.751)"/>
        <path id="Trazado_1182851" data-name="Trazado 1182851" d="M29.923,196.679H25.941a7.329,7.329,0,0,0-2.206.34v-5.8a.985.985,0,0,0-.778-.962l-.01,0-.015,0a7.334,7.334,0,0,1-5.973-7.209v-1.771a.986.986,0,1,0-1.971,0v1.771A9.309,9.309,0,0,0,21.764,192v5.987a7.365,7.365,0,0,0-2.2,2.377,7.412,7.412,0,0,0-1.167-1.525,7.3,7.3,0,0,0-5.2-2.155H7.357a7.357,7.357,0,0,0,0,14.714H13.2a7.373,7.373,0,0,0,6.373-3.681,7.337,7.337,0,0,0,2.193,2.381v12.792a.986.986,0,0,0,1.971,0V211.057a7.379,7.379,0,0,0,2.206.336h3.982a2.05,2.05,0,0,0,2.048-2.048v-2.124a2.05,2.05,0,0,0-2.048-2.047h-1.1a3.1,3.1,0,0,0,0-2.277h1.1a2.05,2.05,0,0,0,2.048-2.048v-2.124A2.05,2.05,0,0,0,29.923,196.679ZM13.2,209.422H7.357a5.386,5.386,0,1,1,0-10.772H13.2a5.346,5.346,0,0,1,3.808,1.578,5.411,5.411,0,0,1,.588.7H7.357a3.109,3.109,0,1,0,0,6.219H17.6A5.4,5.4,0,0,1,13.2,209.422ZM10.3,202.9a3.1,3.1,0,0,0,0,2.277H7.357a1.138,1.138,0,1,1,0-2.277ZM30,207.222v2.124a.077.077,0,0,1-.076.076H25.941a5.346,5.346,0,0,1-3.808-1.578,5.416,5.416,0,0,1-.589-.7h8.38a.076.076,0,0,1,.076.076Zm-2.93-3.186a1.14,1.14,0,0,1-1.138,1.138H13.188a1.138,1.138,0,0,1-.01-2.276H25.941a1.14,1.14,0,0,1,1.128,1.138ZM30,200.85a.077.077,0,0,1-.076.076H21.542a5.4,5.4,0,0,1,4.4-2.276h3.982a.077.077,0,0,1,.076.076Z" transform="translate(0 -156.591)"/>
        <path id="Trazado_1182852" data-name="Trazado 1182852" d="M249.486,248.4a.986.986,0,0,0-.986.986v1.593a.986.986,0,0,0,1.971,0v-1.593A.986.986,0,0,0,249.486,248.4Z" transform="translate(-215.846 -215.757)"/>
        <path id="Trazado_1182853" data-name="Trazado 1182853" d="M278.8,259.888a.985.985,0,0,0-1.346.361l-1.062,1.839a.986.986,0,1,0,1.707.986l1.062-1.839A.985.985,0,0,0,278.8,259.888Z" transform="translate(-239.96 -225.622)"/>
        <path id="Trazado_1182854" data-name="Trazado 1182854" d="M214.7,263.567a.986.986,0,0,0,.853-1.478l-1.062-1.839a.986.986,0,1,0-1.707.986l1.062,1.839A.985.985,0,0,0,214.7,263.567Z" transform="translate(-184.708 -225.623)"/>
        <path id="Trazado_1182855" data-name="Trazado 1182855" d="M249.486,446.586a.986.986,0,0,0-.986.986v1.593a.986.986,0,0,0,1.971,0v-1.593A.986.986,0,0,0,249.486,446.586Z" transform="translate(-215.846 -387.902)"/>
        <path id="Trazado_1182856" data-name="Trazado 1182856" d="M278.1,433.844a.986.986,0,1,0-1.707.986l1.062,1.839a.986.986,0,0,0,1.707-.986Z" transform="translate(-239.961 -376.406)"/>
        <path id="Trazado_1182857" data-name="Trazado 1182857" d="M215.192,433.483a.985.985,0,0,0-1.346.361l-1.062,1.839a.986.986,0,1,0,1.707.986l1.062-1.839A.985.985,0,0,0,215.192,433.483Z" transform="translate(-184.708 -376.406)"/>
      </g>
    </g>
  </g>
</svg>
