<svg xmlns="http://www.w3.org/2000/svg" xmlns:xlink="http://www.w3.org/1999/xlink" width="113" height="113" viewBox="0 0 113 113">
  <defs>
    <filter id="Trazado_982547" x="0" y="0" width="113" height="113" filterUnits="userSpaceOnUse">
      <feOffset dy="3" input="SourceAlpha"/>
      <feGaussianBlur stdDeviation="3" result="blur"/>
      <feFlood flood-opacity="0.161"/>
      <feComposite operator="in" in2="blur"/>
      <feComposite in="SourceGraphic"/>
    </filter>
  </defs>
  <g id="Grupo_1225799" data-name="Grupo 1225799" transform="translate(-1163 -5260.946)">
    <g id="Grupo_1223779" data-name="Grupo 1223779" transform="translate(0 -642.718)">
      <g id="Grupo_1206283" data-name="Grupo 1206283" transform="translate(0 -3448.335)">
        <g id="Grupo_1203804" data-name="Grupo 1203804" transform="translate(-1 6552)">
          <g id="Grupo_1202426" data-name="Grupo 1202426" transform="translate(0.5 1464)">
            <g id="Grupo_1178323" data-name="Grupo 1178323" transform="translate(0 424)">
              <g id="Grupo_1177681" data-name="Grupo 1177681" transform="translate(1172.5 918)">
                <g id="Grupo_1172010" data-name="Grupo 1172010">
                  <g id="Grupo_1171046" data-name="Grupo 1171046">
                    <g id="Grupo_1148525" data-name="Grupo 1148525">
                      <g transform="matrix(1, 0, 0, 1, -9, -6)" filter="url(#Trazado_982547)">
                        <g id="Trazado_982547-2" data-name="Trazado 982547" transform="translate(9 6)" fill="#f9e3d4">
                          <path d="M 47.5 93.5 C 41.28937149047852 93.5 35.26533508300781 92.28397369384766 29.59518623352051 89.88570404052734 C 24.11771965026855 87.56893157958984 19.19813346862793 84.25196075439453 14.97309303283691 80.02691650390625 C 10.74804019927979 75.80186462402344 7.431066513061523 70.88229370117188 5.114293098449707 65.40481567382812 C 2.716026782989502 59.73468017578125 1.5 53.71062850952148 1.5 47.5 C 1.5 41.28937149047852 2.716026782989502 35.26533508300781 5.114293098449707 29.59518623352051 C 7.431066513061523 24.11771965026855 10.74804019927979 19.19813346862793 14.97309303283691 14.97309303283691 C 19.19813346862793 10.74804019927979 24.11771965026855 7.431066513061523 29.59518623352051 5.114293098449707 C 35.26533508300781 2.716026782989502 41.28937149047852 1.5 47.5 1.5 C 53.71062850952148 1.5 59.73468017578125 2.716026782989502 65.40481567382812 5.114293098449707 C 70.88229370117188 7.431066513061523 75.80186462402344 10.74804019927979 80.02691650390625 14.97309303283691 C 84.25196075439453 19.19813346862793 87.56893157958984 24.11771965026855 89.88570404052734 29.59518623352051 C 92.28397369384766 35.26533508300781 93.5 41.28937149047852 93.5 47.5 C 93.5 53.71062850952148 92.28397369384766 59.73468017578125 89.88570404052734 65.40481567382812 C 87.56893157958984 70.88229370117188 84.25196075439453 75.80186462402344 80.02691650390625 80.02691650390625 C 75.80186462402344 84.25196075439453 70.88229370117188 87.56893157958984 65.40481567382812 89.88570404052734 C 59.73468017578125 92.28397369384766 53.71062850952148 93.5 47.5 93.5 Z" stroke="none"/>
                          <path d="M 47.5 3 C 41.49121475219727 3 35.66376876831055 4.176155090332031 30.17950439453125 6.495796203613281 C 24.88084411621094 8.736953735351562 20.12152099609375 11.94598388671875 16.03375244140625 16.03375244140625 C 11.94598388671875 20.12152099609375 8.736953735351562 24.88084411621094 6.495796203613281 30.17950439453125 C 4.176155090332031 35.66376876831055 3 41.49121475219727 3 47.5 C 3 53.50878524780273 4.176155090332031 59.33623123168945 6.495796203613281 64.82049560546875 C 8.736953735351562 70.11915588378906 11.94598388671875 74.87847900390625 16.03375244140625 78.96624755859375 C 20.12152099609375 83.05401611328125 24.88084411621094 86.26304626464844 30.17950439453125 88.50419616699219 C 35.66376876831055 90.82384490966797 41.49121475219727 92 47.5 92 C 53.50878524780273 92 59.33623123168945 90.82384490966797 64.82049560546875 88.50419616699219 C 70.11915588378906 86.26304626464844 74.87847900390625 83.05401611328125 78.96624755859375 78.96624755859375 C 83.05401611328125 74.87847900390625 86.26304626464844 70.11915588378906 88.50419616699219 64.82049560546875 C 90.82384490966797 59.33623123168945 92 53.50878524780273 92 47.5 C 92 41.49121475219727 90.82384490966797 35.66376876831055 88.50419616699219 30.17950439453125 C 86.26304626464844 24.88084411621094 83.05401611328125 20.12152099609375 78.96624755859375 16.03375244140625 C 74.87847900390625 11.94598388671875 70.11915588378906 8.736953735351562 64.82049560546875 6.495796203613281 C 59.33623123168945 4.176155090332031 53.50878524780273 3 47.5 3 M 47.5 0 C 73.7335205078125 0 95 21.2664794921875 95 47.5 C 95 73.7335205078125 73.7335205078125 95 47.5 95 C 21.2664794921875 95 0 73.7335205078125 0 47.5 C 0 21.2664794921875 21.2664794921875 0 47.5 0 Z" stroke="none" fill="#eca675"/>
                        </g>
                      </g>
                    </g>
                  </g>
                </g>
              </g>
            </g>
          </g>
        </g>
      </g>
    </g>
    <g id="obediente_3_" data-name="obediente (3)" transform="translate(1176.422 5284.694)">
      <g id="Grupo_1225775" data-name="Grupo 1225775" transform="translate(26.844 0.872)">
        <path id="Trazado_1182794" data-name="Trazado 1182794" d="M153.907,7.5H116.9a.581.581,0,0,0-.581.581V24.193h3.811a2.848,2.848,0,0,1,.2,5.689v3.533h0a1.161,1.161,0,0,1,.985,1.147v7.214a1.161,1.161,0,0,1-.985,1.147h0v3.533a2.848,2.848,0,0,1-.2,5.689h-3.811v4.769h8.021a1.162,1.162,0,0,1,1.162,1.162V60.39s0,0,0,0h.885a1.162,1.162,0,0,1,1.162,1.162v3.707h26.943V8.081A.581.581,0,0,0,153.907,7.5Z" transform="translate(-116.315 -7.5)" fill="#fff3de"/>
      </g>
      <g id="Grupo_1225776" data-name="Grupo 1225776" transform="translate(26.844 0.872)">
        <path id="Trazado_1182795" data-name="Trazado 1182795" d="M120.126,24.193l.1,0V8.081a.581.581,0,0,1,.581-.581H116.9a.581.581,0,0,0-.581.581V24.193Z" transform="translate(-116.315 -7.5)" fill="#ffe5c2"/>
        <path id="Trazado_1182796" data-name="Trazado 1182796" d="M120.126,391.63h-3.811V396.4h3.915v-4.772Z" transform="translate(-116.315 -346.983)" fill="#ffe5c2"/>
      </g>
      <g id="Grupo_1225794" data-name="Grupo 1225794" transform="translate(15.95 17.564)">
        <g id="Grupo_1225777" data-name="Grupo 1225777" transform="translate(15.889 11.99)">
          <path id="Trazado_1182797" data-name="Trazado 1182797" d="M159.3,254.29h5.38v3.974H159.3Z" transform="translate(-159.296 -254.29)" fill="#883f2e"/>
          <path id="Trazado_1182798" data-name="Trazado 1182798" d="M237.5,254.29h7.684v3.974H237.5Z" transform="translate(-228.413 -254.29)" fill="#883f2e"/>
        </g>
        <g id="Grupo_1225778" data-name="Grupo 1225778" transform="translate(15.889 14.048)">
          <path id="Trazado_1182799" data-name="Trazado 1182799" d="M159.3,272h5.38v1.916H159.3Z" transform="translate(-159.296 -272)" fill="#6d3326"/>
          <path id="Trazado_1182800" data-name="Trazado 1182800" d="M237.5,272h7.684v1.916H237.5Z" transform="translate(-228.413 -272)" fill="#6d3326"/>
        </g>
        <g id="Grupo_1225779" data-name="Grupo 1225779" transform="translate(32.662 11.062)">
          <path id="Trazado_1182801" data-name="Trazado 1182801" d="M325.21,249.225a2.915,2.915,0,0,1-2.915,2.915H304.278a.662.662,0,0,1-.662-.662v-4.5a.662.662,0,0,1,.662-.662H322.3A2.915,2.915,0,0,1,325.21,249.225Z" transform="translate(-303.616 -246.31)" fill="#ca6e59"/>
        </g>
        <g id="Grupo_1225780" data-name="Grupo 1225780" transform="translate(32.662 11.062)">
          <path id="Trazado_1182802" data-name="Trazado 1182802" d="M307.577,249.644a.662.662,0,0,1-.662-.662V246.31h-2.636a.662.662,0,0,0-.662.662v4.5a.662.662,0,0,0,.662.662H322.3a2.915,2.915,0,0,0,2.884-2.495Z" transform="translate(-303.616 -246.31)" fill="#bb5d4c"/>
        </g>
        <g id="Grupo_1225781" data-name="Grupo 1225781" transform="translate(21.269 11.062)">
          <path id="Trazado_1182803" data-name="Trazado 1182803" d="M209.294,246.892v4.667a.581.581,0,0,1-.581.581h-2.547a.581.581,0,0,1-.581-.581v-4.667a.581.581,0,0,1,.581-.581h2.547A.581.581,0,0,1,209.294,246.892Z" transform="translate(-205.585 -246.311)" fill="#ca6e59"/>
        </g>
        <g id="Grupo_1225782" data-name="Grupo 1225782" transform="translate(21.269 11.062)">
          <path id="Trazado_1182804" data-name="Trazado 1182804" d="M207.27,251.559v-4.667a.581.581,0,0,1,.581-.581h-1.685a.581.581,0,0,0-.581.581v4.667a.581.581,0,0,0,.581.581h1.685A.581.581,0,0,1,207.27,251.559Z" transform="translate(-205.585 -246.311)" fill="#bb5d4c"/>
        </g>
        <g id="Grupo_1225783" data-name="Grupo 1225783" transform="translate(7.22 5.689)">
          <path id="Trazado_1182805" data-name="Trazado 1182805" d="M92.21,312.312H84.88a1.17,1.17,0,0,1-.177-.015v3.533c.066,0,.132-.008.2-.008h7.286c.067,0,.133,0,.2.008V312.3A1.154,1.154,0,0,1,92.21,312.312Z" transform="translate(-84.703 -299.255)" fill="#883f2e"/>
          <path id="Trazado_1182806" data-name="Trazado 1182806" d="M84.88,312.312a1.17,1.17,0,0,1-.177-.015v3.533c.066,0,.132-.008.2-.008H87.63v-3.511H84.88Z" transform="translate(-84.703 -299.255)" fill="#6d3326"/>
          <path id="Trazado_1182807" data-name="Trazado 1182807" d="M84.88,203.6h7.33a1.168,1.168,0,0,1,.177.015v-3.533c-.066,0-.132.008-.2.008H84.9c-.067,0-.133,0-.2-.008v3.533A1.168,1.168,0,0,1,84.88,203.6Z" transform="translate(-84.703 -200.079)" fill="#883f2e"/>
          <path id="Trazado_1182808" data-name="Trazado 1182808" d="M84.88,203.6h2.75v-3.511H84.9c-.067,0-.133,0-.2-.008v3.533A1.184,1.184,0,0,1,84.88,203.6Z" transform="translate(-84.703 -200.078)" fill="#6d3326"/>
        </g>
        <g id="Grupo_1225784" data-name="Grupo 1225784" transform="translate(6.235 9.207)">
          <path id="Trazado_1182809" data-name="Trazado 1182809" d="M85.88,231.514v7.214a1.162,1.162,0,0,1-1.162,1.162h-7.33a1.162,1.162,0,0,1-1.162-1.162v-7.214a1.162,1.162,0,0,1,1.162-1.162h7.33A1.162,1.162,0,0,1,85.88,231.514Z" transform="translate(-76.225 -230.352)" fill="#ca6e59"/>
        </g>
        <g id="Grupo_1225785" data-name="Grupo 1225785" transform="translate(6.235 9.207)">
          <path id="Trazado_1182810" data-name="Trazado 1182810" d="M80.15,238.728v-7.214a1.162,1.162,0,0,1,1.162-1.162H77.387a1.162,1.162,0,0,0-1.162,1.162v7.214a1.162,1.162,0,0,0,1.162,1.162h3.925A1.162,1.162,0,0,1,80.15,238.728Z" transform="translate(-76.225 -230.352)" fill="#bb5d4c"/>
        </g>
        <g id="Grupo_1225788" data-name="Grupo 1225788" transform="translate(0 32.723)">
          <path id="Trazado_1182811" data-name="Trazado 1182811" d="M58.218,436.279a1.188,1.188,0,0,0,.006-.119v-2.312a1.162,1.162,0,0,0-1.162-1.162h-15.7a1.162,1.162,0,0,0-1.162,1.162v2.312a1.188,1.188,0,0,0,.006.119Z" transform="translate(-38.148 -432.685)" fill="#ca6e59"/>
          <path id="Trazado_1182812" data-name="Trazado 1182812" d="M44.13,436.279a1.188,1.188,0,0,1-.006-.119v-2.312a1.162,1.162,0,0,1,1.162-1.162H41.357a1.162,1.162,0,0,0-1.162,1.162v2.312a1.189,1.189,0,0,0,.006.119Z" transform="translate(-38.148 -432.685)" fill="#bb5d4c"/>
          <g id="Grupo_1225786" data-name="Grupo 1225786" transform="translate(0 3.478)">
            <path id="Trazado_1182813" data-name="Trazado 1182813" d="M44.7,467.477H23.159a.581.581,0,0,1-.581-.581V463.77a1.162,1.162,0,0,1,1.162-1.162h19.8A1.162,1.162,0,0,1,44.7,463.77Z" transform="translate(-22.578 -462.608)" fill="#883f2e"/>
          </g>
          <g id="Grupo_1225787" data-name="Grupo 1225787" transform="translate(0 3.478)">
            <path id="Trazado_1182814" data-name="Trazado 1182814" d="M26.462,466.9V463.77a1.162,1.162,0,0,1,1.162-1.162H23.74a1.162,1.162,0,0,0-1.162,1.162V466.9a.581.581,0,0,0,.581.581h3.884A.581.581,0,0,1,26.462,466.9Z" transform="translate(-22.578 -462.608)" fill="#6d3326"/>
          </g>
        </g>
        <g id="Grupo_1225793" data-name="Grupo 1225793" transform="translate(4.571)">
          <g id="Grupo_1225789" data-name="Grupo 1225789" transform="translate(0 22.257)">
            <path id="Trazado_1182815" data-name="Trazado 1182815" d="M74.888,345.481a2.848,2.848,0,0,1-2.848,2.848H64.753a2.848,2.848,0,1,1,0-5.7H72.04A2.848,2.848,0,0,1,74.888,345.481Z" transform="translate(-61.905 -342.633)" fill="#ca6e59"/>
          </g>
          <g id="Grupo_1225790" data-name="Grupo 1225790" transform="translate(0 22.257)">
            <path id="Trazado_1182816" data-name="Trazado 1182816" d="M65.785,345.481a2.848,2.848,0,0,1,2.848-2.848h-3.88a2.848,2.848,0,1,0,0,5.7h3.88A2.848,2.848,0,0,1,65.785,345.481Z" transform="translate(-61.905 -342.633)" fill="#bb5d4c"/>
          </g>
          <g id="Grupo_1225791" data-name="Grupo 1225791" transform="translate(0)">
            <path id="Trazado_1182817" data-name="Trazado 1182817" d="M74.888,153.976a2.848,2.848,0,0,1-2.848,2.848H64.753a2.848,2.848,0,1,1,0-5.7H72.04A2.848,2.848,0,0,1,74.888,153.976Z" transform="translate(-61.905 -151.128)" fill="#ca6e59"/>
          </g>
          <g id="Grupo_1225792" data-name="Grupo 1225792">
            <path id="Trazado_1182818" data-name="Trazado 1182818" d="M65.785,153.976a2.848,2.848,0,0,1,2.848-2.848h-3.88a2.848,2.848,0,1,0,0,5.7h3.88A2.848,2.848,0,0,1,65.785,153.976Z" transform="translate(-61.905 -151.128)" fill="#bb5d4c"/>
          </g>
        </g>
      </g>
      <g id="Grupo_1225797" data-name="Grupo 1225797" transform="translate(37.775 6.288)">
        <g id="Grupo_1225795" data-name="Grupo 1225795">
          <circle id="Elipse_14575" data-name="Elipse 14575" cx="8.155" cy="8.155" r="8.155" fill="#4fc123"/>
        </g>
        <g id="Grupo_1225796" data-name="Grupo 1225796" transform="translate(0)">
          <path id="Trazado_1182819" data-name="Trazado 1182819" d="M214.28,62.262a8.157,8.157,0,0,1,6.2-7.918,8.155,8.155,0,1,0,0,15.836A8.157,8.157,0,0,1,214.28,62.262Z" transform="translate(-210.372 -54.107)" fill="#47a920"/>
        </g>
      </g>
      <g id="Grupo_1225798" data-name="Grupo 1225798" transform="translate(15.078 0)">
        <path id="Trazado_1182820" data-name="Trazado 1182820" d="M67.292,27.755h-1.4V12.668a.872.872,0,0,0-.9-.871.9.9,0,0,0-.845.908v15.05H58.3a.872.872,0,1,0,0,1.743h8.989a2.043,2.043,0,0,1,0,4.086H49.484V29.5h4.751a.872.872,0,0,0,0-1.743H49.275a1.536,1.536,0,0,0-1.408.927H41.7a1.454,1.454,0,0,0-1.353-.927H37.8a1.454,1.454,0,0,0-1.353.927H32.711v-.748a2.033,2.033,0,0,0-.985-1.739V23.975a3.72,3.72,0,0,0-1.07-7.282h-2.94V1.743h36.43V8.6a.872.872,0,0,0,.9.871.9.9,0,0,0,.845-.908V1.453A1.453,1.453,0,0,0,64.436,0H27.425a1.453,1.453,0,0,0-1.453,1.453v15.24h-2.6a3.72,3.72,0,0,0-1.07,7.282v2.219a2.033,2.033,0,0,0-.985,1.739v7.214a2.033,2.033,0,0,0,.985,1.739v2.219a3.72,3.72,0,0,0,1.07,7.282h2.6v3.026H19.159a2.036,2.036,0,0,0-2.034,2.034v1.444h-.014a2.036,2.036,0,0,0-2.034,2.034v3.125a1.454,1.454,0,0,0,1.453,1.453h47.9a1.453,1.453,0,0,0,1.453-1.453V35.327h1.4a3.786,3.786,0,0,0,0-7.572ZM41.8,30.425h5.941v2.231H41.8ZM38.091,29.5h1.966v4.086H38.091Zm-5.38.927h3.636v2.231H32.711ZM21.392,20.413a1.979,1.979,0,0,1,1.977-1.977h7.286a1.977,1.977,0,0,1,0,3.953H23.369a1.979,1.979,0,0,1-1.977-1.977Zm1.955,15.026a.291.291,0,0,1-.291-.291V27.934a.291.291,0,0,1,.291-.291h7.33a.291.291,0,0,1,.291.291v7.214a.291.291,0,0,1-.291.291Zm6.635,1.743v1.767H24.042V37.182ZM24.042,25.9V24.133h5.941V25.9Zm-.673,18.746a1.977,1.977,0,1,1,0-3.953h7.286a1.977,1.977,0,0,1,0,3.953ZM37.2,57.762H16.821V54.927a.291.291,0,0,1,.291-.291h5.4a.872.872,0,1,0,0-1.743H18.869V51.449a.291.291,0,0,1,.291-.291h15.7a.291.291,0,0,1,.291.291v1.444h-8.58a.872.872,0,1,0,0,1.743H36.912a.291.291,0,0,1,.291.291Zm26.943,0h-25.2V54.927a2.036,2.036,0,0,0-2.034-2.034H36.9V51.449a2.036,2.036,0,0,0-2.034-2.034H27.715V46.389h2.94a3.72,3.72,0,0,0,1.07-7.282V36.887a2.033,2.033,0,0,0,.985-1.739V34.4h3.736a1.454,1.454,0,0,0,1.353.927h2.547A1.454,1.454,0,0,0,41.7,34.4h6.166a1.536,1.536,0,0,0,1.408.927H64.145V57.762Z" transform="translate(-15.078 0)"/>
        <path id="Trazado_1182821" data-name="Trazado 1182821" d="M202.872,55.634a9.027,9.027,0,1,0,9.027-9.027,9.037,9.037,0,0,0-9.027,9.027Zm16.31,0A7.283,7.283,0,1,1,211.9,48.35a7.292,7.292,0,0,1,7.283,7.283Z" transform="translate(-181.046 -41.19)"/>
        <path id="Trazado_1182822" data-name="Trazado 1182822" d="M247.831,102.889a.872.872,0,0,0-1.233,1.233l2.681,2.681a.872.872,0,0,0,1.233,0l4.156-4.156a.872.872,0,0,0-1.233-1.233l-3.539,3.539Z" transform="translate(-219.465 -89.402)"/>
        <path id="Trazado_1182823" data-name="Trazado 1182823" d="M243.681,327.941a.872.872,0,0,0,.872.872h16.03a.872.872,0,0,0,0-1.743h-16.03A.872.872,0,0,0,243.681,327.941Z" transform="translate(-217.113 -289.057)"/>
        <path id="Trazado_1182824" data-name="Trazado 1182824" d="M319.636,363.546h-8.264a.872.872,0,0,0,0,1.743h8.264a.872.872,0,0,0,0-1.743Z" transform="translate(-276.166 -321.294)"/>
        <path id="Trazado_1182825" data-name="Trazado 1182825" d="M244.553,365.289H249.3a.872.872,0,1,0,0-1.743h-4.744a.872.872,0,1,0,0,1.743Z" transform="translate(-217.113 -321.294)"/>
        <path id="Trazado_1182826" data-name="Trazado 1182826" d="M260.582,400.023h-16.03a.872.872,0,1,0,0,1.743h16.03a.872.872,0,0,0,0-1.743Z" transform="translate(-217.112 -353.532)"/>
        <path id="Trazado_1182827" data-name="Trazado 1182827" d="M350.568,436.5h-4.2a.872.872,0,1,0,0,1.743h4.2a.872.872,0,1,0,0-1.743Z" transform="translate(-307.098 -385.77)"/>
        <path id="Trazado_1182828" data-name="Trazado 1182828" d="M253.713,436.5h-9.16a.872.872,0,1,0,0,1.743h9.16a.872.872,0,1,0,0-1.743Z" transform="translate(-217.113 -385.77)"/>
      </g>
    </g>
  </g>
</svg>
